<svg width="39" height="20" viewBox="0 0 39 20" fill="none" xmlns="http://www.w3.org/2000/svg">
<path d="M2 8.75C1.30964 8.75 0.75 9.30964 0.75 10C0.75 10.6904 1.30964 11.25 2 11.25L2 8.75ZM37.8839 10.8839C38.372 10.3957 38.372 9.60427 37.8839 9.11612L29.9289 1.16117C29.4408 0.67301 28.6493 0.67301 28.1612 1.16117C27.673 1.64932 27.673 2.44078 28.1612 2.92893L35.2322 10L28.1612 17.0711C27.673 17.5592 27.673 18.3507 28.1612 18.8388C28.6493 19.327 29.4408 19.327 29.9289 18.8388L37.8839 10.8839ZM2 11.25L37 11.25V8.75L2 8.75L2 11.25Z" fill="#104042"/>
</svg>
