<svg width="32" height="16" viewBox="0 0 32 16" fill="none" xmlns="http://www.w3.org/2000/svg">
<path d="M1 7.00012C0.447715 7.00012 4.82823e-08 7.44784 0 8.00012C-4.82823e-08 8.55241 0.447715 9.00012 1 9.00012L1 7.00012ZM31.7071 8.70723C32.0976 8.31671 32.0976 7.68354 31.7071 7.29302L25.3431 0.929056C24.9526 0.538532 24.3195 0.538532 23.9289 0.929056C23.5384 1.31958 23.5384 1.95275 23.9289 2.34327L29.5858 8.00012L23.9289 13.657C23.5384 14.0475 23.5384 14.6807 23.9289 15.0712C24.3195 15.4617 24.9526 15.4617 25.3431 15.0712L31.7071 8.70723ZM1 9.00012L31 9.00012L31 7.00012L1 7.00012L1 9.00012Z" fill="black"/>
</svg>
