<svg width="41" height="42" viewBox="0 0 41 42" fill="none" xmlns="http://www.w3.org/2000/svg">
<path fill-rule="evenodd" clip-rule="evenodd" d="M17.7861 0.606085C19.4024 -0.202029 21.3047 -0.202028 22.921 0.606086L38.1954 8.24331C40.8881 9.58964 40.8881 13.4322 38.1954 14.7786L22.921 22.4158C21.3047 23.2239 19.4024 23.2239 17.7861 22.4158L2.51169 14.7786C-0.180988 13.4322 -0.180972 9.58964 2.51169 8.2433L17.7861 0.606085ZM0.135337 31.7505C0.486531 30.9603 1.4118 30.6045 2.20199 30.9556L19.2947 38.5524C19.9695 38.8523 20.7397 38.8523 21.4144 38.5524L38.5072 30.9556C39.2973 30.6045 40.2226 30.9603 40.5738 31.7505C40.925 32.5407 40.5691 33.466 39.7789 33.8172L22.6862 41.414C21.2018 42.0737 19.5074 42.0737 18.023 41.414L0.930203 33.8172C0.140016 33.466 -0.215858 32.5407 0.135337 31.7505ZM2.20199 21.5621C1.4118 21.2109 0.486531 21.5668 0.135337 22.357C-0.215858 23.1471 0.140016 24.0724 0.930203 24.4236L18.023 32.0204C19.5074 32.6801 21.2018 32.6801 22.6862 32.0204L39.7789 24.4236C40.5691 24.0724 40.925 23.1471 40.5738 22.357C40.2226 21.5668 39.2973 21.2109 38.5072 21.5621L21.4144 29.1589C20.7397 29.4588 19.9695 29.4588 19.2947 29.1589L2.20199 21.5621Z" fill="#104042"/>
</svg>
