<svg width="50" height="50" viewBox="0 0 50 50" fill="none" xmlns="http://www.w3.org/2000/svg">
<path fill-rule="evenodd" clip-rule="evenodd" d="M50 25C50 38.8071 38.8071 50 25 50C11.1929 50 0 38.8071 0 25C0 11.1929 11.1929 0 25 0C38.8071 0 50 11.1929 50 25ZM25 24C22.7909 24 21 22.2091 21 20C21 17.7974 22.7803 16.0105 24.9805 16L25 16.0002L25.0195 16C27.2197 16.0105 29 17.7974 29 20C29 20.5523 29.4477 21 30 21C30.5523 21 31 20.5523 31 20C31 17.027 28.8377 14.559 26 14.083V11.2502C26 10.6979 25.5523 10.2502 25 10.2502C24.4477 10.2502 24 10.6979 24 11.2502V14.083C21.1623 14.559 19 17.027 19 20C19 23.3137 21.6863 26 25 26C27.2091 26 29 27.7909 29 30C29 32.2091 27.2091 34 25 34C22.7909 34 21 32.2091 21 30C21 29.4477 20.5523 29 20 29C19.4477 29 19 29.4477 19 30C19 32.973 21.1623 35.441 24 35.917V38.75C24 39.3023 24.4477 39.75 25 39.75C25.5523 39.75 26 39.3023 26 38.75V35.917C28.8377 35.441 31 32.973 31 30C31 26.6863 28.3137 24 25 24Z" fill="#104042"/>
</svg>
