<svg width="61" height="64" viewBox="0 0 61 64" fill="none" xmlns="http://www.w3.org/2000/svg">
<path d="M24.5846 1.34012L7.77979 8.80894C2.91898 10.9693 -0.288746 15.8073 0.0205632 21.1176C1.2298 41.878 7.30923 51.0175 23.1064 61.7124C27.2912 64.5456 32.8075 64.5525 36.9893 61.7147C52.835 50.9617 58.6969 41.6929 60.0124 21.1895C60.3553 15.8441 57.1424 10.9547 52.2477 8.77932L35.5095 1.34012C32.0319 -0.205497 28.0623 -0.205494 24.5846 1.34012Z" fill="#AEFF1C"/>
<path fill-rule="evenodd" clip-rule="evenodd" d="M41.8025 23.915C42.8506 24.8322 42.9568 26.4253 42.0397 27.4735L32.3898 38.5019C30.3162 40.8717 26.7445 41.1891 24.2856 39.2219L18.3919 34.507C17.3043 33.6369 17.128 32.0499 17.998 30.9624C18.8681 29.8748 20.455 29.6985 21.5426 30.5685L27.4363 35.2835C27.7876 35.5645 28.2979 35.5192 28.5941 35.1807L38.244 24.1522C39.1611 23.1041 40.7543 22.9979 41.8025 23.915Z" fill="#175557"/>
</svg>
