<svg width="55" height="57" viewBox="0 0 55 57" fill="none" xmlns="http://www.w3.org/2000/svg">
<path fill-rule="evenodd" clip-rule="evenodd" d="M23.9693 0.816756C26.1473 -0.272253 28.7109 -0.272251 30.8889 0.816757L51.4727 11.1086C55.1013 12.9229 55.1013 18.1012 51.4727 19.9155L30.8889 30.2074C28.7109 31.2964 26.1473 31.2964 23.9693 30.2073L3.38553 19.9155C-0.243104 18.1012 -0.243083 12.9229 3.38553 11.1086L23.9693 0.816756ZM0.182379 42.7867C0.655646 41.7219 1.90254 41.2423 2.96739 41.7156L26.0015 51.953C26.9107 52.3571 27.9486 52.3571 28.8579 51.953L51.892 41.7156C52.9568 41.2423 54.2037 41.7219 54.677 42.7867C55.1503 43.8516 54.6707 45.0985 53.6058 45.5717L30.5717 55.8091C28.5714 56.6982 26.288 56.6982 24.2876 55.8091L1.25354 45.5717C0.188685 45.0985 -0.290889 43.8516 0.182379 42.7867ZM2.96739 29.0564C1.90254 28.5831 0.655646 29.0627 0.182379 30.1276C-0.290889 31.1924 0.188685 32.4393 1.25354 32.9126L24.2876 43.1499C26.288 44.039 28.5714 44.039 30.5717 43.1499L53.6058 32.9126C54.6707 32.4393 55.1503 31.1924 54.677 30.1276C54.2037 29.0627 52.9568 28.5831 51.892 29.0564L28.8579 39.2938C27.9486 39.6979 26.9107 39.6979 26.0015 39.2938L2.96739 29.0564Z" fill="#AEFF1C"/>
</svg>
