<svg width="112" height="112" viewBox="0 0 112 112" fill="none" xmlns="http://www.w3.org/2000/svg">
<path fill-rule="evenodd" clip-rule="evenodd" d="M60.7253 5.39733C88.5809 6.42596 110.977 28.8228 112.006 56.6785C112.047 57.7824 111.148 58.6813 110.043 58.6813H60.7225C59.6179 58.6813 58.7225 57.7859 58.7225 56.6813V7.36041C58.7225 6.25584 59.6215 5.35657 60.7253 5.39733ZM5.40625 64.0145C5.40625 38.4063 25.4643 17.483 50.7266 16.0986V48.0197C50.7266 58.3266 59.0819 66.682 69.3887 66.682H101.31C99.9262 91.9447 79.0029 112.003 53.3947 112.003C26.8914 112.003 5.40625 90.518 5.40625 64.0145Z" fill="#104042"/>
<path fill-rule="evenodd" clip-rule="evenodd" d="M55.3231 0.00133316C83.1787 1.02996 105.575 23.4268 106.604 51.2826C106.645 52.3864 105.745 53.2853 104.641 53.2853H55.3203C54.2157 53.2853 53.3203 52.3899 53.3203 51.2853V1.96441C53.3203 0.859845 54.2193 -0.0394277 55.3231 0.00133316ZM0 58.6183C0 33.0101 20.0581 12.0868 45.3203 10.7024V42.6233C45.3203 52.9302 53.6757 61.2856 63.9825 61.2856H95.904C94.52 86.5484 73.5967 106.607 47.9885 106.607C21.4852 106.607 0 85.1217 0 58.6183Z" fill="#AEFF1C"/>
</svg>
