<svg width="63" height="63" viewBox="0 0 63 63" fill="none" xmlns="http://www.w3.org/2000/svg">
<path d="M3.2279 25.0001L59.2721 25.0001C62.4599 25.0001 63.7118 20.7769 61.0593 18.9707L34.8244 1.10559C32.6599 -0.368368 29.8401 -0.368368 27.6756 1.10559L1.44067 18.9707C-1.21176 20.7769 0.0400681 25.0001 3.2279 25.0001Z" fill="black"/>
<path d="M10.9375 29.6876H20.3125V45.3126H10.9375V29.6876Z" fill="black"/>
<path d="M51.5625 29.6876H42.1875V45.3126H51.5625V29.6876Z" fill="black"/>
<path d="M26.5625 29.6876H35.9375V45.3126H26.5625V29.6876Z" fill="black"/>
<path d="M57.1137 51.7276C56.5844 50.6689 55.5023 50.0001 54.3186 50.0001L8.18136 50.0001C6.99769 50.0001 5.91562 50.6689 5.38627 51.7276L2.26127 57.9776C1.22236 60.0554 2.73329 62.5001 5.05636 62.5001H57.4436C59.7667 62.5001 61.2776 60.0554 60.2387 57.9776L57.1137 51.7276Z" fill="black"/>
</svg>
