<svg width="170" height="170" viewBox="0 0 170 170" fill="none" xmlns="http://www.w3.org/2000/svg">
<path d="M50.15 121.319C50.9396 126.557 51.9099 131.8 53.7683 136.762C54.1202 137.693 54.5614 138.689 55.4495 139.137C56.6087 139.724 57.9872 139.137 59.1605 138.578C74.4146 131.342 91.2908 128.206 108.126 129.478C112.746 129.83 117.34 130.522 121.97 130.749C122.887 130.795 123.903 130.789 124.596 130.183C125.33 129.54 125.438 128.454 125.487 127.479C126.609 105.257 124.486 82.9898 119.189 61.3793C118.402 58.1717 117.534 54.9488 115.986 52.031C115.573 51.2496 115.079 50.4613 114.312 50.0201C113.341 49.4629 112.14 49.5742 111.027 49.7103C88.7531 52.4392 66.844 58.3924 44.4152 59.1221C42.4207 59.1867 39.9311 59.2311 38.549 60.9124C37.5752 62.0938 38.393 63.3246 39.091 64.411C41.4528 68.0914 42.4453 72.632 43.4825 76.8404C44.6264 81.4829 45.4899 86.1903 46.2103 90.9196C46.9341 95.6771 47.5126 100.455 48.0874 105.233C48.6623 110.012 49.2149 114.792 49.9001 119.555C49.9775 120.142 50.0608 120.729 50.15 121.319Z" fill="#AEFF1C"/>
<path d="M84.5965 94.7396C85.1408 95.2312 85.7486 95.7427 86.4807 95.7955C87.1647 95.8436 87.8064 95.4775 88.3684 95.0833C91.2569 93.0618 93.296 90.0724 95.3304 87.1968C103.391 75.8329 112.498 65.2504 122.534 55.5882C123.681 54.4842 124.962 53.3438 126.406 52.7783C126.651 52.6826 126.918 52.6514 127.178 52.6874C127.438 52.7234 127.686 52.8256 127.896 52.9843C128.106 53.1429 128.273 53.3527 128.378 53.5937C128.485 53.8347 128.527 54.0989 128.503 54.361C128.302 56.3743 127.07 58.3442 125.897 60.0876C117.963 71.8742 110.689 84.0912 104.107 96.6836C100.42 103.739 95.8302 111.488 92.097 117.289C91.3367 118.47 90.2515 119.561 88.8811 119.87C86.4572 120.424 84.39 118.162 82.9305 116.149L72.166 101.292L61.276 86.2629L58.5646 82.5199C57.761 81.41 56.6874 80.2638 56.2264 78.9556C55.4649 76.8074 57.0863 75.4042 59.1677 75.6588C61.4367 75.9357 63.8137 77.4551 65.7378 78.6177C67.8959 79.9475 69.9541 81.4328 71.8961 83.062C75.85 86.3298 79.453 89.9844 83.212 93.4725C83.6704 93.8972 84.1319 94.3195 84.5965 94.7396Z" fill="black"/>
<path d="M22.0671 89.4424C31.6616 81.7175 42.9485 76.3732 55.0046 73.847C55.0866 73.83 55.1636 73.7941 55.2291 73.7421C55.2948 73.6901 55.3473 73.6235 55.3826 73.5476C55.4178 73.4715 55.4348 73.3885 55.4321 73.3047C55.4294 73.221 55.4071 73.1392 55.3671 73.0656C46.6851 57.2046 50.5169 36.9885 41.0841 21.4513C40.8647 21.0899 40.1795 19.8369 37.6336 20.6816C29.3106 23.4434 21.3408 28.4567 12.5838 28.0003C12.531 28.0003 10.3746 34.3874 10.12 34.9834C9.6143 36.1449 8.95494 37.2513 8.46805 38.414C8.10903 39.2716 8.92561 40.2032 9.30222 41.008C11.0433 44.7307 12.0675 48.742 12.7574 52.7815C13.4614 56.903 13.8309 61.0716 14.2592 65.2272C14.685 69.3558 15.1579 73.495 16.0976 77.5462C17.0104 81.4801 18.389 85.3278 20.5489 88.7572C20.6545 88.925 20.7617 89.0916 20.8704 89.257C20.9336 89.352 21.0157 89.433 21.1117 89.494C21.2078 89.555 21.3154 89.5961 21.428 89.6137C21.5405 89.6313 21.6555 89.6242 21.7654 89.5949C21.8755 89.5656 21.9782 89.5139 22.0671 89.4424Z" fill="#DFD4D9"/>
<path d="M5.38453 40.3642C5.28105 40.3644 5.18026 40.3304 5.09814 40.2675C5.01589 40.2046 4.95676 40.1163 4.93001 40.0162C4.90326 39.9162 4.9103 39.8102 4.95008 39.7145C4.98985 39.6189 5.06013 39.5393 5.14988 39.4878C8.119 37.7952 11.2504 36.4051 14.4971 35.338C14.9957 35.1749 15.1177 35.0365 15.1318 34.9497C15.1241 34.8226 15.0905 34.6985 15.0332 34.5848C13.8189 31.6212 12.4521 28.6764 10.9785 25.8348C10.9501 25.7801 10.9328 25.7203 10.9274 25.6589C10.9221 25.5974 10.9289 25.5356 10.9474 25.4768C10.9661 25.418 10.996 25.3635 11.0357 25.3163C11.0753 25.2692 11.1239 25.2302 11.1786 25.2018C11.2332 25.1734 11.2931 25.1561 11.3544 25.1507C11.4159 25.1454 11.4777 25.1522 11.5365 25.1707C11.5953 25.1894 11.6499 25.2193 11.697 25.2589C11.7442 25.2986 11.7831 25.3472 11.8115 25.4019C13.3015 28.2692 14.6766 31.2387 15.9014 34.2293C15.9871 34.4381 16.1161 34.7537 16.0575 35.1034C15.9331 35.8542 15.1318 36.1182 14.7892 36.2297C11.603 37.2778 8.52986 38.6424 5.61565 40.3032C5.54503 40.3427 5.46548 40.3637 5.38453 40.3642Z" fill="black"/>
<path d="M21.5817 37.6673C21.4757 37.668 21.3726 37.6328 21.2891 37.5673C21.2056 37.502 21.1469 37.4101 21.1222 37.307C21.0976 37.2038 21.1086 37.0954 21.1534 36.9993C21.1984 36.9034 21.2745 36.8252 21.3693 36.778C25.1327 34.8779 29.1316 33.4856 33.2613 32.6376C33.3809 32.6179 33.5036 32.6452 33.6035 32.7139C33.7035 32.7826 33.7729 32.8874 33.7973 33.0061C33.8218 33.125 33.7993 33.2486 33.7345 33.3512C33.6698 33.4537 33.5679 33.5271 33.4501 33.5562C29.4018 34.3883 25.4814 35.7534 21.7917 37.6157C21.7268 37.6493 21.6548 37.667 21.5817 37.6673Z" fill="black"/>
<path d="M22.7017 43.9166C22.5953 43.9171 22.4919 43.8813 22.4085 43.8152C22.3251 43.7493 22.2665 43.6569 22.2426 43.5531C22.2185 43.4495 22.2305 43.3408 22.2764 43.2448C22.3223 43.1488 22.3995 43.0713 22.4952 43.025C29.625 39.524 33.8909 38.7368 37.1243 38.4294C37.186 38.4235 37.2481 38.4298 37.3073 38.448C37.3665 38.4662 37.4215 38.4959 37.4692 38.5353C37.517 38.5747 37.5564 38.6232 37.5854 38.6779C37.6144 38.7325 37.6323 38.7925 37.6382 38.8541C37.6441 38.9157 37.6377 38.9779 37.6195 39.0371C37.6014 39.0962 37.5717 39.1513 37.5322 39.199C37.4928 39.2466 37.4444 39.2862 37.3897 39.3152C37.335 39.3441 37.2751 39.3621 37.2135 39.368C34.0645 39.6683 29.903 40.438 22.9082 43.8732C22.8435 43.903 22.7729 43.9178 22.7017 43.9166Z" fill="black"/>
<path d="M21.5837 53.4556C21.4803 53.4558 21.3795 53.4218 21.2974 53.3589C21.2151 53.2959 21.156 53.2077 21.1292 53.1076C21.1025 53.0076 21.1095 52.9016 21.1493 52.806C21.1891 52.7103 21.2593 52.6307 21.3491 52.5792C28.5633 48.4494 33.3689 46.9171 42.0814 44.844C42.1972 44.8276 42.3149 44.8551 42.4116 44.921C42.5081 44.9869 42.5766 45.0865 42.6036 45.2002C42.6306 45.314 42.6142 45.4338 42.5575 45.5361C42.5008 45.6383 42.408 45.7157 42.2973 45.7533C33.6775 47.8041 28.9224 49.3186 21.8137 53.3897C21.744 53.4312 21.6648 53.4538 21.5837 53.4556Z" fill="black"/>
<path d="M26.7899 58.6399C26.6817 58.64 26.5768 58.6027 26.4929 58.5343C26.4092 58.4659 26.3516 58.3706 26.3298 58.2646C26.3081 58.1586 26.3237 58.0484 26.3741 57.9526C26.4243 57.8568 26.5062 57.7813 26.6057 57.7389L39.4257 52.268C39.4823 52.2439 39.5432 52.2311 39.6049 52.2305C39.6665 52.2298 39.7278 52.2413 39.7849 52.2643C39.8422 52.2873 39.8943 52.3213 39.9383 52.3644C39.9824 52.4075 40.0174 52.4589 40.0416 52.5156C40.0658 52.5724 40.0786 52.6333 40.0793 52.6949C40.0799 52.7566 40.0684 52.8177 40.0454 52.8748C40.0224 52.9321 39.9883 52.9842 39.9453 53.0283C39.9021 53.0723 39.8507 53.1074 39.7941 53.1315L26.9741 58.6024C26.9159 58.6272 26.8532 58.6399 26.7899 58.6399Z" fill="black"/>
<path d="M25.0473 68.8659C24.9451 68.8659 24.8456 68.8325 24.764 68.7708C24.6826 68.709 24.6235 68.6225 24.5957 68.524C24.568 68.4257 24.5732 68.3208 24.6104 68.2257C24.6477 68.1304 24.7149 68.05 24.8021 67.9965C31.9764 63.6098 39.4945 60.3905 43.5117 59.9858C43.5733 59.9796 43.6356 59.9855 43.6949 60.0035C43.7542 60.0213 43.8094 60.0508 43.8573 60.09C43.9052 60.1291 43.945 60.1775 43.9743 60.232C44.0035 60.2866 44.0218 60.3464 44.0279 60.4081C44.0342 60.4697 44.0281 60.5319 44.0102 60.5913C43.9923 60.6505 43.9629 60.7057 43.9236 60.7537C43.8844 60.8016 43.8362 60.8413 43.7816 60.8706C43.727 60.9 43.6673 60.9182 43.6056 60.9244C39.7163 61.3162 32.3566 64.4816 25.2913 68.8015C25.2174 68.8449 25.133 68.8672 25.0473 68.8659Z" fill="black"/>
<path d="M32.1833 73.1495C32.0802 73.1492 31.98 73.1152 31.8982 73.0523C31.8163 72.9894 31.7575 72.9013 31.7309 72.8017C31.7041 72.7021 31.7109 72.5964 31.7504 72.501C31.7898 72.4058 31.8595 72.326 31.9486 72.2742C34.5873 70.7361 38.7335 69.1464 41.385 68.656C41.4466 68.6421 41.5103 68.6408 41.5724 68.6522C41.6344 68.6636 41.6936 68.6874 41.7463 68.7221C41.7989 68.7569 41.8441 68.8019 41.8789 68.8545C41.9138 68.907 41.9377 68.9662 41.9492 69.0281C41.9608 69.0902 41.9597 69.154 41.9461 69.2156C41.9323 69.2772 41.9064 69.3353 41.8697 69.3867C41.8331 69.438 41.7864 69.4815 41.7325 69.5143C41.6787 69.5473 41.6187 69.5689 41.5563 69.5781C39.0362 70.0474 34.9381 71.6184 32.4215 73.0849C32.3493 73.1273 32.2671 73.1496 32.1833 73.1495Z" fill="black"/>
<path d="M40.2772 125.755C40.3618 125.61 40.4784 125.486 40.6179 125.393C40.7575 125.299 40.9166 125.239 41.083 125.217C41.2492 125.195 41.4187 125.21 41.578 125.263C41.7374 125.314 41.8828 125.403 42.003 125.521C46.5576 129.96 49.6596 136.295 48.4019 142.476C47.7719 145.574 45.0535 153.632 36.3926 157.09C28.7466 160.141 19.2926 158.769 13.8465 152.593C8.9916 147.09 7.90283 138.651 10.9134 132.003C11.5 130.721 11.6243 129.404 14.2806 130.956C17.9176 133.084 30.7787 141.247 31.1388 140.834C31.8956 139.968 34.8216 135.018 36.2213 132.637L40.2772 125.755Z" fill="black"/>
<path d="M28.8609 137.399C29.302 137.708 30.0588 138.439 30.3309 137.975C37.0419 126.514 38.8803 123.99 38.0978 123.309C35.4251 120.972 29.4604 119.901 24.8073 121.372C19.1676 123.154 14.3491 126.945 15.0577 127.473C17.0041 128.932 19.0655 130.533 21.0412 131.918L28.8609 137.399Z" fill="black"/>
<path d="M30.074 138.595C29.6457 138.595 29.2163 138.263 28.8327 137.967C28.7447 137.899 28.6625 137.836 28.5898 137.784L20.7713 132.304C19.3048 131.275 17.7878 130.128 16.3212 129.019C15.8003 128.625 15.2829 128.233 14.7749 127.852C14.6771 127.777 14.602 127.676 14.5585 127.561C14.5148 127.446 14.5045 127.32 14.5285 127.201C14.6881 126.262 16.8445 124.781 17.7655 124.187C19.9149 122.806 22.2337 121.709 24.6641 120.923C26.9344 120.205 29.634 120.036 32.2656 120.447C34.7974 120.843 37.0348 121.757 38.404 122.955C39.0539 123.524 38.6386 124.517 38.1048 125.572C37.4759 126.83 36.2921 128.822 34.5006 131.837C33.4846 133.548 32.221 135.676 30.7345 138.215C30.6812 138.309 30.608 138.391 30.5201 138.454C30.4323 138.518 30.3317 138.562 30.2253 138.583C30.1753 138.592 30.1246 138.595 30.074 138.595ZM29.1283 137.016C29.2151 137.077 29.3078 137.149 29.4064 137.225C29.5906 137.374 29.7867 137.509 29.993 137.626C31.4525 135.134 32.6915 133.042 33.6981 131.355C35.3664 128.546 36.4693 126.69 37.1146 125.454C37.8572 124.029 37.8185 123.72 37.7904 123.659C35.3958 121.566 29.6657 120.325 24.9504 121.815C20.0134 123.376 16.0784 126.335 15.5176 127.231C15.9704 127.571 16.4292 127.919 16.8914 128.268C18.3509 129.373 19.8609 130.517 21.3146 131.536L29.1318 137.016H29.1283Z" fill="black"/>
<path d="M21.1788 158.724C21.0993 158.724 21.0211 158.704 20.9517 158.665C20.8821 158.626 20.8237 158.57 20.7817 158.503C20.7397 158.435 20.7155 158.358 20.7115 158.279C20.7075 158.199 20.7238 158.119 20.7588 158.049C21.9813 155.557 23.1534 152.994 24.2879 150.516C25.9809 146.819 27.573 143.327 29.3328 140.04C29.3612 139.983 29.4003 139.934 29.4479 139.894C29.4955 139.854 29.5506 139.824 29.6101 139.805C29.6694 139.786 29.7321 139.779 29.7942 139.785C29.8561 139.791 29.9164 139.809 29.9714 139.838C30.0265 139.867 30.075 139.907 30.1145 139.957C30.1538 140.005 30.1832 140.06 30.2008 140.12C30.2185 140.179 30.2242 140.242 30.2172 140.304C30.2104 140.366 30.1914 140.426 30.1611 140.48C28.4201 143.743 26.828 147.224 25.142 150.908C24.0052 153.391 22.8296 155.959 21.6012 158.462C21.5625 158.541 21.5024 158.607 21.4277 158.653C21.3531 158.7 21.2668 158.725 21.1788 158.724Z" fill="black"/>
<path d="M32.0901 143.299C31.9928 143.299 31.8979 143.268 31.8185 143.212C31.739 143.156 31.679 143.077 31.6466 142.986L30.708 140.31C30.6851 140.251 30.6742 140.188 30.676 140.125C30.6777 140.062 30.6922 140 30.7184 139.942C30.7446 139.885 30.782 139.834 30.8285 139.792C30.8751 139.749 30.9296 139.716 30.989 139.696C31.0483 139.675 31.1114 139.665 31.1741 139.67C31.237 139.674 31.2984 139.69 31.3547 139.718C31.4111 139.746 31.4612 139.785 31.502 139.833C31.5429 139.881 31.5737 139.936 31.5926 139.997L32.5312 142.674C32.5725 142.791 32.5656 142.919 32.512 143.031C32.4582 143.144 32.3623 143.23 32.2449 143.272C32.1953 143.29 32.1429 143.299 32.0901 143.299Z" fill="black"/>
<path d="M34.9849 150.053C34.8861 150.053 34.7898 150.023 34.7097 149.964C34.6296 149.907 34.5699 149.825 34.539 149.731L33.4573 146.446C33.4381 146.388 33.4306 146.326 33.4351 146.264C33.4397 146.203 33.4564 146.143 33.4842 146.088C33.512 146.033 33.5504 145.983 33.597 145.944C33.6437 145.904 33.6979 145.873 33.7565 145.853C33.815 145.834 33.8769 145.827 33.9382 145.831C33.9997 145.836 34.0597 145.853 34.1147 145.88C34.1697 145.908 34.2187 145.947 34.259 145.994C34.2991 146.04 34.3297 146.095 34.349 146.152L35.4307 149.438C35.4499 149.496 35.4576 149.558 35.4529 149.619C35.4483 149.682 35.4316 149.741 35.4038 149.797C35.376 149.852 35.3377 149.9 35.291 149.941C35.2443 149.981 35.1901 150.011 35.1315 150.03C35.0842 150.046 35.0347 150.053 34.9849 150.053Z" fill="black"/>
<path d="M38.0954 157.392C38.0254 157.393 37.9564 157.377 37.8933 157.348C37.8302 157.317 37.7746 157.274 37.7305 157.219C36.7722 156.058 36.1884 154.634 36.0563 153.135C36.0461 153.01 36.0856 152.887 36.1663 152.792C36.2472 152.697 36.3624 152.637 36.4868 152.628C36.6113 152.617 36.7348 152.656 36.83 152.737C36.9253 152.818 36.9847 152.933 36.9949 153.058C37.1121 154.369 37.6237 155.614 38.4626 156.627C38.5408 156.725 38.5777 156.848 38.5649 156.971C38.5521 157.095 38.4909 157.209 38.3945 157.287C38.3104 157.357 38.2045 157.395 38.0954 157.392Z" fill="black"/>
<path d="M127.545 138.713C124.544 138.713 121.862 137.927 120.253 136.812C115.577 133.578 113.185 127.608 114.297 121.959C114.526 120.801 115.547 116.771 119.107 113.556C122.456 110.532 126.926 109.388 132.035 110.248C137.441 111.157 140.227 114.195 141.613 116.583C143.578 119.969 143.988 124.277 142.684 127.829C140.304 134.304 135.879 136.906 132.594 137.948C130.96 138.459 129.257 138.718 127.545 138.713ZM128.764 110.901C119.894 110.901 116.039 117.988 115.222 122.141C114.18 127.429 116.417 133.014 120.79 136.04C123.028 137.589 127.829 138.47 132.311 137.05C135.4 136.072 139.556 133.621 141.804 127.503C143.015 124.207 142.625 120.203 140.803 117.053C139.512 114.84 136.931 112.023 131.886 111.173C130.855 110.996 129.811 110.906 128.764 110.901Z" fill="black"/>
<path d="M128.116 135.212C126.99 135.218 125.866 135.09 124.77 134.832C122.219 134.211 120.305 132.887 119.079 130.894C117.89 128.962 117.289 127.094 117.241 125.183C117.174 122.514 118.214 119.786 120.329 117.088C121.62 115.445 123.902 114.083 126.443 113.451C129.366 112.726 132.246 113.066 134.554 114.409C140.319 117.762 140.42 122.533 139.973 125.078C139.137 129.8 135.163 134.229 131.122 134.95C130.129 135.124 129.124 135.211 128.116 135.212ZM129.445 114.017C125.963 114.017 122.578 115.73 121.068 117.661C117.666 122.011 117.279 126.178 119.878 130.402C122.757 135.081 129.086 134.357 130.958 134.022C132.674 133.716 134.525 132.58 136.035 130.907C137.602 129.172 138.672 127.043 139.048 124.911C139.752 120.932 137.992 117.489 134.082 115.216C132.671 114.412 131.07 113.997 129.445 114.017Z" fill="black"/>
<path d="M136.221 125.401C136.166 125.402 136.111 125.392 136.059 125.372C135.943 125.329 135.848 125.241 135.795 125.129C135.744 125.016 135.739 124.887 135.781 124.77C136.784 122.052 135.664 119.786 134.119 118.744C134.018 118.675 133.949 118.567 133.926 118.446C133.903 118.325 133.929 118.2 133.998 118.097C134.066 117.995 134.173 117.925 134.292 117.899C134.413 117.875 134.539 117.898 134.642 117.965C136.497 119.211 137.842 121.9 136.661 125.095C136.628 125.185 136.567 125.262 136.489 125.318C136.41 125.372 136.317 125.401 136.221 125.401Z" fill="black"/>
<path d="M130.944 132.301C130.829 132.3 130.717 132.257 130.632 132.18C130.546 132.103 130.492 131.997 130.479 131.882C130.467 131.768 130.497 131.653 130.564 131.56C130.63 131.466 130.729 131.399 130.842 131.373C132.382 131.021 133.352 129.848 133.994 129.065L134.015 129.041C134.054 128.993 134.102 128.953 134.157 128.923C134.211 128.894 134.271 128.875 134.332 128.869C134.394 128.864 134.456 128.869 134.515 128.887C134.575 128.906 134.629 128.935 134.677 128.974C134.725 129.014 134.765 129.062 134.793 129.116C134.822 129.171 134.84 129.231 134.846 129.292C134.852 129.354 134.846 129.415 134.827 129.475C134.81 129.533 134.78 129.589 134.74 129.637L134.719 129.661C134.04 130.483 132.903 131.869 131.048 132.288C131.014 132.296 130.979 132.301 130.944 132.301Z" fill="black"/>
<path d="M113.024 144.545C112.947 144.546 112.872 144.526 112.804 144.491C112.736 144.454 112.677 144.402 112.635 144.338C112.591 144.274 112.564 144.201 112.557 144.124C112.549 144.047 112.56 143.97 112.589 143.898C114.02 140.379 117.261 136.507 120.469 134.471C120.52 134.438 120.579 134.416 120.64 134.406C120.7 134.395 120.762 134.397 120.823 134.41C120.883 134.424 120.939 134.449 120.989 134.484C121.04 134.521 121.083 134.565 121.116 134.617C121.149 134.67 121.171 134.727 121.182 134.788C121.192 134.849 121.191 134.911 121.177 134.971C121.164 135.031 121.138 135.088 121.103 135.139C121.068 135.189 121.022 135.232 120.971 135.264C117.913 137.203 114.824 140.896 113.462 144.253C113.427 144.339 113.366 144.414 113.288 144.466C113.21 144.519 113.118 144.546 113.024 144.545Z" fill="black"/>
<path d="M115.388 143.097C115.757 143.348 116.022 143.725 116.133 144.156C116.246 144.588 116.197 145.046 115.996 145.443C114.277 148.866 112.405 152.248 109.638 154.873C108.041 156.385 106.022 157.66 103.791 157.482C103.418 157.457 103.055 157.344 102.735 157.149C101.268 156.228 101.813 154.232 102.53 152.8C103.79 150.288 105.287 147.902 107.001 145.674C107.868 144.545 108.792 143.457 109.768 142.419C110.57 141.571 111.348 140.989 112.524 141.447C113.511 141.84 114.461 142.468 115.388 143.097Z" fill="#DFD4D9"/>
<path d="M108.996 156.99C108.901 156.99 108.808 156.96 108.731 156.906C108.652 156.852 108.592 156.776 108.558 156.688C107.883 154.928 106.029 153.414 103.836 152.823C103.774 152.809 103.716 152.783 103.665 152.746C103.613 152.71 103.57 152.663 103.537 152.609C103.504 152.554 103.483 152.494 103.474 152.431C103.464 152.368 103.469 152.305 103.485 152.244C103.502 152.183 103.53 152.125 103.569 152.075C103.608 152.026 103.657 151.984 103.713 151.954C103.768 151.923 103.829 151.905 103.892 151.898C103.955 151.892 104.019 151.898 104.079 151.918C106.591 152.593 108.643 154.292 109.434 156.351C109.461 156.422 109.471 156.499 109.462 156.574C109.454 156.65 109.425 156.722 109.383 156.785C109.34 156.848 109.282 156.899 109.214 156.936C109.147 156.971 109.072 156.99 108.996 156.99Z" fill="black"/>
<path d="M111.71 155.223C111.63 155.223 111.552 155.201 111.482 155.164C111.413 155.125 111.354 155.07 111.312 155.003C109.268 151.767 106.644 149.862 103.921 149.641C103.796 149.631 103.681 149.572 103.6 149.476C103.519 149.381 103.479 149.258 103.49 149.133C103.499 149.009 103.559 148.894 103.654 148.813C103.749 148.732 103.872 148.692 103.997 148.703C107.02 148.949 109.901 151.008 112.106 154.5C112.139 154.551 112.161 154.61 112.172 154.67C112.182 154.731 112.181 154.793 112.167 154.853C112.153 154.914 112.129 154.97 112.092 155.021C112.057 155.071 112.012 155.115 111.96 155.147C111.886 155.196 111.799 155.221 111.71 155.223Z" fill="black"/>
<path d="M134.256 46.9258C134.076 46.9253 133.9 46.8836 133.739 46.8041C133.579 46.7246 133.438 46.6093 133.329 46.4671C133.18 46.2789 133.092 46.0507 133.074 45.8117C133.056 45.5727 133.11 45.334 133.23 45.1261L135.283 41.5371C135.377 41.3769 135.443 41.2014 135.477 41.0186C135.667 39.8606 134.232 39.4488 132.337 39.0311C132.187 38.9983 132.04 38.9666 131.9 38.9337C129.858 38.4644 128.116 37.0624 126.993 34.9799C125.937 33.0253 125.57 30.6941 125.981 28.5846C126.969 23.4998 131.26 20.2698 133.724 18.7974C136.042 17.4166 138.564 16.4087 141.195 15.8104C145.19 14.9264 149.316 14.821 153.351 15.4994C157.022 16.1459 159.985 17.4494 162.157 19.3711C164.102 21.0923 165.318 23.2546 165.677 25.6257C166.337 30.0042 163.928 34.4074 159.683 36.5814C156.774 38.0726 153.544 38.8234 150.42 39.5497C146.389 40.4883 142.582 41.3729 139.367 43.7076C138.959 44.0033 138.56 44.3295 138.137 44.6756C137.034 45.5754 135.893 46.5058 134.59 46.8777C134.481 46.9092 134.368 46.9254 134.256 46.9258ZM134.2 19.6034C131.867 20.9949 127.814 24.0371 126.896 28.7641C126.186 32.414 128.15 37.1129 132.104 38.0186L132.533 38.1148C134.211 38.4844 136.745 39.044 136.397 41.1711C136.345 41.4644 136.242 41.746 136.092 42.0029L134.038 45.5919C134.011 45.6377 134 45.6905 134.004 45.7433C134.008 45.7961 134.029 45.8465 134.062 45.8875C134.09 45.9286 134.132 45.9594 134.179 45.9755C134.226 45.9916 134.278 45.9921 134.326 45.9767C135.444 45.6576 136.508 44.7894 137.537 43.9493C137.952 43.6103 138.381 43.2606 138.81 42.9497C142.178 40.5035 146.258 39.5544 150.202 38.6369C153.27 37.9236 156.443 37.1856 159.249 35.7472C163.135 33.7527 165.343 29.7461 164.743 25.7665C164.039 21.0665 159.714 17.5749 153.185 16.424C149.273 15.7664 145.272 15.8688 141.399 16.7255C138.864 17.3018 136.434 18.273 134.2 19.6034Z" fill="black"/>
<path d="M111.547 39.8107C111.405 39.8113 111.264 39.7797 111.137 39.7182C111.009 39.6567 110.896 39.5669 110.808 39.4556C110.719 39.3443 110.658 39.2145 110.626 39.0759C110.596 38.9371 110.597 38.7932 110.63 38.655C110.776 38.0262 110.982 37.4101 111.171 36.8153L111.219 36.6686C112.065 34.0675 111.134 33.5009 109.501 32.8849L108.828 32.6328C106.629 31.8115 104.354 30.9621 102.736 29.167C101.494 27.7873 100.792 25.9688 100.706 23.9086C100.635 21.9652 101.096 20.0393 102.04 18.3391C103.676 15.4166 106.575 13.0596 110.656 11.3326C113.342 10.2003 116.18 9.46717 119.079 9.15615C124.673 8.54606 130.028 9.30175 134.158 11.2857C140.116 14.1484 141.377 17.789 141.386 20.3396C141.404 25.0325 137.301 29.5084 133.239 31.4983C130.786 32.6997 128.009 33.1115 125.323 33.5092C121.804 34.0301 118.488 34.5216 115.913 36.6416C115.544 36.9455 115.176 37.2963 114.821 37.6365C113.931 38.4848 113.013 39.3613 111.858 39.759C111.758 39.7928 111.653 39.8103 111.547 39.8107ZM122.83 9.89306C121.611 9.894 120.393 9.96134 119.181 10.0947C116.373 10.3972 113.624 11.1087 111.022 12.2066C107.137 13.8491 104.392 16.07 102.859 18.806C101.298 21.5972 100.994 25.8396 103.434 28.5439C104.897 30.1689 106.967 30.941 109.156 31.7587L109.833 32.0133C111.657 32.7044 113.205 33.6031 112.11 36.9656L112.063 37.1122C111.876 37.6883 111.681 38.2855 111.544 38.8721C112.513 38.5447 113.319 37.7761 114.173 36.9619C114.541 36.61 114.921 36.2475 115.317 35.9225C118.093 33.6359 121.698 33.1067 125.185 32.5846C127.8 32.1974 130.504 31.7974 132.826 30.6594C136.626 28.7986 140.464 24.6594 140.452 20.3478C140.441 17.0756 138.125 14.2352 133.757 12.1351C130.682 10.6568 126.894 9.88836 122.83 9.88836V9.89306Z" fill="black"/>
<path d="M146.337 31.6237H146.308C146.184 31.6162 146.067 31.5597 145.985 31.4667C145.903 31.3736 145.861 31.2516 145.868 31.1275L146.527 20.2891C146.531 20.2275 146.547 20.1672 146.574 20.1117C146.601 20.0562 146.639 20.0066 146.685 19.9656C146.731 19.9248 146.785 19.8933 146.844 19.8733C146.902 19.8531 146.964 19.8448 147.026 19.8485C147.087 19.8524 147.147 19.8682 147.203 19.8952C147.258 19.9223 147.308 19.9601 147.349 20.0063C147.39 20.0526 147.421 20.1064 147.441 20.1648C147.461 20.2231 147.469 20.285 147.466 20.3466L146.808 31.1838C146.801 31.3033 146.748 31.4155 146.66 31.4973C146.572 31.579 146.457 31.6243 146.337 31.6237Z" fill="black"/>
<path d="M146.514 36.6417C146.112 36.6492 145.716 36.5399 145.375 36.3272C145.083 36.1301 144.456 35.5423 144.958 34.3327C144.965 34.3166 144.972 34.3009 144.981 34.2858C145.104 34.0741 145.268 33.8896 145.464 33.7434C145.661 33.5971 145.885 33.4922 146.122 33.4349C146.36 33.3777 146.608 33.3694 146.848 33.4103C147.09 33.4514 147.321 33.5408 147.526 33.6733C147.714 33.806 147.87 33.9787 147.983 34.179C148.095 34.3793 148.162 34.6021 148.179 34.8313C148.205 35.0887 148.174 35.3486 148.09 35.5929C148.004 35.8372 147.867 36.0597 147.686 36.2451C147.42 36.5079 146.975 36.6417 146.514 36.6417ZM145.81 34.7211C145.568 35.3253 145.81 35.4907 145.892 35.5423C146.251 35.7864 146.898 35.6972 147.023 35.5763C147.105 35.4882 147.166 35.3837 147.204 35.2698C147.241 35.1559 147.254 35.0351 147.241 34.9158C147.237 34.8244 147.213 34.7351 147.171 34.6541C147.129 34.573 147.069 34.5021 146.996 34.4465C146.899 34.3856 146.79 34.3452 146.676 34.3276C146.563 34.3101 146.447 34.3157 146.336 34.3444C146.228 34.3692 146.126 34.4158 146.035 34.481C145.946 34.5464 145.87 34.6292 145.814 34.7246L145.81 34.7211Z" fill="black"/>
<path d="M116.62 25.7071C116.506 25.708 116.395 25.6668 116.308 25.5914C116.222 25.5159 116.166 25.4114 116.151 25.2975C115.814 22.6495 116.589 21.1911 118.66 20.5505C118.953 20.4602 119.269 20.3781 119.574 20.2971C120.239 20.1223 120.926 19.9453 121.475 19.6731C121.704 19.5532 121.906 19.387 122.068 19.1851C122.23 18.9831 122.347 18.7497 122.414 18.4998C122.514 18.1641 122.545 17.8119 122.507 17.4639C122.468 17.1159 122.36 16.7792 122.189 16.4735C121.586 15.4528 120.312 14.7678 118.793 14.6422C118.064 14.5824 117.015 14.6257 116.166 15.1806C115.417 15.671 114.98 16.5392 115.105 17.2925C115.125 17.4154 115.095 17.5413 115.023 17.6426C114.95 17.7438 114.841 17.812 114.718 17.8323C114.594 17.8525 114.469 17.823 114.368 17.7504C114.266 17.6778 114.198 17.5679 114.178 17.4451C113.994 16.3176 114.586 15.0916 115.653 14.3947C116.501 13.8397 117.613 13.6004 118.871 13.706C120.698 13.8562 122.239 14.7125 122.997 15.9949C123.235 16.4116 123.385 16.8722 123.439 17.3487C123.493 17.8252 123.451 18.3079 123.313 18.7673C123.211 19.1417 123.032 19.4909 122.787 19.7923C122.543 20.0937 122.238 20.3408 121.893 20.5178C121.259 20.8276 120.526 21.0211 119.818 21.2077C119.508 21.2886 119.215 21.366 118.94 21.4504C117.595 21.8622 116.766 22.6543 117.086 25.1814C117.102 25.3048 117.068 25.4292 116.992 25.5275C116.916 25.6259 116.804 25.69 116.68 25.7058C116.66 25.7074 116.64 25.7078 116.62 25.7071Z" fill="black"/>
<path d="M116.679 30.391C116.273 30.394 115.877 30.2709 115.544 30.039C115.026 29.6589 114.84 29.0429 115.038 28.3484L115.053 28.3061C115.226 27.8591 115.677 27.5001 116.226 27.3675C116.517 27.2959 116.822 27.2968 117.112 27.3702C117.403 27.4437 117.671 27.5874 117.893 27.7887C118.034 27.9173 118.142 28.0771 118.21 28.2552C118.277 28.4333 118.301 28.6248 118.281 28.8141C118.255 29.0862 118.171 29.3494 118.033 29.5853C117.895 29.8211 117.706 30.024 117.482 30.1798C117.241 30.3255 116.961 30.3987 116.679 30.391ZM115.935 28.6311C115.829 29.03 115.977 29.1943 116.099 29.2834C116.383 29.4923 116.838 29.4805 116.967 29.4008C117.072 29.325 117.16 29.2278 117.225 29.1159C117.29 29.0038 117.331 28.8796 117.345 28.7508C117.353 28.7054 117.351 28.6586 117.338 28.6143C117.324 28.5701 117.3 28.5296 117.269 28.4962C117.16 28.3956 117.028 28.3237 116.885 28.2871C116.741 28.2504 116.591 28.2502 116.448 28.2862C116.342 28.3046 116.241 28.3448 116.153 28.4042C116.064 28.4636 115.988 28.5409 115.93 28.6311H115.935Z" fill="black"/>
<path d="M84.6499 113.763C85.2647 114.763 86.0578 115.874 87.2252 115.962C88.3925 116.05 89.3217 115.085 90.0128 114.157C91.0605 112.749 91.9099 110.644 90.6862 109.388C90.1465 108.835 89.3511 108.64 88.6272 108.37C84.2967 106.762 82.0007 102.179 78.9233 98.7346C78.102 97.8136 72.3778 93.0796 77.018 100.991C77.6891 102.135 78.3778 103.24 79.0794 104.36C80.1095 106.003 80.9624 107.763 81.9796 109.415L84.6499 113.763Z" fill="white"/>
<path d="M52.9987 109.999C52.8835 109.999 52.7719 109.958 52.6853 109.881C52.5987 109.805 52.5432 109.7 52.5294 109.586C51.301 99.5956 49.7218 89.5152 47.8364 79.6267C47.8131 79.5045 47.8394 79.3779 47.9093 79.2749C47.9792 79.172 48.0873 79.101 48.2095 79.0777C48.3319 79.0543 48.4584 79.0805 48.5614 79.1505C48.6643 79.2205 48.7353 79.3285 48.7586 79.4508C50.6463 89.3603 52.2291 99.4595 53.4598 109.472C53.468 109.538 53.4619 109.606 53.4421 109.669C53.4221 109.732 53.3889 109.791 53.3444 109.842C53.3001 109.891 53.2454 109.931 53.1844 109.958C53.1234 109.985 53.0572 109.999 52.9905 109.999H52.9987Z" fill="white"/>
<path d="M54.2131 120.428C54.1053 120.427 54.0009 120.39 53.9173 120.322C53.8338 120.253 53.7762 120.159 53.7544 120.054C53.3414 118.065 53.2605 116.997 53.2077 115.992C53.2045 115.93 53.2134 115.869 53.2339 115.81C53.2546 115.751 53.2864 115.698 53.3277 115.653C53.369 115.607 53.419 115.569 53.4747 115.542C53.5303 115.515 53.5907 115.5 53.6523 115.498C53.714 115.494 53.7756 115.503 53.8338 115.524C53.892 115.545 53.9455 115.576 53.9914 115.618C54.0373 115.659 54.0746 115.709 54.1011 115.764C54.1277 115.821 54.1431 115.88 54.1462 115.943C54.1967 116.91 54.2753 117.937 54.6742 119.862C54.6995 119.983 54.6755 120.111 54.6072 120.214C54.539 120.319 54.4323 120.391 54.3105 120.417C54.2786 120.424 54.2459 120.428 54.2131 120.428Z" fill="white"/>
<path d="M58.3428 134.657C57.6024 134.657 57.0299 134.43 56.6697 133.86C56.252 133.196 55.0483 127.559 55.1246 125.772C55.1273 125.711 55.1419 125.65 55.168 125.595C55.1939 125.538 55.2307 125.488 55.2761 125.447C55.3215 125.405 55.3748 125.372 55.4328 125.351C55.4906 125.33 55.5522 125.32 55.6138 125.323C55.6755 125.326 55.7359 125.34 55.7919 125.366C55.8479 125.393 55.8981 125.429 55.9398 125.475C55.9816 125.52 56.0139 125.574 56.0351 125.631C56.0562 125.689 56.0658 125.751 56.0631 125.812C55.9928 127.43 57.166 132.83 57.471 133.363C58.0154 134.226 60.3595 133.363 62.8421 132.455C64.8096 131.732 67.0412 130.913 69.2105 130.592C69.2723 130.581 69.3359 130.582 69.3971 130.596C69.4585 130.61 69.5164 130.636 69.5675 130.673C69.6185 130.709 69.6617 130.756 69.6944 130.81C69.7272 130.864 69.7488 130.924 69.7579 130.986C69.7672 131.048 69.7638 131.111 69.7479 131.171C69.7322 131.232 69.7044 131.29 69.666 131.34C69.6278 131.389 69.5799 131.432 69.5252 131.462C69.4706 131.493 69.4103 131.513 69.3477 131.52C67.2734 131.827 65.0912 132.628 63.1659 133.336C61.2407 134.043 59.5617 134.657 58.3428 134.657Z" fill="white"/>
<path d="M61.0469 60.9199C60.9224 60.9289 60.7996 60.8879 60.7052 60.8061C60.611 60.7245 60.5531 60.6086 60.5441 60.4841C60.5353 60.3596 60.5763 60.2368 60.6579 60.1424C60.7397 60.0482 60.8555 59.9903 60.98 59.9813C65.3937 59.3408 69.8837 58.5735 74.227 57.8249C78.5704 57.0764 83.0721 56.3079 87.4976 55.665C87.6207 55.6472 87.7463 55.679 87.846 55.7533C87.9457 55.8278 88.0114 55.939 88.0302 56.0621C88.0478 56.1853 88.0161 56.3106 87.941 56.4105C87.8671 56.5102 87.7557 56.5764 87.6325 56.5942C83.2188 57.2348 78.7276 58.0021 74.3854 58.7506C70.0433 59.4991 65.5404 60.2676 61.1149 60.9106C61.0915 60.9176 61.068 60.9199 61.0469 60.9199Z" fill="white"/>
<path d="M94.6872 55.1834C94.571 55.1833 94.4584 55.1399 94.3727 55.0619C94.2871 54.9837 94.2319 54.8764 94.2214 54.7607C94.2097 54.645 94.2413 54.5291 94.3106 54.4356C94.3798 54.342 94.4807 54.2773 94.5945 54.2542C96.4071 53.887 99.237 53.433 101.246 53.3403C101.37 53.335 101.492 53.3793 101.583 53.4636C101.675 53.5479 101.73 53.6651 101.735 53.7896C101.741 53.9141 101.696 54.0357 101.612 54.1274C101.527 54.2191 101.41 54.2736 101.285 54.2789C99.3309 54.3633 96.5608 54.8139 94.781 55.174C94.7505 55.18 94.7189 55.1832 94.6872 55.1834Z" fill="white"/>
<path d="M86.5816 96.352C85.1338 96.352 83.8691 95.0028 82.8894 93.9586C82.6049 93.6418 82.3041 93.3403 81.9884 93.054C81.6857 92.7959 80.8984 92.0872 79.8096 91.1064C76.2242 87.8777 68.7624 81.1602 66.7327 79.9412C66.6297 79.8756 66.5563 79.7722 66.5282 79.6533C66.5001 79.5343 66.5195 79.4091 66.5823 79.3042C66.6452 79.1995 66.7464 79.1232 66.8646 79.0919C66.9827 79.0605 67.1084 79.0765 67.2149 79.1364C69.3268 80.4024 76.5539 86.9121 80.4373 90.4095C81.5214 91.3845 82.304 92.0896 82.5973 92.3395C82.9402 92.6481 83.2665 92.9742 83.5746 93.3168C84.9613 94.7963 86.1193 95.8745 87.3372 95.2034C87.3911 95.1717 87.451 95.1494 87.5143 95.1412C87.5765 95.1318 87.6398 95.1365 87.7009 95.1517C87.7619 95.1682 87.8194 95.1975 87.8686 95.2362C87.9191 95.2749 87.9601 95.323 87.9906 95.3794C88.0211 95.4345 88.0399 95.4955 88.047 95.5577C88.0528 95.621 88.047 95.6844 88.0282 95.7454C88.0094 95.8053 87.9789 95.8616 87.9379 95.9097C87.8968 95.9578 87.8463 95.9965 87.79 96.0246C87.4216 96.237 87.0063 96.3496 86.5816 96.352Z" fill="black"/>
<path d="M57.1115 80.5145C57.0427 80.5145 56.9749 80.4994 56.9126 80.4702C56.8505 80.4409 56.7953 80.3985 56.7513 80.3457C56.1084 79.5737 55.7541 78.8356 55.6672 78.0906C55.5499 77.0922 55.9899 76.1207 56.7572 75.6702C57.413 75.2854 58.1451 75.2889 58.6437 75.3581C60.1209 75.567 62.2139 76.2874 63.3062 76.8353C63.4174 76.8912 63.502 76.9889 63.5411 77.1071C63.5803 77.2252 63.5709 77.354 63.515 77.4653C63.4592 77.5765 63.3615 77.6611 63.2433 77.7003C63.1252 77.7394 62.9962 77.7301 62.885 77.6742C61.8584 77.1603 59.8956 76.4833 58.5123 76.2885C58.0172 76.2181 57.562 76.2885 57.2323 76.4797C56.7877 76.7402 56.5284 77.3585 56.6 77.9827C56.6645 78.5411 56.9519 79.1172 57.4729 79.7425C57.5523 79.8382 57.5905 79.9617 57.579 80.0855C57.5677 80.2093 57.5075 80.3235 57.4118 80.403C57.3282 80.4748 57.2218 80.5144 57.1115 80.5145Z" fill="black"/>
<path d="M59.9759 84.9242C59.9066 84.9242 59.8382 84.9089 59.7754 84.8784C59.7128 84.8491 59.6574 84.8057 59.6134 84.7529C59.0322 84.0477 58.5047 83.3009 58.0354 82.5174C57.9714 82.4105 57.9525 82.2826 57.9829 82.1618C58.0133 82.041 58.0904 81.9372 58.1973 81.8733C58.3042 81.8093 58.432 81.7904 58.5529 81.8208C58.6736 81.8512 58.7774 81.9283 58.8414 82.0352C59.2866 82.7781 59.7867 83.4867 60.3373 84.1557C60.3941 84.2237 60.4301 84.307 60.4413 84.395C60.4525 84.4842 60.4383 84.5734 60.4004 84.6543C60.3625 84.7353 60.3024 84.8033 60.2273 84.8502C60.1521 84.8983 60.065 84.9242 59.9759 84.9242Z" fill="black"/>
<path d="M68.9841 97.6423C68.9014 97.6423 68.8201 97.6212 68.7484 97.579C68.6768 97.5379 68.6172 97.4792 68.5759 97.4077C66.541 93.8492 64.2214 90.4609 61.6397 87.2779C61.5655 87.1805 61.532 87.0585 61.5462 86.9377C61.5604 86.8157 61.6212 86.7054 61.7159 86.6279C61.8105 86.5517 61.9315 86.5141 62.053 86.5247C62.1745 86.5353 62.2872 86.5927 62.3671 86.6854C64.9815 89.9083 67.3306 93.3389 69.3913 96.9419C69.4219 96.9947 69.4417 97.0533 69.4495 97.1155C69.4572 97.1765 69.4529 97.2387 69.4367 97.2974C69.4204 97.3572 69.3926 97.4135 69.3548 97.4616C69.317 97.5109 69.2701 97.5508 69.2164 97.5825C69.1455 97.6212 69.0655 97.6423 68.9841 97.6423Z" fill="black"/>
<path d="M87.9781 120.324C87.0313 120.324 86.0927 120.024 85.4063 119.304C85.3639 119.258 85.3307 119.206 85.3086 119.149C85.2864 119.091 85.2759 119.029 85.2775 118.968C85.279 118.906 85.2928 118.846 85.3177 118.79C85.3429 118.733 85.3786 118.682 85.4239 118.64C85.4685 118.597 85.5201 118.564 85.5776 118.542C85.6363 118.52 85.6973 118.509 85.7583 118.51C85.8205 118.513 85.8815 118.526 85.9378 118.552C85.9941 118.576 86.0446 118.611 86.0868 118.657C87.0676 119.687 88.804 119.526 89.9386 118.852C91.2643 118.063 92.1877 116.693 92.9162 115.458C95.7954 110.573 98.3296 105.778 100.777 101.144C103.745 95.5302 106.548 90.233 109.874 84.8526C110.657 83.5896 111.282 82.6417 111.889 81.7805C111.924 81.7302 111.97 81.6874 112.021 81.6545C112.074 81.6218 112.133 81.5995 112.193 81.5892C112.254 81.5789 112.316 81.5805 112.376 81.5942C112.437 81.608 112.493 81.6333 112.543 81.669C112.594 81.7048 112.636 81.7499 112.669 81.8021C112.702 81.8543 112.724 81.9125 112.735 81.9733C112.745 82.0341 112.743 82.0963 112.73 82.1564C112.716 82.2165 112.69 82.2734 112.655 82.3238C112.055 83.1685 111.444 84.1017 110.673 85.3477C107.362 90.6953 104.567 95.9843 101.608 101.583C99.1508 106.23 96.6108 111.035 93.7223 115.938C92.9327 117.276 91.9225 118.765 90.4149 119.663C89.6746 120.092 88.8345 120.321 87.9781 120.324Z" fill="black"/>
<path d="M114.001 79.6828C113.927 79.6828 113.853 79.6652 113.787 79.6314C113.72 79.5976 113.664 79.5486 113.62 79.4883C113.576 79.4279 113.548 79.3583 113.536 79.2848C113.526 79.2112 113.532 79.1362 113.555 79.0657C113.773 78.4122 114.114 77.8064 114.559 77.2812C114.599 77.2342 114.649 77.1956 114.704 77.1676C114.758 77.1395 114.817 77.1225 114.88 77.1177C114.941 77.1128 115.003 77.12 115.062 77.139C115.12 77.158 115.174 77.1884 115.221 77.2282C115.268 77.2682 115.307 77.3172 115.335 77.372C115.363 77.4269 115.379 77.4868 115.384 77.5482C115.39 77.6097 115.382 77.6715 115.363 77.7302C115.344 77.7888 115.314 77.8431 115.274 77.8901C114.909 78.3229 114.63 78.822 114.453 79.3601C114.421 79.4549 114.361 79.5373 114.28 79.5954C114.198 79.6533 114.101 79.6839 114.001 79.6828Z" fill="black"/>
<path d="M122.587 65.2112C122.499 65.2112 122.412 65.1865 122.338 65.1397C122.263 65.0928 122.203 65.026 122.164 64.9465C122.126 64.8672 122.11 64.7786 122.12 64.691C122.129 64.6034 122.163 64.5202 122.218 64.451C123.832 62.4048 128.298 55.7936 127.635 53.7369C127.503 53.3251 127.294 53.2324 127.148 53.1984C126.246 52.9849 124.471 54.3024 123.949 54.841C123.861 54.927 123.744 54.9753 123.622 54.9755C123.498 54.9759 123.38 54.9281 123.293 54.8425C123.205 54.757 123.154 54.6402 123.151 54.5176C123.148 54.395 123.193 54.276 123.277 54.1863C123.727 53.724 125.868 51.9372 127.363 52.288C127.754 52.3795 128.272 52.6564 128.529 53.4518C129.517 56.5199 123.021 64.9496 122.955 65.0364C122.911 65.0913 122.854 65.1357 122.791 65.1659C122.728 65.1962 122.657 65.2117 122.587 65.2112Z" fill="black"/>
<path d="M111.673 67.2737C111.58 67.2739 111.49 67.2466 111.413 67.1957C111.336 67.1447 111.276 67.0722 111.24 66.9872C111.204 66.9022 111.194 66.8084 111.211 66.7177C111.228 66.6269 111.271 66.5433 111.336 66.4771C111.735 66.0676 112.463 65.291 113.307 64.3923C116.566 60.9218 119.56 57.7611 120.391 57.2109C120.443 57.1768 120.5 57.1533 120.56 57.1415C120.621 57.1297 120.683 57.1299 120.744 57.1422C120.804 57.1544 120.861 57.1784 120.913 57.2129C120.963 57.2474 121.007 57.2915 121.042 57.3428C121.076 57.3942 121.1 57.4518 121.111 57.5124C121.123 57.5728 121.123 57.6351 121.11 57.6955C121.098 57.756 121.074 57.8133 121.04 57.8645C121.005 57.9155 120.961 57.9594 120.909 57.9934C120.101 58.5284 116.276 62.6019 113.987 65.0329C113.141 65.9351 112.409 66.7129 112.006 67.1294C111.962 67.1745 111.911 67.2104 111.853 67.2351C111.797 67.2599 111.735 67.273 111.673 67.2737Z" fill="black"/>
</svg>
