<svg width="45" height="45" viewBox="0 0 45 45" fill="none" xmlns="http://www.w3.org/2000/svg">
<path fill-rule="evenodd" clip-rule="evenodd" d="M17.6403 6.89068C16.8316 8.92892 16.1734 11.4048 15.7286 14.1843C17.8805 13.9872 20.154 13.8823 22.5 13.8823C24.846 13.8823 27.1195 13.9872 29.2714 14.1843C28.8266 11.4048 28.1684 8.92892 27.3597 6.89068C26.5825 4.9316 25.6997 3.46186 24.8069 2.51008C23.9175 1.56194 23.1373 1.24349 22.5 1.24349C21.8627 1.24349 21.0826 1.56194 20.1932 2.51008C19.3003 3.46186 18.4176 4.9316 17.6403 6.89068ZM14.4658 5.61051C13.4567 8.15374 12.6825 11.2174 12.2079 14.6042C9.87197 14.9515 7.74023 15.4149 5.89132 15.9741C3.74002 16.6248 1.87453 17.4338 0.508702 18.4105C0.336147 18.5339 0.165828 18.6643 0.000103149 18.8018C1.50771 9.40692 8.66505 1.92059 17.8445 2.84491e-06C17.799 0.0467134 17.7538 0.0939391 17.709 0.141657C16.4203 1.51554 15.3384 3.41109 14.4658 5.61051ZM27.1555 0C27.2011 0.0467115 27.2462 0.0939381 27.291 0.141657C28.5797 1.51554 29.6616 3.41109 30.5342 5.61051C31.5433 8.15374 32.3175 11.2174 32.7921 14.6042C35.128 14.9515 37.2598 15.4149 39.1087 15.9741C41.26 16.6248 43.1255 17.4338 44.4913 18.4105C44.6639 18.5339 44.8342 18.6643 44.9999 18.8018C43.4923 9.40693 36.335 1.92058 27.1555 0ZM45 26.1975C44.8343 26.335 44.6639 26.4654 44.4913 26.5888C43.1255 27.5655 41.26 28.3745 39.1087 29.0252C37.2598 29.5844 35.128 30.0478 32.7921 30.3951C32.3175 33.782 31.5433 36.8456 30.5342 39.3888C29.6616 41.5882 28.5797 43.4838 27.291 44.8576C27.246 44.9056 27.2006 44.9531 27.1548 45C36.3348 43.0796 43.4926 35.5928 45 26.1975ZM17.8452 45C17.7994 44.9531 17.754 44.9056 17.709 44.8576C16.4203 43.4838 15.3384 41.5882 14.4658 39.3888C13.4567 36.8456 12.6825 33.782 12.2079 30.3951C9.87197 30.0478 7.74023 29.5844 5.89132 29.0252C3.74002 28.3745 1.87453 27.5655 0.508701 26.5888C0.336111 26.4654 0.165757 26.335 0 26.1975C1.50742 35.5928 8.66519 43.0796 17.8452 45ZM6.87377 25.7236C8.32386 26.1622 9.99229 26.5423 11.8312 26.8474C11.7271 25.434 11.6731 23.9807 11.6731 22.4997C11.6731 21.0186 11.7271 19.5653 11.8312 18.1519C9.99229 18.457 8.32386 18.8371 6.87377 19.2757C4.90026 19.8726 3.42772 20.5491 2.48671 21.222C1.50131 21.9266 1.41599 22.3834 1.41599 22.4997C1.41599 22.6159 1.50131 23.0727 2.48671 23.7773C3.42772 24.4502 4.90026 25.1267 6.87377 25.7236ZM15.0921 22.4997C15.0921 24.157 15.1638 25.7665 15.2986 27.3101C17.5461 27.5425 19.9684 27.6701 22.5 27.6701C25.0316 27.6701 27.4539 27.5425 29.7014 27.3101C29.8362 25.7665 29.9079 24.157 29.9079 22.4997C29.9079 20.8423 29.8362 19.2328 29.7014 17.6892C27.4539 17.4568 25.0316 17.3292 22.5 17.3292C19.9684 17.3292 17.5461 17.4568 15.2986 17.6892C15.1638 19.2328 15.0921 20.8423 15.0921 22.4997ZM17.6403 38.1086C16.8316 36.0704 16.1734 33.5945 15.7286 30.815C17.8805 31.0121 20.154 31.117 22.5 31.117C24.846 31.117 27.1195 31.0121 29.2714 30.815C28.8266 33.5945 28.1684 36.0704 27.3597 38.1086C26.5825 40.0677 25.6997 41.5374 24.8069 42.4892C23.9175 43.4374 23.1373 43.7558 22.5 43.7558C21.8627 43.7558 21.0826 43.4374 20.1932 42.4892C19.3003 41.5374 18.4176 40.0677 17.6403 38.1086ZM38.1262 25.7236C36.6761 26.1622 35.0077 26.5423 33.1688 26.8474C33.2729 25.434 33.3269 23.9807 33.3269 22.4997C33.3269 21.0186 33.2729 19.5653 33.1688 18.1519C35.0077 18.457 36.6761 18.8371 38.1262 19.2757C40.0998 19.8726 41.5723 20.5491 42.5133 21.222C43.4987 21.9266 43.584 22.3834 43.584 22.4997C43.584 22.6159 43.4987 23.0727 42.5133 23.7773C41.5723 24.4502 40.0998 25.1267 38.1262 25.7236Z" fill="#104042"/>
</svg>
