<svg width="55" height="61" viewBox="0 0 55 61" fill="none" xmlns="http://www.w3.org/2000/svg">
<path d="M0 12.1111C0 5.42233 5.42233 0 12.1111 0H33.3056L54.5 21.1944V48.4444C54.5 55.1332 49.0777 60.5556 42.3889 60.5556H12.1111C5.42233 60.5556 0 55.1332 0 48.4444V12.1111Z" fill="#AEFF1C"/>
<path d="M54.4991 21.1944L33.3047 0V9.08333C33.3047 15.7721 38.727 21.1944 45.4158 21.1944H54.4991Z" fill="#AEFF1C"/>
<path fill-rule="evenodd" clip-rule="evenodd" d="M12.8672 27.2498C12.8672 25.9957 13.8839 24.979 15.138 24.979L27.2491 24.979C28.5033 24.979 29.52 25.9957 29.52 27.2498C29.52 28.504 28.5033 29.5207 27.2491 29.5207L15.138 29.5207C13.8839 29.5207 12.8672 28.504 12.8672 27.2498Z" fill="#175557"/>
<path fill-rule="evenodd" clip-rule="evenodd" d="M12.8672 42.389C12.8672 41.1349 13.8839 40.1182 15.138 40.1182H39.3602C40.6144 40.1182 41.6311 41.1349 41.6311 42.389C41.6311 43.6431 40.6144 44.6598 39.3602 44.6598H15.138C13.8839 44.6598 12.8672 43.6431 12.8672 42.389Z" fill="#175557"/>
</svg>
