<svg width="52" height="36" viewBox="0 0 52 36" fill="none" xmlns="http://www.w3.org/2000/svg">
<path d="M33 34.333L49 34.333C50.1046 34.333 51 33.4376 51 32.333L51 16.333C51 15.2284 50.1046 14.333 49 14.333L41 14.333L46.2195 3.8941C46.8844 2.5643 45.9174 0.999676 44.4306 0.999676L38.9027 0.999677C38.1452 0.999677 37.4527 1.42768 37.1139 2.10525L31.2111 13.9107C31.0723 14.1884 31 14.4947 31 14.8051L31 32.333C31 33.4376 31.8954 34.333 33 34.333Z" stroke="#104042" stroke-width="2" stroke-linecap="round" stroke-linejoin="round"/>
<path d="M3 34.333L19 34.333C20.1046 34.333 21 33.4376 21 32.333L21 16.333C21 15.2284 20.1046 14.333 19 14.333L11 14.333L16.2194 3.89411C16.8843 2.5643 15.9174 0.999679 14.4306 0.999679L8.90273 0.999679C8.14519 0.999679 7.45266 1.42768 7.11388 2.10525L1.21114 13.9107C1.07229 14.1884 0.999998 14.4947 0.999998 14.8051L1 32.333C1 33.4376 1.89543 34.333 3 34.333Z" stroke="#104042" stroke-width="2" stroke-linecap="round" stroke-linejoin="round"/>
</svg>
