<svg width="30" height="29" viewBox="0 0 30 29" fill="none" xmlns="http://www.w3.org/2000/svg">
<path fill-rule="evenodd" clip-rule="evenodd" d="M24.7675 0C24.1895 0 23.721 0.468536 23.721 1.0465C23.721 1.62447 24.1895 2.09301 24.7675 2.09301H26.3198C21.095 6.25972 17.1193 8.89838 13.3391 10.6516C9.43577 12.4621 5.69126 13.3514 0.914036 13.9618C0.340729 14.0351 -0.0646421 14.5592 0.00861512 15.1325C0.0818723 15.7059 0.606016 16.1112 1.17932 16.038C6.08872 15.4106 10.0594 14.48 14.2198 12.5504C18.2877 10.6636 22.4889 7.84407 27.907 3.50385V5.23252C27.907 5.81049 28.3755 6.27903 28.9535 6.27903C29.5314 6.27903 30 5.81049 30 5.23252V2.44184C30 1.09325 28.9067 0 27.5581 0H24.7675ZM28.9532 12.2091C28.9532 10.6679 27.7038 9.41846 26.1625 9.41846C24.6213 9.41846 23.3718 10.6679 23.3718 12.2091V26.1625C23.3718 27.7038 24.6213 28.9532 26.1625 28.9532C27.7038 28.9532 28.9532 27.7038 28.9532 26.1625V12.2091ZM6.62897 23.3717C6.62897 21.8305 5.37954 20.5811 3.83829 20.5811C2.29704 20.5811 1.04761 21.8305 1.04761 23.3717L1.04761 26.1624C1.04761 27.7037 2.29704 28.9531 3.83829 28.9531C5.37954 28.9531 6.62897 27.7037 6.62897 26.1624L6.62897 23.3717ZM14.9984 15C16.5397 15 17.7891 16.2494 17.7891 17.7907V26.1627C17.7891 27.704 16.5397 28.9534 14.9984 28.9534C13.4572 28.9534 12.2078 27.704 12.2078 26.1627L12.2078 17.7907C12.2078 16.2494 13.4572 15 14.9984 15Z" fill="#AEFF1C"/>
</svg>
