<svg width="170" height="170" viewBox="0 0 170 170" fill="none" xmlns="http://www.w3.org/2000/svg">
<path d="M53.0337 50.5399C53.6441 49.6291 54.5977 47.5901 55.6562 47.2959C55.832 49.5985 57.0969 53.8485 56.9992 54.205C56.8771 54.6287 55.379 57.145 55.1813 57.5393C52.2608 63.357 51.6077 68.1698 51.2743 73.8275C51.2475 74.289 51.2048 74.7871 50.8995 75.1338C50.2573 75.8664 48.7837 75.6442 47.9229 75.6576C47.2112 75.6686 46.3199 75.7272 45.6948 75.317C44.9952 74.8567 45.0843 74.0338 45.1356 73.2988C45.2169 72.1862 45.339 71.0776 45.5019 69.9731C46.1629 65.5199 47.455 61.1836 49.3392 57.0949C50.4099 54.7984 51.6968 52.6838 53.0337 50.5399Z" fill="#AEFF1C"/>
<path d="M117.019 64.8684C117.583 67.4822 117.836 70.1534 117.771 72.8263C117.764 73.2048 117.771 73.626 118.03 73.8995C118.289 74.173 118.718 74.1937 119.098 74.184C120.962 74.1371 122.81 73.8233 124.585 73.2524C123.903 61.1434 117.119 49.5326 106.902 42.9946L106.974 46.003C106.991 46.7074 106.863 47.5621 107.01 48.2543C107.144 48.8892 107.83 49.2884 108.278 49.7023C108.879 50.2575 109.455 50.8374 110.006 51.4421C112.217 53.8638 114.01 56.6349 115.316 59.6429C116.048 61.3266 116.62 63.0764 117.019 64.8684Z" fill="#AEFF1C"/>
<path d="M65.6135 70.7729C55.5263 71.0171 45.2243 70.6508 35.595 73.6787C32.5427 74.6383 29.477 76.0131 27.4149 78.461C24.1294 82.352 24.0855 87.9926 24.7692 93.0362C25.8839 101.285 28.482 109.344 28.7335 117.664C28.9081 123.442 27.9435 129.192 26.78 134.854C26.0231 138.53 25.2002 142.463 26.6213 145.938C28.1023 149.559 31.7394 151.861 35.4399 153.133C39.8352 154.643 44.5198 155.032 49.1568 155.238C58.5835 155.657 68.0248 155.37 77.4563 155.082C91.9738 154.641 106.501 154.198 120.968 152.892C124.925 152.536 129.092 152.038 132.276 149.657C134.474 148.015 135.992 145.628 137.235 143.174C144.651 128.571 143.706 111.198 141.12 95.0251C140.437 90.7433 139.619 86.3908 137.516 82.5986C135.441 78.8456 132.077 75.8568 128.185 74.0779C124.538 72.4102 120.311 71.8522 116.389 71.1477C111.083 70.1893 105.693 69.7632 100.306 69.6411C94.8527 69.519 89.3989 69.7034 83.9527 69.9586C78.5063 70.2137 73.0659 70.5446 67.6182 70.7204C66.9492 70.7424 66.2808 70.7599 65.6135 70.7729Z" fill="#AEFF1C"/>
<path d="M61.6552 27.2593C59.8702 29.3641 57.675 31.0649 55.6251 32.9048C52.1822 36.0022 49.0615 39.6198 47.4365 43.9613C45.8114 48.3029 46.4927 53.8507 49.064 57.7075C51.3495 52.8239 52.8488 51.0182 55.3284 48.1954C55.3504 51.9632 56.1013 56.1411 57.0047 59.7941C57.6836 62.5435 59.0571 65.6544 61.8347 66.2124C63.5525 66.5579 65.3399 65.7472 66.5962 64.5275C67.8525 63.3078 68.6791 61.7194 69.4775 60.1603C70.3615 61.8513 71.2686 63.5789 72.6348 64.906C74.001 66.2331 75.9313 67.1391 77.8103 66.8033C80.2704 66.3638 81.9259 63.9952 82.7427 61.6328C83.319 64.6753 86.6493 66.7117 89.7321 66.3833C92.8149 66.0549 95.4447 63.7693 96.8133 60.9893C97.9683 63.635 101.907 63.972 104.261 62.2957C106.615 60.6194 107.692 57.7002 108.439 54.9129C111.331 44.1164 110.232 32.7326 107.852 21.803C107.683 21.0326 105.947 20.7335 103.407 20.46C96.5704 19.7275 93.1335 19.8154 86.2561 19.7067C82.8184 19.653 79.3799 19.6823 75.941 19.7946C74.2227 19.8508 72.5054 19.9277 70.7888 20.0254C69.2492 20.1121 67.5754 20.0571 66.0651 20.3819C64.7844 20.6578 64.6647 21.7615 64.285 22.8408C63.7161 24.4695 62.7674 25.9456 61.6552 27.2593Z" fill="black"/>
<path d="M68.5704 49.6856C67.9252 49.6884 67.2905 49.5226 66.7292 49.2046C66.6735 49.1725 66.6248 49.1299 66.5856 49.079C66.5466 49.028 66.5178 48.9698 66.5012 48.9079C66.4844 48.8459 66.4802 48.7812 66.4886 48.7174C66.4969 48.6538 66.5176 48.5924 66.5497 48.5368C66.5817 48.4811 66.6245 48.4324 66.6754 48.3932C66.7263 48.3541 66.7844 48.3254 66.8464 48.3087C66.9084 48.2921 66.9732 48.2878 67.0369 48.2961C67.1005 48.3044 67.1619 48.3252 67.2176 48.3573C67.6296 48.5885 68.094 48.7105 68.5664 48.7116C69.0389 48.7127 69.5039 48.5928 69.917 48.3634C69.9727 48.3313 70.0342 48.3105 70.098 48.3022C70.1617 48.2939 70.2264 48.2983 70.2885 48.315C70.3506 48.3318 70.4088 48.3605 70.4597 48.3996C70.5106 48.439 70.5534 48.4878 70.5855 48.5435C70.6174 48.5991 70.6383 48.6607 70.6466 48.7244C70.6549 48.7881 70.6505 48.853 70.6338 48.915C70.6171 48.977 70.5883 49.0353 70.5491 49.0862C70.5099 49.1371 70.461 49.1798 70.4054 49.2119C69.8451 49.5264 69.2128 49.6897 68.5704 49.6856Z" fill="white"/>
<path d="M82.1934 49.2138C81.6245 49.2148 81.0657 49.0639 80.5745 48.7767C80.4733 48.707 80.4021 48.6017 80.3751 48.4816C80.3483 48.3617 80.3674 48.2361 80.4291 48.1298C80.4907 48.0234 80.5903 47.9442 80.7077 47.9079C80.8252 47.8718 80.952 47.8812 81.0629 47.9343C81.4067 48.1305 81.7957 48.2338 82.1916 48.2338C82.5874 48.2338 82.9765 48.1305 83.3203 47.9343C83.4317 47.8681 83.5649 47.8488 83.6904 47.8808C83.816 47.9127 83.9237 47.9933 83.99 48.1046C84.0562 48.216 84.0755 48.3492 84.0435 48.4748C84.0116 48.6003 83.931 48.7081 83.8197 48.7743C83.3264 49.0632 82.7649 49.2149 82.1934 49.2138Z" fill="white"/>
<path d="M96.42 49.2235C95.8047 49.2261 95.1966 49.0751 94.6533 48.784C94.5496 48.7171 94.4751 48.6134 94.4446 48.4938C94.414 48.3741 94.4311 48.2474 94.4897 48.1391C94.5496 48.0308 94.6472 47.949 94.7644 47.9101C94.8817 47.8711 95.0086 47.8781 95.121 47.9294C95.5727 48.1677 96.0794 48.2782 96.5885 48.2486C97.0976 48.2192 97.5896 48.0508 98.0096 47.7621C98.0621 47.7251 98.1219 47.6989 98.1842 47.6848C98.2465 47.6707 98.3112 47.6691 98.3747 47.6801C98.4382 47.6909 98.498 47.7142 98.5529 47.7485C98.6067 47.7828 98.6543 47.8274 98.6909 47.8799C98.7275 47.9323 98.7544 47.9915 98.7678 48.0541C98.7825 48.1167 98.7837 48.1814 98.7727 48.2446C98.7617 48.3078 98.7385 48.3683 98.7043 48.4225C98.6701 48.4767 98.625 48.5236 98.5725 48.5606C97.94 48.9972 97.1892 49.2286 96.42 49.2235Z" fill="white"/>
<path d="M35.0184 82.9522C34.8934 82.9524 34.7731 82.9047 34.6822 82.8187C34.5913 82.7329 34.5369 82.6155 34.53 82.4907L34.2859 78.0173C34.2789 77.8877 34.3237 77.7608 34.4103 77.6643C34.497 77.5677 34.6184 77.5096 34.748 77.5027C34.8775 77.4957 35.0045 77.5405 35.1009 77.6272C35.1975 77.7139 35.2556 77.8352 35.2626 77.9648L35.5068 82.4382C35.5102 82.5023 35.501 82.5664 35.4797 82.6268C35.4584 82.6874 35.4253 82.7431 35.3825 82.7908C35.3396 82.8385 35.2877 82.8773 35.2299 82.9051C35.172 82.9328 35.1092 82.9488 35.0453 82.9522H35.0184Z" fill="white"/>
<path d="M36.268 91.0534C36.149 91.0546 36.0336 91.0119 35.9436 90.9337C35.8538 90.8556 35.7954 90.7482 35.7797 90.6297L35.1216 85.7315C35.1042 85.6033 35.1387 85.4726 35.2172 85.3701C35.2957 85.2675 35.4119 85.1991 35.5404 85.182C35.6687 85.1649 35.7987 85.1991 35.9017 85.2773C36.0048 85.3566 36.0724 85.4726 36.0898 85.6008L36.7478 90.5003C36.7564 90.5638 36.7523 90.6285 36.7359 90.6908C36.7194 90.7531 36.6908 90.8117 36.6517 90.8617C36.6128 90.913 36.5641 90.9557 36.5085 90.9887C36.4529 91.0204 36.3914 91.0412 36.3278 91.0497L36.268 91.0534Z" fill="white"/>
<path d="M38.4287 99.143C38.3332 99.143 38.2398 99.1149 38.1599 99.0636C38.0801 99.0111 38.0173 98.9367 37.9794 98.8487C37.4057 97.518 37.0245 96.1115 36.8476 94.6732C36.8314 94.545 36.867 94.4144 36.9465 94.3118C37.0261 94.2093 37.1432 94.1434 37.2719 94.1263C37.4005 94.1104 37.5304 94.1458 37.6329 94.2264C37.7353 94.3057 37.802 94.4229 37.8182 94.5511C37.9832 95.8978 38.3395 97.2127 38.8767 98.458C38.9278 98.5765 38.9295 98.7108 38.8816 98.8317C38.8339 98.9513 38.7402 99.0477 38.6216 99.099C38.5611 99.1271 38.4953 99.1418 38.4287 99.143Z" fill="white"/>
<path d="M41.3997 105.751C41.3346 105.751 41.2703 105.737 41.2103 105.713C41.1504 105.687 41.096 105.65 41.0505 105.604C40.057 104.583 39.2931 103.362 38.8101 102.023C38.7884 101.963 38.7787 101.899 38.7818 101.835C38.7849 101.77 38.8005 101.708 38.8277 101.649C38.8551 101.592 38.8935 101.54 38.941 101.497C38.9885 101.453 39.0439 101.42 39.1044 101.398C39.1647 101.376 39.2288 101.366 39.2929 101.37C39.357 101.372 39.4197 101.388 39.4778 101.415C39.5358 101.443 39.588 101.481 39.6312 101.529C39.6743 101.576 39.7077 101.632 39.7295 101.692C40.1662 102.901 40.8569 104.001 41.755 104.92C41.8222 104.989 41.8679 105.077 41.8858 105.171C41.9039 105.265 41.8937 105.362 41.8563 105.451C41.8191 105.541 41.7564 105.616 41.6762 105.669C41.596 105.722 41.502 105.751 41.4058 105.751H41.3997Z" fill="white"/>
<path d="M46.5082 111.509C46.393 111.509 46.2814 111.469 46.1932 111.395L43.423 109.051C43.374 109.009 43.3336 108.959 43.3042 108.902C43.2749 108.844 43.257 108.782 43.2517 108.719C43.2463 108.654 43.2537 108.59 43.2732 108.529C43.2927 108.468 43.3241 108.411 43.3656 108.362C43.407 108.313 43.4577 108.273 43.5148 108.244C43.5718 108.214 43.6341 108.196 43.698 108.191C43.7619 108.185 43.8263 108.192 43.8874 108.212C43.9485 108.231 44.0053 108.263 44.0542 108.305L46.8245 110.649C46.9006 110.713 46.9552 110.8 46.9807 110.897C47.0063 110.993 47.0014 111.096 46.9668 111.19C46.9324 111.284 46.8699 111.364 46.7878 111.422C46.7059 111.479 46.6082 111.509 46.5082 111.509Z" fill="white"/>
<path d="M52.6889 114.694H52.6486C51.4391 114.592 50.2942 114.105 49.3839 113.302C49.2867 113.216 49.2276 113.095 49.2197 112.966C49.2116 112.837 49.2553 112.71 49.3412 112.612C49.427 112.514 49.5479 112.456 49.6772 112.447C49.8066 112.44 49.9338 112.484 50.031 112.569C50.7832 113.232 51.7288 113.635 52.728 113.719C52.8575 113.724 52.9796 113.78 53.0675 113.876C53.1555 113.971 53.2019 114.098 53.1968 114.227C53.1916 114.357 53.1351 114.479 53.0399 114.567C52.9447 114.654 52.8184 114.701 52.6889 114.696V114.694Z" fill="white"/>
<path d="M60.1528 116.618C60.1191 116.618 60.0855 116.614 60.0527 116.607L57.0651 115.988C56.9381 115.961 56.8269 115.886 56.7559 115.778C56.6847 115.669 56.6596 115.536 56.686 115.411C56.7124 115.284 56.7881 115.171 56.8965 115.101C57.0049 115.03 57.1372 115.004 57.2641 115.031L60.2517 115.651C60.3705 115.676 60.4761 115.743 60.5479 115.84C60.6197 115.938 60.6526 116.059 60.6403 116.18C60.628 116.299 60.5712 116.412 60.4811 116.492C60.391 116.574 60.274 116.618 60.1528 116.618Z" fill="white"/>
<path d="M67.3926 118.339H67.3853C66.2908 118.322 65.2112 118.084 64.2109 117.64C64.0973 117.584 64.0098 117.486 63.9667 117.368C63.9236 117.249 63.9284 117.117 63.9799 117.003C64.0315 116.887 64.1259 116.796 64.2432 116.749C64.3606 116.701 64.4916 116.701 64.6089 116.749C65.4881 117.137 66.4364 117.344 67.3975 117.359C67.527 117.36 67.6508 117.413 67.7416 117.504C67.8326 117.597 67.8831 117.722 67.8822 117.851C67.8812 117.98 67.8288 118.105 67.7365 118.195C67.6442 118.286 67.5197 118.337 67.3901 118.336L67.3926 118.339Z" fill="white"/>
<path d="M73.146 119.394H70.5821C70.4526 119.394 70.3283 119.343 70.2367 119.251C70.1451 119.16 70.0938 119.035 70.0938 118.906C70.0938 118.776 70.1451 118.652 70.2367 118.56C70.3283 118.469 70.4526 118.417 70.5821 118.417H73.146C73.2756 118.417 73.3997 118.469 73.4913 118.56C73.5829 118.652 73.6344 118.776 73.6344 118.906C73.6344 119.035 73.5829 119.16 73.4913 119.251C73.3997 119.343 73.2756 119.394 73.146 119.394Z" fill="white"/>
<path d="M94.2419 118.542C94.1308 118.542 94.0234 118.504 93.9367 118.434C93.85 118.365 93.789 118.267 93.7658 118.158C93.7413 118.05 93.7548 117.936 93.8048 117.836C93.8537 117.737 93.9367 117.657 94.0368 117.61L96.8071 116.332C96.8657 116.305 96.9291 116.289 96.9926 116.286C97.0573 116.283 97.122 116.293 97.1819 116.315C97.2429 116.337 97.2978 116.371 97.3455 116.414C97.3931 116.458 97.4322 116.51 97.459 116.569C97.4859 116.627 97.5005 116.691 97.503 116.754C97.5054 116.819 97.4956 116.884 97.4737 116.944C97.4505 117.003 97.4163 117.06 97.3723 117.106C97.3296 117.154 97.2759 117.191 97.2173 117.218L94.4458 118.497C94.3823 118.526 94.3127 118.542 94.2419 118.542Z" fill="white"/>
<path d="M99.9992 116.415C99.9321 116.415 99.8661 116.4 99.8051 116.374C99.744 116.347 99.6891 116.308 99.6427 116.259C99.5548 116.165 99.5072 116.039 99.5121 115.91C99.5157 115.78 99.5719 115.657 99.6659 115.569C100.448 114.845 101.419 114.357 102.467 114.161C102.595 114.138 102.726 114.166 102.833 114.239C102.939 114.314 103.012 114.426 103.036 114.554C103.059 114.681 103.031 114.813 102.956 114.919C102.883 115.026 102.771 115.099 102.642 115.122C101.778 115.283 100.978 115.686 100.333 116.283C100.242 116.367 100.124 116.415 99.9992 116.415Z" fill="white"/>
<path d="M105.325 113.219C105.217 113.219 105.111 113.183 105.026 113.116C104.94 113.05 104.879 112.957 104.852 112.852C104.824 112.747 104.833 112.636 104.875 112.537C104.919 112.437 104.994 112.355 105.088 112.303C105.925 111.839 106.67 111.225 107.286 110.491C107.327 110.442 107.378 110.402 107.434 110.371C107.492 110.342 107.554 110.324 107.618 110.319C107.682 110.313 107.746 110.32 107.807 110.34C107.869 110.359 107.925 110.39 107.974 110.431C108.024 110.473 108.064 110.523 108.094 110.58C108.123 110.638 108.141 110.699 108.147 110.763C108.152 110.827 108.145 110.892 108.125 110.953C108.107 111.014 108.075 111.071 108.034 111.12C107.34 111.945 106.5 112.636 105.557 113.158C105.486 113.197 105.407 113.219 105.325 113.219Z" fill="white"/>
<path d="M110.421 108.516C110.338 108.516 110.258 108.495 110.184 108.455C110.112 108.415 110.051 108.356 110.007 108.286C109.963 108.216 109.938 108.135 109.934 108.052C109.93 107.97 109.946 107.887 109.983 107.813L111.665 104.394C111.693 104.337 111.734 104.286 111.781 104.243C111.83 104.2 111.886 104.168 111.946 104.148C112.007 104.127 112.072 104.118 112.135 104.122C112.199 104.127 112.262 104.143 112.32 104.172C112.377 104.2 112.428 104.239 112.471 104.287C112.513 104.336 112.546 104.392 112.566 104.452C112.587 104.513 112.596 104.577 112.591 104.641C112.587 104.706 112.57 104.768 112.542 104.825L110.86 108.244C110.819 108.326 110.757 108.394 110.68 108.443C110.602 108.49 110.513 108.516 110.421 108.516Z" fill="white"/>
<path d="M113.598 101.276C113.569 101.276 113.54 101.274 113.511 101.269C113.449 101.258 113.388 101.233 113.334 101.199C113.28 101.164 113.233 101.12 113.196 101.066C113.16 101.014 113.134 100.955 113.12 100.891C113.107 100.829 113.106 100.765 113.117 100.701C113.37 99.2909 113.769 97.9113 114.307 96.5841C114.33 96.5219 114.365 96.4657 114.41 96.4181C114.454 96.3692 114.507 96.3314 114.567 96.3045C114.628 96.2777 114.693 96.263 114.758 96.2618C114.824 96.2606 114.89 96.2728 114.951 96.2972C115.01 96.3216 115.067 96.3583 115.113 96.4047C115.159 96.4523 115.196 96.5072 115.22 96.5683C115.245 96.6293 115.256 96.694 115.255 96.7599C115.253 96.8259 115.239 96.8906 115.212 96.9504C114.699 98.214 114.319 99.529 114.079 100.872C114.059 100.986 114.001 101.088 113.913 101.161C113.825 101.236 113.713 101.276 113.598 101.276Z" fill="white"/>
<path d="M115.782 94.6831C115.75 94.6831 115.718 94.6794 115.686 94.6733C115.559 94.6477 115.448 94.5744 115.376 94.467C115.304 94.3595 115.277 94.2277 115.302 94.1007C115.608 92.5306 116.181 91.024 116.993 89.6468C117.059 89.5345 117.166 89.4539 117.292 89.4209C117.418 89.3892 117.551 89.4075 117.662 89.4734C117.774 89.5394 117.855 89.6468 117.888 89.7726C117.919 89.8971 117.901 90.0302 117.835 90.1425C117.078 91.4269 116.546 92.8309 116.26 94.2936C116.238 94.4035 116.177 94.5024 116.09 94.5732C116.004 94.644 115.894 94.6831 115.782 94.6831Z" fill="white"/>
<path d="M119.145 87.21C119.072 87.21 118.998 87.1942 118.932 87.1612C118.866 87.1294 118.808 87.0831 118.763 87.0257C118.716 86.9683 118.684 86.8999 118.669 86.8291C118.652 86.7571 118.653 86.6826 118.669 86.6106C119.019 85.1125 119.831 83.7619 120.988 82.7488C121.087 82.6761 121.209 82.643 121.331 82.6562C121.454 82.6693 121.566 82.7278 121.646 82.8201C121.727 82.9123 121.77 83.0315 121.767 83.154C121.764 83.2765 121.715 83.3933 121.629 83.4814C120.625 84.3581 119.92 85.5276 119.615 86.8267C119.592 86.9341 119.532 87.0306 119.446 87.1001C119.362 87.1697 119.255 87.2088 119.145 87.21Z" fill="white"/>
<path d="M123.44 80.3985C123.354 80.3984 123.269 80.3755 123.195 80.3318C123.119 80.2881 123.058 80.2253 123.015 80.1498C122.973 80.0745 122.952 79.9892 122.953 79.9026C122.954 79.8161 122.979 79.7314 123.023 79.6575C123.914 78.186 125.28 77.0622 126.895 76.4709C126.957 76.446 127.021 76.4336 127.087 76.4346C127.153 76.4356 127.218 76.4498 127.278 76.4764C127.339 76.503 127.392 76.5413 127.438 76.5893C127.482 76.6373 127.517 76.6938 127.539 76.7556C127.562 76.8173 127.572 76.8829 127.568 76.9485C127.565 77.0141 127.549 77.0784 127.519 77.1374C127.49 77.1963 127.45 77.249 127.401 77.2921C127.351 77.335 127.292 77.3676 127.23 77.3878C125.824 77.9031 124.636 78.8818 123.859 80.1629C123.816 80.2349 123.754 80.2945 123.681 80.3358C123.608 80.3771 123.525 80.3987 123.44 80.3985Z" fill="white"/>
<path d="M152.996 40.9902C153.473 51.2764 157.88 61.3318 165.119 68.6548C153.064 69.601 141.487 75.6372 133.816 84.9796C133.778 85.0272 132.107 83.0737 131.963 82.8869C131.401 82.1293 130.905 81.3249 130.48 80.483C129.775 79.0826 130.212 77.7518 130.534 76.283C131.276 72.9096 132.308 69.6061 133.617 66.4096C136.239 60.0042 139.919 54.085 144.503 48.8993C146.791 46.3114 149.299 43.927 151.999 41.7728C152.329 41.5067 152.662 41.2458 152.996 40.9902Z" fill="white"/>
<path d="M133.817 85.4686H133.805C133.56 85.4686 133.538 85.4686 132.546 84.3222C132.158 83.8778 131.663 83.2966 131.569 83.177C130.99 82.3974 130.48 81.5695 130.043 80.7022C129.337 79.3018 129.646 77.96 129.945 76.6634C129.982 76.5023 130.02 76.3411 130.055 76.1751C130.805 72.7741 131.845 69.444 133.164 66.221C135.807 59.763 139.516 53.7951 144.136 48.5667C146.443 45.9576 148.972 43.5535 151.693 41.3816C152.025 41.1179 152.364 40.8542 152.699 40.599C152.77 40.5453 152.854 40.5121 152.944 40.5027C153.031 40.4934 153.121 40.5083 153.201 40.546C153.282 40.5837 153.351 40.6427 153.4 40.7166C153.45 40.7905 153.478 40.8764 153.482 40.9653C153.952 51.1159 158.319 61.0822 165.464 68.3136C165.53 68.3798 165.575 68.4633 165.595 68.5544C165.614 68.6454 165.607 68.7401 165.575 68.8273C165.542 68.9146 165.486 68.9906 165.411 69.0468C165.337 69.1028 165.248 69.1365 165.155 69.1439C153.312 70.0754 141.734 76.1116 134.192 85.2928C134.146 85.3478 134.089 85.3917 134.024 85.4222C133.96 85.4528 133.889 85.4686 133.817 85.4686ZM152.565 41.9396L152.307 42.1447C149.629 44.2811 147.142 46.6464 144.872 49.2137C140.324 54.3596 136.674 60.2334 134.072 66.5897C132.777 69.7605 131.755 73.0369 131.02 76.3826C130.983 76.5499 130.945 76.7147 130.907 76.8783C130.623 78.1102 130.377 79.1736 130.924 80.259C131.337 81.0762 131.818 81.8565 132.364 82.591C132.474 82.7387 133.311 83.7142 133.792 84.2502C141.463 75.2357 152.301 69.5105 164.071 68.2563C157.385 61.1579 153.239 51.6678 152.565 41.9396Z" fill="white"/>
<path d="M145.765 53.1172C145.873 53.6555 146.141 54.1481 146.537 54.5289C146.932 54.9096 147.434 55.1601 147.976 55.2467C148.518 55.3333 149.074 55.2517 149.568 55.0131C150.063 54.7744 150.472 54.3902 150.74 53.912C151.483 57.5517 153.277 60.8933 155.901 63.5218C154.991 63.8881 154.047 64.269 153.388 64.9942C152.73 65.7194 152.452 66.8927 153.022 67.6802C146.145 69.5212 139.976 73.3773 135.307 78.7526C134.788 79.3521 134.11 80.8013 133.497 81.2946C133.497 81.2946 131.666 79.777 131.692 78.9199C131.717 78.0628 132.224 77.0409 132.482 76.2253C134.459 69.9854 137.403 64.0941 141.206 58.7663C141.909 57.7807 142.642 56.8165 143.404 55.874C143.795 55.3921 144.19 54.9152 144.593 54.4431C144.751 54.2709 145.805 53.2942 145.765 53.1172Z" fill="#DFD4D9"/>
<path d="M149.009 52.5959C148.672 52.5993 148.339 52.5285 148.032 52.3883C147.413 52.1002 146.992 51.5337 146.846 50.7901C146.834 50.7269 146.832 50.6618 146.845 50.5985C146.857 50.5351 146.882 50.4748 146.918 50.4211C146.953 50.3673 147 50.3212 147.053 50.2854C147.107 50.2495 147.167 50.2247 147.23 50.2123C147.294 50.1998 147.359 50.2001 147.422 50.213C147.485 50.226 147.545 50.2512 147.599 50.2875C147.652 50.3238 147.698 50.3701 147.733 50.4242C147.769 50.4782 147.793 50.5386 147.804 50.6021C147.891 51.0429 148.106 51.3457 148.444 51.5032C148.865 51.6985 149.449 51.6411 149.968 51.3542C150.081 51.2913 150.215 51.2762 150.34 51.3118C150.465 51.3476 150.57 51.4314 150.632 51.5447C150.695 51.658 150.71 51.7917 150.674 51.9162C150.639 52.0407 150.555 52.146 150.441 52.2088C150.004 52.4562 149.512 52.5893 149.009 52.5959Z" fill="black"/>
<path d="M156.377 67.8424C156.265 67.8423 156.155 67.8026 156.067 67.7305C155.98 67.6583 155.92 67.5581 155.898 67.4468C155.853 67.1483 155.874 66.8436 155.958 66.5537C156.044 66.2638 156.19 65.9958 156.388 65.7682C156.587 65.5405 156.832 65.3588 157.107 65.2354C157.383 65.1121 157.682 65.0502 157.984 65.0539C158.048 65.0574 158.111 65.0735 158.169 65.1014C158.227 65.1292 158.279 65.168 158.322 65.2159C158.365 65.2637 158.398 65.3195 158.418 65.3802C158.44 65.4408 158.449 65.505 158.445 65.5691C158.441 65.6332 158.426 65.6961 158.398 65.7539C158.371 65.8118 158.332 65.8637 158.284 65.9065C158.235 65.9494 158.18 65.9825 158.119 66.0037C158.058 66.025 157.995 66.0341 157.93 66.0306C157.777 66.0351 157.626 66.0712 157.488 66.1368C157.349 66.2024 157.225 66.2958 157.124 66.4114C157.024 66.5269 156.948 66.662 156.902 66.8083C156.856 66.9546 156.841 67.1088 156.857 67.2613C156.882 67.3884 156.856 67.5201 156.782 67.6274C156.71 67.7349 156.598 67.8091 156.471 67.8339C156.44 67.8397 156.409 67.8425 156.377 67.8424Z" fill="black"/>
<path d="M7.87653 56.9497C9.35408 61.439 9.6112 66.2406 8.62129 70.862C7.17939 77.5489 3.14063 84.1259 4.81938 90.7628C8.52484 89.0425 11.3586 85.9146 14.6855 83.5436C17.5803 81.4814 21.6521 79.3326 25.0413 80.9125C30.6941 83.5484 31.036 81.5767 31.036 81.5767C31.036 80.0298 31.0994 78.9908 31.036 77.5562C30.9798 76.2852 30.1276 74.2305 29.3767 73.2379C28.3475 71.8778 27.8872 71.1623 26.8421 69.8193C24.5857 66.9018 21.9078 64.3363 18.8965 62.2069C15.9001 60.0863 12.5972 58.4362 9.10233 57.3135C8.95338 57.2684 7.92049 57.0645 7.87653 56.9497Z" fill="white"/>
<path d="M17.0928 64.0625C16.3968 65.5703 15.845 67.3187 12.7268 67.0379L8.51953 78.7977C10.1934 78.2116 12.1823 79.551 12.8733 81.1467C16.4139 78.3532 21.3098 77.462 25.6538 78.5974C26.6806 78.8648 27.5816 79.33 28.5229 79.7475C28.597 79.7811 28.6778 79.7975 28.7593 79.7954C28.8406 79.7933 28.9206 79.7729 28.993 79.7358C29.0654 79.6986 29.1285 79.6454 29.1774 79.5805C29.2265 79.5155 29.2602 79.4403 29.2762 79.3605C29.358 78.9649 29.4129 78.5413 29.3495 78.2018C29.253 77.6781 28.8049 77.1946 28.5083 76.7722C27.7012 75.6221 27.2629 74.3206 26.3717 73.2315C24.6087 71.0803 23.0581 69.0243 20.9997 67.1538C20.6944 66.8791 18.1769 64.8439 17.0928 64.0625Z" fill="#DFD4D9"/>
<path d="M10.6859 84.7941C10.6344 84.7943 10.5832 84.786 10.5345 84.7696C10.4124 84.7296 10.311 84.6432 10.2523 84.5289C10.1935 84.4146 10.1822 84.2818 10.2208 84.1592C10.432 83.506 10.3538 82.9383 10.001 82.5574C9.55903 82.08 8.74224 81.9469 7.76185 82.1789C7.69861 82.1967 7.63243 82.2017 7.56724 82.1934C7.50204 82.1851 7.43928 82.1637 7.38251 82.1305C7.32586 82.0974 7.27642 82.0531 7.23722 82.0004C7.19791 81.9478 7.16983 81.8877 7.15433 81.8238C7.13882 81.76 7.1365 81.6936 7.14724 81.6287C7.15799 81.564 7.1818 81.502 7.21708 81.4466C7.25237 81.3911 7.29851 81.3434 7.3526 81.3063C7.40681 81.269 7.46786 81.2433 7.53232 81.2302C8.86677 80.9067 10.0279 81.1484 10.7177 81.8932C11.3123 82.5342 11.4698 83.4694 11.1499 84.4571C11.1179 84.555 11.0559 84.6403 10.9725 84.7008C10.8892 84.7613 10.7888 84.7939 10.6859 84.7941Z" fill="black"/>
<path d="M13.6115 65.0869C13.2563 65.0843 12.9041 65.0231 12.5688 64.9062C12.5067 64.8868 12.449 64.855 12.3992 64.8129C12.3495 64.7708 12.3087 64.7191 12.2793 64.661C12.2499 64.6029 12.2323 64.5395 12.2278 64.4746C12.2232 64.4095 12.2316 64.3443 12.2527 64.2827C12.2737 64.221 12.3068 64.1642 12.3501 64.1155C12.3935 64.0668 12.446 64.0274 12.5048 63.9993C12.5637 63.9713 12.6275 63.9553 12.6926 63.9524C12.7577 63.9493 12.8226 63.9595 12.8838 63.9819C13.6896 64.2567 14.2378 64.043 14.554 63.8159C14.9203 63.5522 15.1168 63.1664 15.1168 62.9234C15.1168 62.7939 15.1682 62.6697 15.2598 62.5781C15.3514 62.4866 15.4757 62.4351 15.6052 62.4351C15.7347 62.4351 15.8589 62.4866 15.9505 62.5781C16.042 62.6697 16.0936 62.7939 16.0936 62.9234C16.0936 63.5266 15.7126 64.1883 15.1229 64.6107C14.6819 64.9251 14.1529 65.0918 13.6115 65.0869Z" fill="black"/>
<path d="M33.334 147.683C33.2314 147.683 33.1315 147.651 33.0483 147.591C31.6855 146.586 30.5635 145.29 29.7633 143.798C28.9632 142.305 28.5051 140.653 28.4222 138.962C28.4172 138.832 28.4639 138.707 28.5519 138.611C28.6399 138.516 28.7621 138.46 28.8917 138.455C29.0212 138.449 29.1473 138.497 29.2426 138.585C29.3377 138.672 29.394 138.795 29.399 138.924C29.4742 140.467 29.8918 141.975 30.6219 143.338C31.3519 144.699 32.3759 145.882 33.6196 146.799C33.7032 146.86 33.7654 146.945 33.7974 147.043C33.8295 147.141 33.8296 147.247 33.7979 147.345C33.7662 147.442 33.7043 147.529 33.6209 147.589C33.5375 147.65 33.4371 147.683 33.334 147.683Z" fill="black"/>
<path d="M133.363 148.007C135.937 151.129 138.828 154.146 142.509 155.821C142.92 156.009 143.374 156.187 143.815 156.079C144.235 155.98 144.556 155.65 144.85 155.336L165.663 133.173C161.883 129.381 158.658 125.074 156.082 120.379C153.626 124.929 149.428 128.343 144.838 130.723C140.249 133.102 135.241 134.542 130.272 135.966C129.108 136.299 127.94 136.62 126.78 136.967C125.511 137.345 126.442 138.362 126.923 139.122C128.17 141.09 129.493 143.006 130.892 144.871C131.69 145.934 132.513 146.981 133.363 148.007Z" fill="white"/>
<path d="M135.296 137.569C141.344 136.892 148.38 131.952 152.979 127.966C153.711 129.052 156.944 128.689 157.523 127.242C158.784 128.696 159.335 130.34 160.061 130.932C158.851 131.569 158.25 135.682 159.477 136.287C154.439 140.194 149.275 144.337 145.881 150.414C146.067 149.208 144.265 148.742 143.127 149.186C141.85 149.69 140.806 150.649 140.197 151.88C140.277 151.72 139.238 150.537 139.098 150.356C138.717 149.861 138.322 149.377 137.91 148.906C137.058 147.927 136.143 147.005 135.169 146.147C134.402 145.468 133.43 143.304 133.43 143.304C133.43 143.304 134.924 142.749 135.323 142.342C135.719 141.941 136.003 141.444 136.149 140.899C136.301 140.317 136.304 139.706 136.155 139.124C136.005 138.54 135.71 138.006 135.296 137.569Z" fill="#DFD4D9"/>
<path d="M147.337 140.739C146.994 140.742 146.653 140.677 146.333 140.549C145.336 140.145 144.518 139.042 144.888 138.045C145.281 136.989 145.951 136.439 147.261 136.112C147.477 135.945 147.729 135.831 147.996 135.779C148.265 135.726 148.54 135.736 148.803 135.809C149.144 135.889 149.46 136.052 149.722 136.284C149.985 136.515 150.186 136.808 150.308 137.136C150.719 138.357 149.99 139.614 149.059 140.219C148.547 140.554 147.95 140.734 147.337 140.739ZM148.323 136.729C148.144 136.722 147.968 136.787 147.835 136.909C147.771 136.97 147.692 137.012 147.605 137.031C146.404 137.31 146.056 137.704 145.804 138.382C145.644 138.813 146.171 139.423 146.702 139.64C147.233 139.858 147.952 139.771 148.533 139.396C149.134 139.006 149.632 138.188 149.388 137.443C149.318 137.271 149.208 137.119 149.068 137C148.926 136.88 148.758 136.796 148.577 136.755C148.494 136.736 148.409 136.727 148.323 136.729Z" fill="black"/>
<path d="M140.797 70.1278C140.235 70.1296 139.694 69.9105 139.291 69.5173C138.357 68.6261 138.417 67.1781 138.957 66.2074C139.445 65.3333 140.309 64.7338 141.213 64.6435C142.254 64.5385 143.288 65.155 143.635 66.0768C143.778 66.4856 143.833 66.9194 143.799 67.3507C143.763 67.7819 143.64 68.2013 143.434 68.5821C143.259 68.9238 143.012 69.2239 142.712 69.4624C142.411 69.7008 142.063 69.8719 141.689 69.9642C141.622 69.9781 141.551 69.9781 141.483 69.9642C141.431 70.007 141.372 70.039 141.307 70.0582C141.141 70.1036 140.969 70.127 140.797 70.1278ZM141.447 65.6104C141.402 65.6104 141.356 65.6129 141.311 65.6177C140.72 65.6763 140.145 66.0866 139.81 66.686C139.461 67.3124 139.397 68.2732 139.966 68.8129C140.104 68.9498 140.275 69.0502 140.462 69.105C140.649 69.1598 140.845 69.1672 141.036 69.1266C141.11 69.1048 141.187 69.1011 141.263 69.1157C141.32 69.068 141.389 69.0342 141.461 69.0168C141.699 68.9558 141.921 68.8447 142.113 68.6908C142.304 68.5368 142.462 68.3437 142.572 68.1243C142.712 67.8646 142.798 67.5789 142.823 67.2849C142.848 66.9908 142.812 66.6947 142.718 66.415C142.545 65.9462 142.003 65.6104 141.447 65.6104Z" fill="black"/>
<path d="M21.7638 76.3538C21.4118 76.3533 21.0618 76.3016 20.7248 76.2C20.0411 76.0498 19.5039 75.7116 19.2219 75.2416C19.1068 75.0506 19.0328 74.8377 19.0048 74.6166C18.9769 74.3954 18.9954 74.1707 19.0595 73.9572C19.3794 72.79 20.5368 72.1026 21.516 72.0269C22.4317 71.9561 23.2839 72.3383 23.7405 73.0256C24.2423 73.7826 24.2887 75.0401 23.5573 75.7043C23.0626 76.139 22.4221 76.3709 21.7638 76.3538ZM21.7345 72.9951C21.6869 72.9951 21.6393 72.9951 21.5917 72.9951C20.9605 73.0439 20.1925 73.5116 20.0045 74.2087C19.9757 74.2938 19.9657 74.384 19.975 74.4734C19.9841 74.5628 20.0126 74.649 20.0582 74.7264C20.2023 74.962 20.538 75.1561 20.9556 75.2428L21.0166 75.2599C21.0264 75.2599 22.168 75.642 22.9029 74.9754C23.2362 74.6726 23.1898 73.9535 22.9286 73.5592C22.6917 73.2063 22.24 72.9951 21.7345 72.9951Z" fill="black"/>
<path d="M132.333 141.503C132.206 141.503 132.084 141.455 131.993 141.365C131.901 141.275 131.848 141.152 131.846 141.022C131.843 140.893 131.893 140.768 131.982 140.676C132.102 140.533 132.189 140.367 132.24 140.189C132.291 140.01 132.305 139.823 132.279 139.639C132.255 139.456 132.191 139.279 132.093 139.121C131.996 138.963 131.866 138.827 131.714 138.722C131.611 138.654 131.538 138.548 131.509 138.427C131.481 138.306 131.5 138.179 131.562 138.071C131.625 137.964 131.725 137.883 131.844 137.848C131.963 137.813 132.091 137.824 132.202 137.879C132.483 138.058 132.721 138.297 132.9 138.578C133.081 138.859 133.197 139.175 133.242 139.506C133.289 139.836 133.262 140.171 133.164 140.491C133.068 140.81 132.903 141.104 132.681 141.353C132.636 141.4 132.582 141.438 132.522 141.463C132.462 141.489 132.399 141.502 132.333 141.503Z" fill="black"/>
<path d="M142.231 154.141C142.186 154.141 142.14 154.135 142.096 154.123C141.972 154.088 141.867 154.005 141.805 153.891C141.741 153.777 141.725 153.644 141.761 153.52C141.873 153.151 142.103 152.829 142.415 152.602C142.726 152.375 143.104 152.256 143.489 152.264C143.619 152.268 143.742 152.325 143.83 152.42C143.918 152.515 143.964 152.641 143.96 152.77C143.955 152.9 143.898 153.022 143.804 153.11C143.709 153.199 143.582 153.245 143.453 153.24C143.286 153.24 143.123 153.293 142.988 153.39C142.852 153.489 142.751 153.628 142.7 153.787C142.67 153.889 142.609 153.979 142.525 154.042C142.44 154.107 142.337 154.141 142.231 154.141Z" fill="black"/>
<path d="M111.295 143.641C111.177 143.622 111.056 143.63 110.941 143.67C110.828 143.707 110.725 143.773 110.642 143.86C110.56 143.947 110.499 144.053 110.467 144.169C110.436 144.285 110.433 144.407 110.459 144.524L113.459 158.142C114.037 160.768 115.94 166.91 116.36 166.968C117.041 167.062 119.385 165.52 119.999 165.211C132.016 159.159 147.186 161.887 158.848 155.177L152.95 141.991C152.821 141.7 152.671 141.389 152.385 141.248C152.099 141.108 151.774 141.18 151.468 141.248C146.809 142.333 142.179 143.446 137.448 144.17C131.645 145.059 125.759 145.268 119.907 144.793C118.28 144.661 116.655 144.475 115.031 144.236C114.206 144.114 113.382 143.978 112.559 143.829C112.433 143.799 111.849 143.726 111.295 143.641Z" fill="white"/>
<path d="M117.936 146.769C118.895 149.894 115.006 150.951 114.273 149.888C115.559 153.195 116.143 156.064 116.504 158.989C116.962 158.701 117.498 158.565 118.037 158.601C118.576 158.637 119.09 158.843 119.505 159.19C119.92 159.536 120.213 160.005 120.345 160.529C120.476 161.053 120.438 161.606 120.235 162.106C129.368 159.153 140.898 156.417 150.447 155.448C149.124 153.328 150.838 150.485 153.407 151.48C152.808 149.999 152.128 148.551 151.372 147.143C150.762 147.355 148.622 147.143 148.122 144.823C146.254 145.043 141.304 145.977 139.434 146.185C135.398 146.633 131.481 146.97 127.424 147.143C125.143 147.241 120.826 147.288 117.936 146.769Z" fill="#DFD4D9"/>
<path d="M134.076 155.75C133.946 155.75 133.817 155.743 133.685 155.734C132.8 155.665 132.044 155.376 131.5 154.897C130.904 154.376 130.425 153.442 130.701 152.536C131.26 150.693 133.055 150.038 134.108 149.81C134.586 149.622 135.217 149.673 135.894 149.959C136.57 150.244 137.426 150.833 137.714 151.6C138.115 152.668 137.741 153.987 136.805 154.805C136.113 155.414 135.129 155.75 134.076 155.75ZM134.734 150.675C134.637 150.672 134.54 150.689 134.449 150.726C134.419 150.739 134.386 150.749 134.353 150.756C133.519 150.931 132.058 151.431 131.635 152.821C131.487 153.309 131.795 153.858 132.143 154.164C132.631 154.59 133.292 154.724 133.761 154.759C134.701 154.833 135.576 154.581 136.161 154.07C136.787 153.521 137.056 152.628 136.798 151.942C136.659 151.575 136.118 151.114 135.514 150.859C135.269 150.749 135.004 150.686 134.734 150.675Z" fill="black"/>
<path d="M114.273 148.59C114.143 148.598 114.016 148.554 113.919 148.468C113.822 148.382 113.762 148.261 113.755 148.132C113.746 148.001 113.79 147.874 113.877 147.778C113.963 147.68 114.083 147.622 114.213 147.613C114.551 147.556 114.857 147.383 115.08 147.123C115.303 146.865 115.429 146.535 115.434 146.193C115.432 146.13 115.443 146.065 115.467 146.005C115.49 145.945 115.524 145.89 115.569 145.844C115.613 145.797 115.666 145.761 115.724 145.735C115.783 145.708 115.846 145.695 115.911 145.694C115.975 145.691 116.039 145.702 116.099 145.725C116.159 145.749 116.213 145.784 116.259 145.828C116.305 145.872 116.343 145.926 116.369 145.984C116.395 146.043 116.409 146.106 116.41 146.17C116.413 146.756 116.204 147.324 115.821 147.767C115.437 148.21 114.906 148.499 114.326 148.582L114.273 148.59Z" fill="black"/>
<path d="M150.84 145.647C150.036 145.647 149.297 145.28 149.025 144.693C148.971 144.576 148.966 144.44 149.01 144.32C149.055 144.197 149.147 144.099 149.264 144.045C149.383 143.991 149.517 143.985 149.638 144.03C149.76 144.075 149.859 144.167 149.912 144.284C150.048 144.578 150.684 144.782 151.303 144.606C151.366 144.586 151.432 144.578 151.497 144.583C151.563 144.589 151.627 144.608 151.685 144.639C151.744 144.67 151.795 144.713 151.837 144.764C151.877 144.815 151.907 144.874 151.926 144.937C151.944 145.001 151.949 145.067 151.94 145.133C151.932 145.197 151.911 145.261 151.877 145.317C151.844 145.374 151.8 145.423 151.746 145.462C151.694 145.501 151.634 145.529 151.569 145.545C151.332 145.612 151.087 145.647 150.84 145.647Z" fill="black"/>
<path d="M118.764 163.523C118.635 163.523 118.51 163.471 118.419 163.38C118.327 163.288 118.276 163.164 118.276 163.034C118.276 162.276 118.053 161.724 117.665 161.519C117.582 161.469 117.488 161.444 117.392 161.444C117.295 161.444 117.2 161.469 117.117 161.519C117.065 161.557 117.004 161.585 116.94 161.599C116.877 161.613 116.811 161.616 116.746 161.603C116.681 161.592 116.62 161.568 116.565 161.533C116.51 161.496 116.464 161.451 116.427 161.396C116.391 161.342 116.365 161.281 116.353 161.216C116.341 161.153 116.341 161.086 116.354 161.022C116.367 160.959 116.394 160.898 116.431 160.844C116.469 160.79 116.516 160.745 116.571 160.71C116.801 160.561 117.067 160.477 117.34 160.467C117.614 160.457 117.885 160.522 118.124 160.655C118.84 161.035 119.25 161.901 119.25 163.032C119.251 163.097 119.238 163.16 119.215 163.219C119.19 163.279 119.154 163.332 119.11 163.377C119.064 163.424 119.011 163.459 118.951 163.485C118.892 163.509 118.829 163.523 118.764 163.523Z" fill="black"/>
<path d="M152.488 155.621C152.416 155.621 152.344 155.605 152.278 155.573C152.212 155.542 152.155 155.495 152.109 155.439C151.933 155.208 151.819 154.935 151.779 154.648C151.737 154.36 151.772 154.067 151.875 153.796C152.022 153.404 152.446 152.718 153.622 152.512C153.749 152.493 153.878 152.525 153.981 152.599C154.085 152.674 154.156 152.786 154.178 152.912C154.199 153.037 154.171 153.167 154.099 153.272C154.027 153.377 153.916 153.45 153.79 153.475C153.272 153.565 152.917 153.801 152.789 154.139C152.745 154.251 152.729 154.372 152.742 154.493C152.756 154.612 152.8 154.727 152.868 154.826C152.927 154.898 152.962 154.985 152.973 155.076C152.984 155.168 152.968 155.26 152.929 155.343C152.889 155.427 152.826 155.496 152.748 155.545C152.671 155.595 152.581 155.621 152.488 155.621Z" fill="black"/>
<path d="M155.215 126.818C154.809 126.833 154.411 126.694 154.102 126.427C154.008 126.337 153.953 126.215 153.949 126.086C153.946 125.956 153.993 125.831 154.082 125.735C154.172 125.641 154.294 125.587 154.423 125.583C154.553 125.579 154.678 125.627 154.772 125.716C155.008 125.937 155.675 125.888 156.182 125.494C156.285 125.414 156.416 125.379 156.544 125.395C156.672 125.412 156.789 125.479 156.869 125.58C156.948 125.683 156.983 125.814 156.966 125.942C156.95 126.07 156.883 126.187 156.781 126.267C156.334 126.617 155.783 126.81 155.215 126.818Z" fill="black"/>
<path d="M161.22 135.303C161.137 135.303 161.055 135.282 160.983 135.241C160.734 135.092 160.526 134.882 160.381 134.63C160.236 134.379 160.158 134.094 160.153 133.804C160.143 133.385 160.275 132.59 161.294 131.961C161.349 131.926 161.41 131.901 161.474 131.889C161.539 131.878 161.604 131.879 161.668 131.894C161.731 131.907 161.791 131.934 161.845 131.972C161.897 132.01 161.943 132.058 161.977 132.113C162.011 132.169 162.034 132.23 162.044 132.294C162.054 132.359 162.051 132.424 162.035 132.487C162.02 132.551 161.992 132.611 161.952 132.662C161.913 132.714 161.865 132.758 161.808 132.791C161.362 133.067 161.121 133.419 161.128 133.78C161.13 133.901 161.159 134.021 161.217 134.127C161.275 134.233 161.358 134.325 161.459 134.391C161.554 134.443 161.629 134.526 161.67 134.626C161.713 134.727 161.72 134.838 161.692 134.943C161.664 135.048 161.603 135.14 161.517 135.206C161.43 135.271 161.324 135.306 161.215 135.305L161.22 135.303Z" fill="black"/>
<path d="M137.056 108.739C136.926 108.739 136.802 108.688 136.71 108.596C136.619 108.505 136.567 108.38 136.567 108.251C136.537 101.653 135.554 95.0943 133.649 88.7773C133.631 88.7162 133.625 88.6515 133.631 88.588C133.637 88.5233 133.657 88.4623 133.687 88.4049C133.718 88.3487 133.758 88.2987 133.808 88.2584C133.858 88.2181 133.914 88.1876 133.977 88.1693C134.038 88.1497 134.102 88.1436 134.166 88.1497C134.229 88.1571 134.292 88.1754 134.348 88.2059C134.405 88.2364 134.455 88.2779 134.496 88.3268C134.536 88.3768 134.566 88.4342 134.585 88.4952C136.516 94.9026 137.512 101.554 137.544 108.246C137.544 108.375 137.493 108.5 137.401 108.591C137.31 108.683 137.185 108.734 137.056 108.734V108.739Z" fill="black"/>
<path d="M136.864 120.674H136.821C136.693 120.663 136.573 120.601 136.49 120.502C136.406 120.403 136.366 120.275 136.377 120.145L136.803 115.243C136.815 115.114 136.877 114.994 136.976 114.91C137.076 114.827 137.205 114.787 137.334 114.798C137.463 114.809 137.583 114.871 137.667 114.971C137.75 115.071 137.792 115.199 137.78 115.329L137.354 120.229C137.343 120.352 137.286 120.465 137.196 120.547C137.104 120.63 136.987 120.675 136.864 120.674Z" fill="black"/>
<path d="M109.874 28.6516C109.188 28.6317 108.504 28.5464 107.833 28.3965C94.3244 25.7862 80.2404 26.8862 66.6297 27.9484L64.349 28.1266C63.3906 28.1999 62.3956 28.2194 61.6361 27.5797C60.9708 27.0193 60.6594 26.1146 60.6851 24.8107C60.8218 17.6671 61.7973 10.526 63.2941 5.70098C63.3125 5.63884 63.3429 5.58109 63.3836 5.53079C63.4245 5.48061 63.475 5.43898 63.532 5.40845C63.589 5.37781 63.6516 5.35889 63.716 5.35278C63.7804 5.34656 63.8455 5.35327 63.9073 5.37244C63.9692 5.39161 64.0266 5.42286 64.0761 5.4645C64.1258 5.50601 64.1666 5.55704 64.1964 5.61455C64.2261 5.67205 64.2441 5.7348 64.2494 5.79939C64.2546 5.86385 64.2469 5.9288 64.2269 5.99034C62.7557 10.7287 61.7961 17.7721 61.663 24.8302C61.6435 25.8069 61.8474 26.4796 62.2661 26.8337C62.7411 27.2342 63.5188 27.211 64.2745 27.1524L66.5552 26.9753C80.2294 25.907 94.3818 24.8021 108.019 27.4381C109.379 27.7005 110.575 27.869 111.429 27.2537C112.162 26.7226 112.454 25.7202 112.686 24.7386C114.39 17.6028 115.251 10.2916 115.25 2.95516C115.25 2.82562 115.301 2.70146 115.392 2.60989C115.484 2.5182 115.609 2.4668 115.738 2.4668C115.867 2.4668 115.992 2.5182 116.083 2.60989C116.175 2.70146 116.226 2.82562 116.226 2.95516C116.228 10.3694 115.358 17.7581 113.634 24.9694C113.373 26.0792 113.009 27.3245 112 28.0522C111.359 28.51 110.613 28.6516 109.874 28.6516Z" fill="black"/>
<path d="M111.23 7.61406C111.155 7.61394 111.081 7.59648 111.014 7.56303C110.946 7.52957 110.887 7.48098 110.841 7.42103C110.796 7.36109 110.765 7.29149 110.751 7.21763C110.736 7.14376 110.74 7.06758 110.76 6.99506C110.972 6.22393 111.031 5.41899 110.933 4.62527C110.917 4.49671 110.953 4.36705 111.032 4.26462C111.111 4.16231 111.229 4.09576 111.357 4.07953C111.486 4.06329 111.616 4.09894 111.718 4.1783C111.819 4.25778 111.887 4.37462 111.902 4.50318C112.016 5.42533 111.946 6.36068 111.7 7.25633C111.672 7.35913 111.611 7.44972 111.525 7.51431C111.441 7.5789 111.337 7.61394 111.23 7.61406Z" fill="black"/>
<path d="M110.79 15.4959H110.74C110.677 15.4895 110.614 15.4705 110.558 15.4401C110.501 15.4097 110.451 15.3685 110.411 15.3186C110.37 15.2688 110.34 15.2115 110.321 15.1499C110.303 15.0884 110.297 15.0238 110.303 14.9599L110.762 10.4878C110.776 10.3582 110.84 10.2393 110.94 10.157C111.042 10.0748 111.171 10.0361 111.301 10.0494C111.43 10.0628 111.55 10.1269 111.631 10.2278C111.713 10.3288 111.752 10.4583 111.739 10.5879L111.28 15.0601C111.268 15.1804 111.21 15.2918 111.12 15.3724C111.028 15.4528 110.911 15.4969 110.79 15.4959Z" fill="black"/>
<path d="M110.052 21.1123C109.981 21.1131 109.912 21.0985 109.847 21.0695C109.782 21.0405 109.725 20.9979 109.679 20.9444C109.632 20.891 109.598 20.828 109.578 20.7601C109.558 20.6921 109.554 20.6206 109.564 20.5506L109.983 17.7914C110.005 17.6649 110.074 17.5518 110.178 17.4765C110.282 17.4012 110.411 17.3697 110.537 17.3887C110.664 17.4078 110.779 17.4759 110.855 17.5785C110.932 17.681 110.965 17.8096 110.948 17.9367L110.534 20.6959C110.517 20.8115 110.46 20.9172 110.371 20.9936C110.283 21.07 110.169 21.1121 110.052 21.1123Z" fill="black"/>
<path d="M95.3042 7.89466C94.601 8.32247 94.0796 8.99385 93.8391 9.78097C93.5473 10.7711 93.5803 12.0128 93.9612 13.4437C94.5717 15.7732 97.0061 17.5105 99.4016 17.2456C101.277 17.0393 102.908 15.7366 103.88 14.1201C104.368 13.3106 104.715 12.3986 104.742 11.4548C104.799 9.38539 103.197 7.48322 101.223 6.86178C99.249 6.24033 97.033 6.75922 95.3054 7.90077L95.3042 7.89466Z" fill="#AEFF1C"/>
<path d="M97.1282 14.5585C97.0257 14.5584 96.9256 14.5259 96.8425 14.4656C96.7595 14.4052 96.6972 14.3202 96.6655 14.2225C96.6325 14.1248 96.6325 14.0195 96.6643 13.9216C96.6948 13.8236 96.7558 13.7381 96.8389 13.677C98.3198 12.588 99.6201 11.273 100.691 9.77991C100.767 9.67479 100.881 9.60422 101.009 9.58346C101.138 9.5627 101.268 9.59359 101.373 9.66941C101.478 9.74523 101.549 9.85963 101.57 9.98746C101.591 10.1153 101.559 10.2462 101.483 10.3513C100.351 11.9293 98.9791 13.3191 97.4139 14.4694C97.3309 14.5283 97.2308 14.5595 97.1282 14.5585Z" fill="black"/>
<path d="M101.069 14.2437C100.949 14.2447 100.832 14.2012 100.742 14.1216L97.1877 10.907C97.1401 10.864 97.1022 10.812 97.0741 10.754C97.0473 10.696 97.0314 10.6333 97.0277 10.5692C97.0253 10.5051 97.0338 10.4411 97.0558 10.3807C97.0778 10.3202 97.1108 10.2647 97.1535 10.2172C97.1975 10.1697 97.2487 10.1311 97.3073 10.1036C97.3647 10.0762 97.4282 10.0604 97.4917 10.0572C97.5552 10.0541 97.6199 10.0636 97.6797 10.0851C97.7408 10.1067 97.7957 10.1399 97.8433 10.183L101.397 13.3976C101.473 13.4636 101.526 13.5507 101.549 13.6476C101.573 13.7444 101.566 13.8461 101.53 13.9391C101.495 14.0321 101.432 14.112 101.349 14.168C101.267 14.224 101.169 14.2534 101.069 14.2523V14.2437Z" fill="black"/>
<path d="M78.3918 123.955C76.4042 123.955 74.4141 123.874 72.4216 123.711C65.8615 123.187 59.4019 121.782 53.2167 119.534C46.9131 117.237 42.5191 114.538 39.3886 111.045C36.6367 107.974 34.5343 103.854 32.9606 98.4518C31.2028 92.4242 30.3962 86.1597 30.57 79.8842C30.5736 79.7547 30.6284 79.6319 30.7225 79.5429C30.8166 79.4537 30.9423 79.4057 31.0718 79.4093C31.2014 79.4128 31.3241 79.4676 31.4132 79.5618C31.5023 79.6559 31.5503 79.7815 31.5467 79.9111C31.3759 86.0852 32.1693 92.2484 33.8982 98.1783C35.4305 103.438 37.4645 107.433 40.1163 110.387C43.1344 113.756 47.4039 116.37 53.5463 118.61C65.8048 123.079 79.0441 124.148 91.8605 121.704C99.6743 120.216 105.455 117.616 109.551 113.76C114.965 108.662 117.522 101.362 119.476 94.2336C119.558 93.9467 119.636 93.6622 119.711 93.3789C120.42 90.7723 121.151 88.0765 122.397 85.6139C123.516 83.4053 125.547 80.4861 128.86 79.0992C128.98 79.0492 129.114 79.049 129.235 79.0983C129.355 79.1476 129.45 79.2426 129.5 79.3623C129.55 79.4819 129.55 79.6165 129.5 79.7364C129.451 79.8561 129.356 79.9515 129.236 80.0014C126.197 81.2687 124.313 83.9926 123.268 86.0547C122.065 88.4294 121.345 91.0751 120.65 93.6353L120.415 94.4985C118.43 101.764 115.815 109.212 110.225 114.476C105.99 118.465 100.044 121.145 92.0485 122.67C87.547 123.527 82.9745 123.957 78.3918 123.955Z" fill="black"/>
<path d="M76.5893 123.628C76.6674 124.863 76.8591 126.199 77.9323 127.094C78.8431 127.851 80.2141 128.133 81.5254 128.257C83.5657 128.447 85.6236 128.334 87.6296 127.92C88.3621 127.767 89.0947 127.568 89.6856 127.198C90.9272 126.425 91.3106 125.086 91.5231 123.849C92.1079 120.454 92.0187 116.977 91.2593 113.616C91.1177 112.986 90.9431 112.338 90.4804 111.813C89.9273 111.183 89.0263 110.803 88.1192 110.53C85.2525 109.668 80.7098 109.362 78.2961 111.216C77.5416 111.798 77.3365 112.611 77.1973 113.404C76.9331 114.874 76.7444 116.358 76.632 117.847C76.4822 119.771 76.4679 121.703 76.5893 123.628Z" fill="black"/>
<path d="M83.4589 128.836C82.8003 128.836 82.1403 128.805 81.4785 128.743C79.6899 128.576 78.4641 128.172 77.6205 127.471C76.4325 126.486 76.1859 125.057 76.0968 123.66C75.9722 121.712 75.9845 119.757 76.1334 117.811C76.2477 116.305 76.4389 114.805 76.706 113.318C76.8574 112.476 77.0955 111.52 77.9916 110.83C80.4676 108.927 85.0469 109.099 88.2469 110.063C89.4825 110.429 90.3041 110.889 90.8352 111.492C91.3663 112.095 91.5678 112.824 91.724 113.509C92.4993 116.931 92.5909 120.474 91.9927 123.932C91.7631 125.26 91.3395 126.74 89.9318 127.614C89.2456 128.041 88.4264 128.25 87.717 128.398C86.3166 128.689 84.8896 128.836 83.4589 128.836ZM77.0711 123.597C77.1407 124.696 77.2957 125.933 78.2444 126.72C78.9195 127.28 80.0086 127.625 81.5701 127.771C83.5598 127.954 85.5658 127.843 87.5229 127.442C88.1492 127.311 88.8659 127.13 89.4214 126.785C90.4983 126.113 90.834 124.938 91.0354 123.767C91.6129 120.435 91.525 117.021 90.7766 113.722C90.6448 113.139 90.4946 112.577 90.1076 112.135C89.7022 111.675 89.0246 111.313 87.9722 110.997C84.902 110.074 80.6923 109.985 78.5862 111.608C77.966 112.085 77.7975 112.772 77.6669 113.494C77.4061 114.948 77.2195 116.416 77.1077 117.889C76.9624 119.79 76.9502 121.698 77.0711 123.601V123.597Z" fill="black"/>
<path d="M80.4535 127.268C80.3403 127.268 80.2308 127.229 80.1435 127.157C80.0562 127.085 79.9966 126.985 79.9749 126.874C79.1117 122.5 79.0629 118.005 79.8308 113.613C79.8406 113.549 79.8631 113.488 79.897 113.431C79.931 113.376 79.9755 113.329 80.0284 113.29C80.0811 113.252 80.141 113.225 80.2042 113.21C80.2676 113.196 80.3332 113.195 80.3972 113.206C80.4613 113.217 80.5225 113.241 80.5772 113.275C80.6319 113.311 80.6791 113.357 80.716 113.409C80.7527 113.463 80.7786 113.524 80.7918 113.588C80.805 113.651 80.8054 113.717 80.7929 113.781C80.0441 118.054 80.09 122.428 80.9284 126.686C80.9409 126.749 80.9408 126.814 80.9282 126.876C80.9156 126.94 80.8907 126.999 80.8549 127.052C80.8193 127.106 80.7734 127.151 80.72 127.186C80.6667 127.223 80.6067 127.247 80.5439 127.259C80.5141 127.266 80.4838 127.268 80.4535 127.268Z" fill="white"/>
<path d="M83.6046 125.572C83.4806 125.572 83.3612 125.525 83.2704 125.441C83.1797 125.356 83.1246 125.24 83.1162 125.116C82.8907 121.691 82.874 118.255 83.0662 114.827C83.0697 114.762 83.086 114.7 83.1138 114.642C83.1418 114.584 83.1807 114.532 83.2286 114.49C83.2766 114.447 83.3324 114.414 83.393 114.392C83.4536 114.371 83.5179 114.363 83.582 114.365C83.6461 114.369 83.7089 114.386 83.7667 114.414C83.8246 114.441 83.8765 114.48 83.9192 114.529C83.9621 114.576 83.9951 114.633 84.0162 114.692C84.0374 114.753 84.0465 114.817 84.0429 114.882C83.8528 118.27 83.8692 121.666 84.0918 125.052C84.1001 125.181 84.0568 125.308 83.9714 125.406C83.886 125.502 83.7655 125.562 83.6364 125.571L83.6046 125.572Z" fill="white"/>
<path d="M86.7921 126.853C86.6627 126.853 86.5382 126.802 86.4466 126.71C86.355 126.619 86.3037 126.494 86.3037 126.365L86.1719 112.515C86.1707 112.385 86.2207 112.261 86.3123 112.168C86.4026 112.075 86.526 112.023 86.6554 112.022C86.7848 112.02 86.9105 112.07 87.0021 112.161C87.0949 112.252 87.1474 112.376 87.1486 112.505L87.2805 126.361C87.2805 126.491 87.2292 126.615 87.1376 126.707C87.0461 126.798 86.9215 126.849 86.7921 126.849V126.853Z" fill="white"/>
<path d="M89.3469 123.017C89.2224 123.017 89.1027 122.969 89.0124 122.884C88.9208 122.799 88.8659 122.682 88.8586 122.558L88.4618 115.736C88.4581 115.672 88.4666 115.608 88.4886 115.547C88.5094 115.486 88.5423 115.431 88.5851 115.382C88.6278 115.335 88.6791 115.296 88.7365 115.268C88.7951 115.24 88.8573 115.224 88.922 115.22C88.9855 115.215 89.0502 115.225 89.1113 115.246C89.1711 115.266 89.2273 115.299 89.2761 115.342C89.3237 115.385 89.3628 115.436 89.3909 115.495C89.4189 115.552 89.4348 115.614 89.4385 115.679L89.8353 122.5C89.8389 122.564 89.8304 122.628 89.8096 122.69C89.7889 122.749 89.7559 122.805 89.7132 122.853C89.6705 122.902 89.6192 122.941 89.5606 122.969C89.5032 122.997 89.4409 123.013 89.3762 123.017H89.3469Z" fill="white"/>
<path d="M116.416 167.455C116.376 167.455 116.334 167.452 116.294 167.447C115.958 167.4 115.693 167.364 114.505 163.662C113.88 161.709 113.268 159.535 112.984 158.242L112.316 155.24C112.288 155.113 112.312 154.981 112.382 154.871C112.452 154.763 112.563 154.686 112.688 154.658C112.815 154.63 112.947 154.654 113.057 154.724C113.166 154.793 113.243 154.903 113.271 155.03L113.933 158.035C114.491 160.567 116.04 165.482 116.569 166.459C117.117 166.322 118.485 165.515 119.034 165.193C119.356 165.003 119.611 164.852 119.776 164.769C125.636 161.818 132.298 160.921 138.74 160.053C145.427 159.152 152.336 158.222 158.217 154.964L152.501 142.176C152.424 142.004 152.307 141.743 152.167 141.675C152.026 141.606 151.756 141.675 151.576 141.712C149.223 142.261 147.791 142.676 146.649 143.009C145.635 143.327 144.602 143.584 143.557 143.782L143.332 143.821C140.434 144.336 136.825 144.978 132.82 145.307C132.691 145.318 132.562 145.276 132.464 145.192C132.365 145.108 132.302 144.988 132.293 144.858C132.282 144.728 132.323 144.6 132.407 144.501C132.492 144.402 132.611 144.341 132.741 144.33C136.699 144.007 140.282 143.369 143.161 142.858L143.386 142.817C144.397 142.627 145.395 142.377 146.377 142.069C147.534 141.732 148.976 141.313 151.353 140.759C151.67 140.686 152.146 140.575 152.596 140.794C153.047 141.014 153.258 141.474 153.392 141.771L159.291 154.957C159.341 155.067 159.347 155.193 159.31 155.307C159.272 155.422 159.194 155.519 159.089 155.58C152.959 159.107 145.797 160.073 138.871 161.007C132.507 161.861 125.929 162.75 120.215 165.628C120.079 165.696 119.825 165.846 119.529 166.02C117.952 166.961 117.004 167.455 116.416 167.455Z" fill="black"/>
<path d="M156.141 144.069C156.05 144.069 155.959 144.042 155.881 143.993C155.803 143.944 155.741 143.873 155.702 143.79C155.662 143.707 155.647 143.615 155.658 143.523C155.669 143.431 155.705 143.345 155.763 143.273C157.333 141.336 158.384 140.213 164.986 133.182C161.517 129.649 158.521 125.679 156.073 121.375C153.753 125.241 149.968 128.611 145.058 131.156C140.408 133.567 135.32 135.026 130.407 136.436C130.019 136.547 129.632 136.657 129.244 136.765C128.48 136.981 127.691 137.205 126.924 137.434C126.705 137.5 126.642 137.569 126.636 137.583C126.581 137.74 126.958 138.293 127.124 138.528C127.201 138.642 127.278 138.754 127.345 138.86C128.566 140.781 129.164 141.649 129.457 142.035C129.535 142.139 129.568 142.269 129.55 142.397C129.532 142.526 129.462 142.64 129.358 142.718C129.255 142.797 129.125 142.83 128.997 142.811C128.867 142.792 128.753 142.723 128.675 142.62C128.372 142.215 127.753 141.325 126.52 139.378C126.457 139.28 126.388 139.178 126.317 139.074C125.934 138.511 125.499 137.875 125.72 137.252C125.842 136.896 126.159 136.642 126.649 136.494C127.427 136.262 128.219 136.038 128.986 135.822L130.147 135.492C135.02 134.094 140.06 132.65 144.622 130.283C149.678 127.663 153.496 124.156 155.662 120.143C155.703 120.066 155.765 120.001 155.841 119.956C155.917 119.911 156.002 119.886 156.09 119.886C156.178 119.886 156.265 119.909 156.339 119.955C156.415 120 156.477 120.063 156.519 120.14C159.07 124.796 162.268 129.065 166.017 132.823C166.108 132.912 166.159 133.034 166.161 133.161C166.163 133.288 166.115 133.41 166.028 133.503C159.158 140.819 158.102 141.943 156.528 143.881C156.483 143.939 156.425 143.987 156.357 144.02C156.29 144.053 156.216 144.069 156.141 144.069Z" fill="black"/>
<path d="M4.81763 91.246C4.70921 91.246 4.60385 91.2105 4.51802 91.1434C4.43231 91.0775 4.37102 90.9847 4.34392 90.8797C3.15719 86.1926 4.74437 81.5141 6.28394 76.9894C6.97741 74.9468 7.69409 72.8383 8.14216 70.7628C9.11962 66.2273 8.86665 61.513 7.40962 57.1081C7.3758 57.007 7.37592 56.8976 7.4101 56.7967C7.44429 56.6957 7.51059 56.6086 7.59898 56.5488C7.68725 56.489 7.79262 56.4598 7.89908 56.4656C8.00554 56.4713 8.10724 56.5117 8.18856 56.5807C8.34605 56.6405 8.77704 56.7406 8.94796 56.7809C9.11889 56.8212 9.19215 56.8371 9.24709 56.8542C12.7902 57.9903 16.138 59.6629 19.1743 61.8135C22.2257 63.9663 24.9391 66.562 27.225 69.515L27.4301 69.7763C28.6583 71.3366 31.9206 75.4828 31.5189 80.2761C31.5135 80.3402 31.4956 80.4027 31.466 80.4598C31.4365 80.5171 31.3961 80.5679 31.3469 80.6094C31.2978 80.651 31.2409 80.6824 31.1796 80.7021C31.1183 80.7216 31.0537 80.7289 30.9896 80.7236C30.9254 80.7182 30.863 80.7002 30.8059 80.6707C30.7486 80.6413 30.6978 80.6007 30.6562 80.5517C30.6147 80.5024 30.5832 80.4456 30.5637 80.3843C30.5441 80.323 30.5368 80.2584 30.5422 80.1943C30.9085 75.7868 27.822 71.8604 26.6585 70.3818C26.5816 70.2842 26.5107 70.195 26.4497 70.1157C24.2229 67.2396 21.5799 64.7115 18.6078 62.6144C15.6531 60.5213 12.3948 58.8936 8.94674 57.7882C8.91133 57.7772 8.82465 57.7589 8.72454 57.7344L8.61587 57.7088C9.87475 62.0214 10.0384 66.5798 9.09203 70.9715C8.63297 73.1032 7.90653 75.2447 7.20328 77.3105C5.71377 81.6972 4.3024 85.8569 5.15216 90.0544C7.26433 88.969 9.14086 87.3977 10.9612 85.8752C12.0601 84.9522 13.2041 83.9974 14.3957 83.1489C17.111 81.2138 20.1877 79.021 24.1336 80.2089C24.2577 80.2463 24.3617 80.3315 24.423 80.4457C24.4842 80.5597 24.4976 80.6935 24.4602 80.8176C24.4227 80.9416 24.3376 81.0456 24.2235 81.1069C24.1093 81.1682 23.9756 81.1815 23.8516 81.1442C20.6211 80.1674 18.023 81.7632 14.9622 83.9437C13.8011 84.7715 12.6766 85.7128 11.5876 86.6236C9.56452 88.317 7.47188 90.069 5.01786 91.2069C4.95461 91.2337 4.88637 91.2472 4.81763 91.246Z" fill="black"/>
<path d="M133.817 85.4674C133.726 85.4674 133.635 85.4406 133.557 85.3905C133.479 85.3417 133.418 85.2709 133.378 85.1878C133.339 85.1036 133.324 85.0108 133.335 84.9196C133.346 84.828 133.383 84.7416 133.441 84.6702C137.248 80.0307 142.145 76.0811 147.604 73.2351C152.73 70.558 158.315 68.8703 164.065 68.2599C157.387 61.1579 153.241 51.6678 152.567 41.9432L152.309 42.1483C149.63 44.2848 147.144 46.6501 144.874 49.2174C140.326 54.3633 136.675 60.2371 134.074 66.5934C132.731 69.8776 132.151 71.9239 132.069 72.2926C132.04 72.4176 131.963 72.5259 131.854 72.5943C131.745 72.6625 131.614 72.6854 131.488 72.6575C131.363 72.6298 131.253 72.5537 131.184 72.4459C131.114 72.338 131.09 72.2071 131.115 72.0814C131.22 71.6077 131.824 69.5175 133.17 66.221C135.813 59.763 139.523 53.7951 144.143 48.5667C146.449 45.9576 148.979 43.5535 151.7 41.3816C152.032 41.1179 152.37 40.8542 152.706 40.599C152.777 40.5453 152.861 40.5121 152.95 40.5027C153.038 40.4934 153.127 40.5083 153.208 40.546C153.288 40.5837 153.358 40.6427 153.407 40.7166C153.457 40.7905 153.485 40.8764 153.489 40.9653C153.959 51.1159 158.326 61.0822 165.471 68.3136C165.536 68.3798 165.582 68.4633 165.601 68.5544C165.621 68.6454 165.613 68.7401 165.582 68.8273C165.549 68.9146 165.493 68.9906 165.418 69.0468C165.344 69.1028 165.254 69.1365 165.162 69.1439C153.319 70.0754 141.741 76.1116 134.198 85.2928C134.152 85.3478 134.093 85.3929 134.027 85.4235C133.961 85.4528 133.891 85.4686 133.817 85.4674Z" fill="black"/>
</svg>
