<svg width="44" height="44" viewBox="0 0 44 44" fill="none" xmlns="http://www.w3.org/2000/svg">
<path d="M42.8346 22.0003C42.8346 33.5063 33.5072 42.8337 22.0013 42.8337C10.4954 42.8337 1.16797 33.5063 1.16797 22.0003C1.16797 10.4944 10.4954 1.16699 22.0013 1.16699C33.5072 1.16699 42.8346 10.4944 42.8346 22.0003Z" fill="#104042"/>
<path d="M30.3346 22.0003C30.3346 33.5063 26.6037 42.8337 22.0013 42.8337C17.3989 42.8337 13.668 33.5063 13.668 22.0003C13.668 10.4944 17.3989 1.16699 22.0013 1.16699C26.6037 1.16699 30.3346 10.4944 30.3346 22.0003Z" fill="#104042"/>
<path d="M22.0013 28.2503C10.4954 28.2503 1.16797 25.4521 1.16797 22.0003C1.16797 18.5485 10.4954 15.7503 22.0013 15.7503C33.5072 15.7503 42.8346 18.5485 42.8346 22.0003C42.8346 25.4521 33.5072 28.2503 22.0013 28.2503Z" fill="#104042"/>
<path d="M42.8346 22.0003C42.8346 33.5063 33.5072 42.8337 22.0013 42.8337M42.8346 22.0003C42.8346 10.4944 33.5072 1.16699 22.0013 1.16699M42.8346 22.0003C42.8346 18.5485 33.5072 15.7503 22.0013 15.7503C10.4954 15.7503 1.16797 18.5485 1.16797 22.0003M42.8346 22.0003C42.8346 25.4521 33.5072 28.2503 22.0013 28.2503C10.4954 28.2503 1.16797 25.4521 1.16797 22.0003M22.0013 42.8337C10.4954 42.8337 1.16797 33.5063 1.16797 22.0003M22.0013 42.8337C26.6037 42.8337 30.3346 33.5063 30.3346 22.0003C30.3346 10.4944 26.6037 1.16699 22.0013 1.16699M22.0013 42.8337C17.3989 42.8337 13.668 33.5063 13.668 22.0003C13.668 10.4944 17.3989 1.16699 22.0013 1.16699M1.16797 22.0003C1.16797 10.4944 10.4954 1.16699 22.0013 1.16699" stroke="white" stroke-width="1.5"/>
</svg>
