<svg width="60" height="60" viewBox="0 0 60 60" fill="none" xmlns="http://www.w3.org/2000/svg">
<path d="M60 30C60 46.5685 46.5685 60 30 60C13.4315 60 0 46.5685 0 30C0 13.4315 13.4315 0 30 0C46.5685 0 60 13.4315 60 30Z" fill="#AEFF1C"/>
<path fill-rule="evenodd" clip-rule="evenodd" d="M30 11.25C31.2426 11.25 32.25 12.2574 32.25 13.5V16.0605C35.7128 17.0399 38.25 20.2237 38.25 24C38.25 25.2426 37.2426 26.25 36 26.25C34.7574 26.25 33.75 25.2426 33.75 24C33.75 21.9289 32.0711 20.25 30 20.25C27.9289 20.25 26.25 21.9289 26.25 24C26.25 26.0711 27.9289 27.75 30 27.75C34.5563 27.75 38.25 31.4437 38.25 36C38.25 39.7763 35.7128 42.9601 32.25 43.9394V46.5C32.25 47.7426 31.2426 48.75 30 48.75C28.7574 48.75 27.75 47.7426 27.75 46.5V43.9394C24.2872 42.9601 21.75 39.7763 21.75 36C21.75 34.7574 22.7574 33.75 24 33.75C25.2426 33.75 26.25 34.7574 26.25 36C26.25 38.0711 27.9289 39.75 30 39.75C32.0711 39.75 33.75 38.0711 33.75 36C33.75 33.9289 32.0711 32.25 30 32.25C25.4437 32.25 21.75 28.5563 21.75 24C21.75 20.2237 24.2872 17.0399 27.75 16.0605V13.5C27.75 12.2574 28.7574 11.25 30 11.25Z" fill="#175557"/>
</svg>
