<svg width="57" height="55" viewBox="0 0 57 55" fill="none" xmlns="http://www.w3.org/2000/svg">
<path fill-rule="evenodd" clip-rule="evenodd" d="M46.4389 0.00012207C45.3552 0.00012207 44.4767 0.878627 44.4767 1.96232C44.4767 3.04601 45.3552 3.92451 46.4389 3.92451H49.3495C39.5531 11.7371 32.0985 16.6846 25.0108 19.972C17.6919 23.3665 10.671 25.034 1.7137 26.1786C0.638752 26.3159 -0.121318 27.2987 0.0160389 28.3736C0.153396 29.4486 1.13617 30.2087 2.21112 30.0713C11.4162 28.8951 18.8612 27.1501 26.662 23.5321C34.2893 19.9944 42.1665 14.7077 52.3254 6.56985V9.8111C52.3254 10.8948 53.204 11.7733 54.2876 11.7733C55.3713 11.7733 56.2498 10.8948 56.2498 9.8111V4.57858C56.2498 2.04997 54.2 0.00012207 51.6714 0.00012207H46.4389ZM54.2852 21.6593C54.2852 19.4502 52.4943 17.6593 50.2852 17.6593H47.8201C45.611 17.6593 43.8201 19.4502 43.8201 21.6593V50.287C43.8201 52.4961 45.611 54.287 47.8201 54.287H50.2852C52.4943 54.287 54.2852 52.4961 54.2852 50.287V21.6593ZM12.4297 42.59C12.4297 40.3808 10.6388 38.59 8.42969 38.59H5.96464C3.7555 38.59 1.96464 40.3808 1.96464 42.59L1.96464 50.2875C1.96464 52.4967 3.7555 54.2875 5.96464 54.2875H8.42969C10.6388 54.2875 12.4297 52.4967 12.4297 50.2875L12.4297 42.59ZM29.3516 28.1251C31.5607 28.1251 33.3516 29.916 33.3516 32.1251V50.2877C33.3516 52.4969 31.5607 54.2877 29.3516 54.2877H26.8865C24.6774 54.2877 22.8865 52.4969 22.8865 50.2877L22.8865 32.1251C22.8865 29.916 24.6774 28.1251 26.8865 28.1251H29.3516Z" fill="black"/>
</svg>
