<svg width="49" height="48" viewBox="0 0 49 48" fill="none" xmlns="http://www.w3.org/2000/svg">
<path fill-rule="evenodd" clip-rule="evenodd" d="M39.8126 0.855469C38.8837 0.855469 38.1307 1.60847 38.1307 2.53735C38.1307 3.46623 38.8837 4.21923 39.8126 4.21923H42.3074C33.9104 10.9157 27.5209 15.1564 21.4456 17.9742C15.1723 20.8838 9.15438 22.3131 1.4767 23.2941C0.555314 23.4119 -0.0961746 24.2542 0.0215601 25.1756C0.139295 26.097 0.981669 26.7485 1.90306 26.6308C9.79316 25.6226 16.1746 24.1269 22.8609 21.0257C29.3986 17.9935 36.1506 13.462 44.8582 6.48666V9.26488C44.8582 10.1938 45.6112 10.9468 46.5401 10.9468C47.469 10.9468 48.222 10.1938 48.222 9.26488V4.77986C48.222 2.61248 46.465 0.855469 44.2976 0.855469H39.8126ZM46.5391 19.9922C46.5391 17.783 44.7482 15.9922 42.5391 15.9922H41.569C39.3599 15.9922 37.569 17.783 37.569 19.9922V43.3873C37.569 45.5965 39.3599 47.3873 41.569 47.3873H42.5391C44.7482 47.3873 46.5391 45.5965 46.5391 43.3873V19.9922ZM10.6641 37.9326C10.6641 35.7235 8.8732 33.9326 6.66406 33.9326H5.69402C3.48488 33.9326 1.69402 35.7235 1.69402 37.9326L1.69402 43.3877C1.69402 45.5968 3.48488 47.3877 5.69402 47.3877H6.66406C8.8732 47.3877 10.6641 45.5968 10.6641 43.3877V37.9326ZM24.5977 24.9619C26.8068 24.9619 28.5977 26.7528 28.5977 28.9619V43.387C28.5977 45.5962 26.8068 47.387 24.5977 47.387H23.6276C21.4185 47.387 19.6276 45.5962 19.6276 43.387V28.9619C19.6276 26.7528 21.4185 24.9619 23.6276 24.9619H24.5977Z" fill="#AEFF1C"/>
</svg>
