<svg width="82" height="16" viewBox="0 0 82 16" fill="none" xmlns="http://www.w3.org/2000/svg">
<path d="M1 7C0.447715 7 4.82823e-08 7.44772 0 8C-4.82823e-08 8.55228 0.447715 9 1 9L1 7ZM81.7071 8.70711C82.0976 8.31659 82.0976 7.68342 81.7071 7.2929L75.3431 0.928939C74.9526 0.538414 74.3195 0.538414 73.9289 0.928939C73.5384 1.31946 73.5384 1.95263 73.9289 2.34315L79.5858 8.00001L73.9289 13.6569C73.5384 14.0474 73.5384 14.6805 73.9289 15.0711C74.3195 15.4616 74.9526 15.4616 75.3431 15.0711L81.7071 8.70711ZM1 9L3.85714 9L3.85714 7L1 7L1 9ZM9.57143 9L15.2857 9L15.2857 7L9.57143 7L9.57143 9ZM21 9L26.7143 9L26.7143 7L21 7L21 9ZM32.4286 9L38.1429 9L38.1429 7L32.4286 7L32.4286 9ZM43.8571 9L49.5714 9L49.5714 7L43.8571 7L43.8571 9ZM55.2857 9L61 9.00001L61 7.00001L55.2857 7L55.2857 9ZM66.7143 9.00001L72.4286 9.00001L72.4286 7.00001L66.7143 7.00001L66.7143 9.00001ZM78.1429 9.00001L81 9.00001L81 7.00001L78.1429 7.00001L78.1429 9.00001ZM1 7C0.447715 7 4.82823e-08 7.44772 0 8C-4.82823e-08 8.55228 0.447715 9 1 9L1 7ZM81.7071 8.70711C82.0976 8.31659 82.0976 7.68342 81.7071 7.2929L75.3431 0.928939C74.9526 0.538414 74.3195 0.538414 73.9289 0.928939C73.5384 1.31946 73.5384 1.95263 73.9289 2.34315L79.5858 8.00001L73.9289 13.6569C73.5384 14.0474 73.5384 14.6805 73.9289 15.0711C74.3195 15.4616 74.9526 15.4616 75.3431 15.0711L81.7071 8.70711ZM1 9L3.85714 9L3.85714 7L1 7L1 9ZM9.57143 9L15.2857 9L15.2857 7L9.57143 7L9.57143 9ZM21 9L26.7143 9L26.7143 7L21 7L21 9ZM32.4286 9L38.1429 9L38.1429 7L32.4286 7L32.4286 9ZM43.8571 9L49.5714 9L49.5714 7L43.8571 7L43.8571 9ZM55.2857 9L61 9.00001L61 7.00001L55.2857 7L55.2857 9ZM66.7143 9.00001L72.4286 9.00001L72.4286 7.00001L66.7143 7.00001L66.7143 9.00001ZM78.1429 9.00001L81 9.00001L81 7.00001L78.1429 7.00001L78.1429 9.00001Z" fill="#1E1E1E" fill-opacity="0.5"/>
</svg>
