<svg width="56" height="56" viewBox="0 0 56 56" fill="none" xmlns="http://www.w3.org/2000/svg">
<path fill-rule="evenodd" clip-rule="evenodd" d="M21.7764 24.8888C28.6492 24.8888 34.2207 19.3173 34.2207 12.4445C34.2207 5.57165 28.6492 0.00012207 21.7764 0.00012207C14.9036 0.00012207 9.33203 5.57165 9.33203 12.4445C9.33203 19.3173 14.9036 24.8888 21.7764 24.8888ZM21.7776 55.9994C33.8051 55.9994 43.5552 50.4279 43.5552 43.5551C43.5552 36.6822 33.8051 31.1107 21.7776 31.1107C9.75017 31.1107 0 36.6822 0 43.5551C0 50.4279 9.75017 55.9994 21.7776 55.9994ZM34.1016 24.3147C37.0655 21.238 38.8882 17.0542 38.8882 12.4447C38.8882 10.2526 38.476 8.15682 37.7249 6.23059C42.6975 6.43626 46.6657 10.5326 46.6657 15.5558C46.6657 20.7104 42.4871 24.889 37.3325 24.889C36.1967 24.889 35.1083 24.6861 34.1016 24.3147ZM48.2197 43.5542C48.2197 45.2305 47.8472 46.8505 47.1528 48.3814C52.4617 46.7358 55.9974 43.7959 55.9974 40.4431C55.9974 35.7572 49.0909 31.8778 40.0898 31.2111C45.1008 34.3248 48.2197 38.7038 48.2197 43.5542Z" fill="#AEFF1C"/>
</svg>
