<svg width="60" height="60" viewBox="0 0 60 60" fill="none" xmlns="http://www.w3.org/2000/svg">
<path d="M3.09879 24L56.9012 24C59.9615 24 61.1633 19.9457 58.617 18.2118L33.4315 1.06125C31.3535 -0.35375 28.6465 -0.353751 26.5685 1.06125L1.38305 18.2118C-1.16329 19.9457 0.0384654 24 3.09879 24Z" fill="#AEFF1C"/>
<path d="M10.5 28.5H19.5V43.5H10.5V28.5Z" fill="#AEFF1C"/>
<path d="M49.5 28.5H40.5V43.5H49.5V28.5Z" fill="#AEFF1C"/>
<path d="M25.5 28.5H34.5V43.5H25.5V28.5Z" fill="#AEFF1C"/>
<path d="M54.8292 49.6584C54.321 48.642 53.2822 48 52.1459 48L7.8541 48C6.71778 48 5.679 48.642 5.17082 49.6584L2.17082 55.6584C1.17347 57.6531 2.62396 60 4.8541 60H55.1459C57.376 60 58.8265 57.6531 57.8292 55.6584L54.8292 49.6584Z" fill="#AEFF1C"/>
</svg>
