<svg width="34" height="34" viewBox="0 0 34 34" fill="none" xmlns="http://www.w3.org/2000/svg">
<path fill-rule="evenodd" clip-rule="evenodd" d="M0 4C0 1.79086 1.79086 0 4 0H29.3333C31.5425 0 33.3333 1.79086 33.3333 4V29.3333C33.3333 31.5425 31.5425 33.3333 29.3333 33.3333H4C1.79086 33.3333 0 31.5425 0 29.3333V4ZM16.6654 15.6665C15.3767 15.6665 14.332 14.6218 14.332 13.3332C14.332 12.049 15.3695 11.0071 16.652 10.9999L16.668 11L16.6824 10.9999C17.9632 11.0091 18.9987 12.0502 18.9987 13.3332C18.9987 13.8855 19.4464 14.3332 19.9987 14.3332C20.551 14.3332 20.9987 13.8855 20.9987 13.3332C20.9987 11.285 19.5778 9.56879 17.668 9.11641V7.5C17.668 6.94772 17.2203 6.5 16.668 6.5C16.1157 6.5 15.668 6.94772 15.668 7.5V9.11518C13.7555 9.56567 12.332 11.2832 12.332 13.3332C12.332 15.7166 14.2563 17.6506 16.6361 17.6664C16.6458 17.6667 16.6556 17.6668 16.6654 17.6668C17.954 17.6668 18.9987 18.7115 18.9987 20.0002C18.9987 21.2888 17.954 22.3335 16.6654 22.3335C15.3767 22.3335 14.332 21.2888 14.332 20.0002C14.332 19.4479 13.8843 19.0002 13.332 19.0002C12.7797 19.0002 12.332 19.4479 12.332 20.0002C12.332 22.0501 13.7555 23.7677 15.668 24.2182V25.8335C15.668 26.3858 16.1157 26.8335 16.668 26.8335C17.2203 26.8335 17.668 26.3858 17.668 25.8335V24.2169C19.5778 23.7645 20.9987 22.0483 20.9987 20.0002C20.9987 17.6167 19.0744 15.6827 16.6947 15.6669L16.6814 15.6666L16.6654 15.6665Z" fill="#AEFF1C"/>
</svg>
