<svg width="54" height="60" viewBox="0 0 54 60" fill="none" xmlns="http://www.w3.org/2000/svg">
<path fill-rule="evenodd" clip-rule="evenodd" d="M6.99745 8.13207L22.1124 1.09258C25.2403 -0.364191 28.8108 -0.364194 31.9387 1.09258L46.9937 8.10416C51.3962 10.1545 54.286 14.7629 53.9775 19.801C52.7943 39.1258 47.5219 47.8618 33.2696 57.9967C29.5084 60.6714 24.5468 60.6649 20.7828 57.9945C6.57421 47.9144 1.10613 39.3002 0.0184954 19.7332C-0.25971 14.7282 2.62545 10.1683 6.99745 8.13207ZM37.6932 25.4817C38.5115 24.5465 38.4167 23.125 37.4815 22.3067C36.5464 21.4884 35.1249 21.5832 34.3066 22.5184L25.6969 32.3581C25.4326 32.6601 24.9773 32.7006 24.6639 32.4498L19.4055 28.2431C18.4351 27.4668 17.0192 27.6241 16.2429 28.5945C15.4667 29.5648 15.624 30.9807 16.5943 31.757L21.8528 35.9638C24.0467 37.7188 27.2334 37.4357 29.0835 35.3213L37.6932 25.4817Z" fill="#AEFF1C"/>
</svg>
