<svg width="30" height="30" viewBox="0 0 30 30" fill="none" xmlns="http://www.w3.org/2000/svg">
<path fill-rule="evenodd" clip-rule="evenodd" d="M4 0C1.79086 0 0 1.79086 0 4V26C0 28.2091 1.79086 30 4 30H26C28.2091 30 30 28.2091 30 26V4C30 1.79086 28.2091 0 26 0H4ZM15.7531 6C15.7531 5.58579 15.4173 5.25 15.0031 5.25C14.5889 5.25 14.2531 5.58579 14.2531 6V8.2912C12.5281 8.48189 10.999 9.32262 9.91616 10.563L7.38281 9.10039C7.02409 8.89328 6.5654 9.01619 6.35829 9.37491C6.15119 9.73363 6.27409 10.1923 6.63281 10.3994L9.05843 11.7999C8.54468 12.7522 8.25311 13.842 8.25311 15C8.25311 16.1579 8.54467 17.2478 9.05839 18.2001L6.63281 19.6005C6.27409 19.8076 6.15119 20.2663 6.35829 20.625C6.5654 20.9837 7.02409 21.1066 7.38281 20.8995L9.91611 19.4369C10.9989 20.6773 12.5281 21.5181 14.2531 21.7088V24C14.2531 24.4142 14.5889 24.75 15.0031 24.75C15.4173 24.75 15.7531 24.4142 15.7531 24V21.7088C17.4782 21.5181 19.0073 20.6774 20.0901 19.4369L22.6232 20.8994C22.9819 21.1065 23.4406 20.9836 23.6477 20.6249C23.8548 20.2662 23.7319 19.8075 23.3732 19.6004L20.9478 18.2001C21.4615 17.2478 21.7531 16.1579 21.7531 15C21.7531 13.842 21.4615 12.7522 20.9478 11.7998L23.3732 10.3995C23.7319 10.1924 23.8548 9.73372 23.6477 9.375C23.4406 9.01628 22.9819 8.89337 22.6232 9.10048L20.09 10.563C19.0072 9.32262 17.4781 8.48189 15.7531 8.2912V6ZM9.75311 15C9.75311 12.1005 12.1036 9.75 15.0031 9.75C17.9026 9.75 20.2531 12.1005 20.2531 15C20.2531 17.8995 17.9026 20.25 15.0031 20.25C12.1036 20.25 9.75311 17.8995 9.75311 15Z" fill="#104042"/>
</svg>
