<svg width="31" height="39" viewBox="0 0 31 39" fill="none" xmlns="http://www.w3.org/2000/svg">
<path fill-rule="evenodd" clip-rule="evenodd" d="M22.118 6.28074H8.19595C5.94947 3.24631 8.97606 -1.00053 12.7356 0.212285L14.5286 0.79068C14.9368 0.922367 15.3771 0.922368 15.7853 0.79068L17.5783 0.212286C21.3379 -1.00053 24.3645 3.24631 22.118 6.28074ZM8.40499 9.17955H21.9089C24.4585 10.5912 26.4503 12.9482 27.3624 15.8668L29.778 23.597C32.1113 31.0635 26.5332 38.6507 18.7106 38.6507H11.6033C3.7807 38.6507 -1.79739 31.0635 0.535899 23.597L2.95157 15.8668C3.86362 12.9482 5.85544 10.5912 8.40499 9.17955ZM16.158 14.4941C16.158 13.9419 15.7103 13.4941 15.158 13.4941C14.6058 13.4941 14.158 13.9419 14.158 14.4941V16.4875C12.0289 16.8937 10.293 18.5708 10.293 20.7749C10.293 23.3162 12.6007 25.1568 15.158 25.1568C16.87 25.1568 18.0231 26.3445 18.0231 27.5388C18.0231 28.733 16.87 29.9207 15.158 29.9207C13.4461 29.9207 12.293 28.733 12.293 27.5388C12.293 26.9865 11.8453 26.5388 11.293 26.5388C10.7407 26.5388 10.293 26.9865 10.293 27.5388C10.293 29.7429 12.0289 31.4199 14.158 31.8261V33.8195C14.158 34.3718 14.6058 34.8195 15.158 34.8195C15.7103 34.8195 16.158 34.3718 16.158 33.8195V31.8261C18.2872 31.4199 20.0231 29.7429 20.0231 27.5388C20.0231 24.9974 17.7153 23.1568 15.158 23.1568C13.4461 23.1568 12.293 21.9691 12.293 20.7749C12.293 19.5806 13.4461 18.3929 15.158 18.3929C16.87 18.3929 18.0231 19.5806 18.0231 20.7749C18.0231 21.3272 18.4708 21.7749 19.0231 21.7749C19.5754 21.7749 20.0231 21.3272 20.0231 20.7749C20.0231 18.5708 18.2872 16.8937 16.158 16.4875V14.4941Z" fill="#AEFF1C"/>
</svg>
