<svg width="60" height="60" viewBox="0 0 60 60" fill="none" xmlns="http://www.w3.org/2000/svg">
<path fill-rule="evenodd" clip-rule="evenodd" d="M30 60C46.5685 60 60 46.5685 60 30C60 13.4315 46.5685 0 30 0C13.4315 0 0 13.4315 0 30C0 46.5685 13.4315 60 30 60ZM37.4483 11.1703C36.9898 10.0154 35.6818 9.45084 34.5268 9.90941C33.3719 10.368 32.8074 11.676 33.2659 12.8309L33.7872 14.1437C32.5668 13.8862 31.2992 13.7506 30 13.7506C20.6218 13.7506 12.75 20.8823 12.75 30.0006C12.75 31.4561 12.9537 32.8698 13.3363 34.2159C13.6761 35.4111 14.9205 36.1046 16.1158 35.7648C17.3111 35.4251 18.0046 34.1806 17.6648 32.9853C17.3944 32.034 17.25 31.0343 17.25 30.0006C17.25 23.6549 22.8096 18.2506 30 18.2506C32.442 18.2506 34.7113 18.8818 36.6374 19.9672C37.4681 20.4353 38.5036 20.329 39.2219 19.7019C39.9401 19.0747 40.1851 18.063 39.8332 17.1767L37.4483 11.1703ZM46.6637 25.7853C46.3239 24.5901 45.0795 23.8966 43.8842 24.2364C42.6889 24.5761 41.9954 25.8206 42.3352 27.0159C42.6056 27.9672 42.75 28.9669 42.75 30.0006C42.75 36.3463 37.1904 41.7506 30 41.7506C27.5579 41.7506 25.2887 41.1194 23.3626 40.0339C22.5319 39.5658 21.4963 39.6721 20.7781 40.2993C20.0598 40.9264 19.8149 41.9382 20.1668 42.8244L22.5517 48.8309C23.0102 49.9859 24.3182 50.5504 25.4732 50.0918C26.6281 49.6332 27.1926 48.3252 26.734 47.1703L26.2128 45.8575C27.4331 46.115 28.7008 46.2506 30 46.2506C39.3782 46.2506 47.25 39.1189 47.25 30.0006C47.25 28.5451 47.0463 27.1314 46.6637 25.7853Z" fill="#AEFF1C"/>
</svg>
