<svg width="168" height="168" viewBox="0 0 168 168" fill="none" xmlns="http://www.w3.org/2000/svg">
<g clip-path="url(#clip0_2_10592)">
<path d="M146.444 143.896C146.358 143.895 146.274 143.872 146.201 143.826C146.126 143.78 146.067 143.715 146.029 143.638C145.991 143.56 145.976 143.474 145.984 143.388C145.992 143.302 146.023 143.22 146.075 143.152C146.822 142.17 147.132 138.671 147.317 136.579C147.339 136.32 147.361 136.076 147.382 135.848C148.627 122.42 146.737 106.257 142.562 94.6683C141.594 91.9817 140.394 89.2801 138.186 87.7245C136.189 86.3169 133.662 85.999 131.036 85.7752C123.201 85.107 115.801 84.4761 107.759 84.9784C107.699 84.9821 107.638 84.9738 107.58 84.9541C107.523 84.9343 107.469 84.9033 107.423 84.8629C107.378 84.8225 107.339 84.7735 107.313 84.7186C107.286 84.6638 107.271 84.6043 107.266 84.5434C107.263 84.4823 107.271 84.4213 107.291 84.3636C107.31 84.3058 107.342 84.2524 107.382 84.2067C107.423 84.1609 107.472 84.1236 107.526 84.0968C107.581 84.0698 107.641 84.0541 107.701 84.0504C115.811 83.5423 123.245 84.1767 131.115 84.8483C133.765 85.0745 136.536 85.4283 138.721 86.9647C141.138 88.6676 142.416 91.5212 143.435 94.3516C147.652 106.055 149.563 122.376 148.307 135.929C148.286 136.161 148.264 136.393 148.242 136.657C147.97 139.744 147.655 142.606 146.815 143.71C146.773 143.766 146.717 143.814 146.652 143.847C146.588 143.879 146.516 143.895 146.444 143.896Z" fill="black"/>
<path d="M105.384 92.7102C106.646 108.289 109.908 128.75 109.616 142.303L95.4721 142.957C95.1902 142.971 100.344 89.8125 100.205 91.2347L102.942 91.0792C103.879 91.0792 105.198 90.3693 105.384 92.7102Z" fill="black"/>
<path d="M101.6 107.727C101.492 107.725 101.388 107.688 101.304 107.619C101.221 107.549 101.165 107.454 101.145 107.347C101.124 107.241 101.143 107.13 101.195 107.036C101.248 106.941 101.332 106.868 101.433 106.83L107.329 104.559C107.444 104.513 107.573 104.517 107.685 104.567C107.798 104.617 107.886 104.709 107.93 104.824C107.974 104.939 107.971 105.067 107.921 105.179C107.871 105.292 107.778 105.38 107.663 105.425L101.766 107.695C101.714 107.715 101.657 107.725 101.6 107.727Z" fill="black"/>
<path d="M101.302 111.006C101.195 111.006 101.09 110.969 101.008 110.899C100.924 110.831 100.869 110.735 100.848 110.629C100.828 110.522 100.845 110.413 100.898 110.318C100.95 110.224 101.033 110.151 101.133 110.111L107.155 107.76C107.212 107.738 107.273 107.728 107.333 107.729C107.395 107.731 107.454 107.744 107.51 107.769C107.566 107.793 107.616 107.829 107.658 107.873C107.701 107.917 107.734 107.969 107.756 108.025C107.778 108.082 107.789 108.143 107.787 108.204C107.786 108.265 107.773 108.325 107.749 108.381C107.723 108.437 107.688 108.487 107.644 108.529C107.6 108.571 107.548 108.604 107.491 108.626L101.471 110.975C101.417 110.997 101.36 111.007 101.302 111.006Z" fill="black"/>
<path d="M74.6924 46.7985C74.6181 48.4225 74.1831 50.5557 72.5638 50.6845C71.8608 50.7402 71.2147 50.3446 70.5628 50.0767C67.6314 48.8726 63.8603 50.5743 62.8233 53.5683C61.7862 56.5622 63.6991 60.2313 66.7464 61.0978C69.0548 61.7532 71.6787 60.9725 73.8375 62.0189C75.4696 62.81 76.4718 64.4792 77.2374 66.1229C78.6757 69.219 79.6003 72.5285 79.975 75.9215C84.1797 77.6499 88.8893 77.4875 93.4307 77.2972C100.159 77.0153 106.875 76.7346 113.594 76.3692C116.788 76.1952 120.061 75.9841 122.99 74.6907C125.919 73.3973 128.471 70.7815 128.769 67.5961C128.892 66.2877 128.634 64.9664 128.742 63.6521C128.85 62.3379 129.461 60.9308 130.691 60.4645C131.803 60.0434 133.027 60.5155 134.194 60.7463C138.048 61.505 142.479 58.8625 142.958 54.9661C143.437 51.0696 138.898 47.2903 135.373 49.0071C134.267 49.5454 133.354 50.4954 132.338 51.1705C132.157 51.2887 131.948 51.3567 131.733 51.3679C131.517 51.3789 131.302 51.3325 131.111 51.2334C130.918 51.1343 130.756 50.9862 130.64 50.804C130.524 50.6217 130.459 50.412 130.45 50.1961C130.208 44.3666 129.347 38.5792 127.879 32.9319C126.872 29.0563 125.211 24.8316 121.546 23.2261C119.922 22.5162 118.11 22.4257 116.342 22.3724C107.285 22.104 98.2191 22.5609 89.2338 23.7389C86.3906 24.1112 82.3237 24.0869 80.1243 26.2665C78.4925 27.8905 78.1422 30.5585 77.4868 32.6546C76.031 37.3074 74.9139 41.9103 74.6924 46.7985Z" fill="#AEFF1C"/>
<path d="M103.118 70.1281C101.67 70.1281 100.519 69.7975 99.554 69.5214C98.9543 69.3486 98.4358 69.2001 97.9892 69.1792C97.9289 69.1763 97.8685 69.1615 97.814 69.1355C97.7583 69.1095 97.7085 69.0728 97.6679 69.0277C97.6273 68.9826 97.5948 68.9298 97.5739 68.8724C97.5542 68.815 97.5449 68.7541 97.5472 68.6932C97.5507 68.6323 97.5658 68.5724 97.5913 68.5173C97.6168 68.4621 97.6539 68.4126 97.6992 68.3715C97.7444 68.3304 97.7966 68.2988 97.8546 68.2781C97.9115 68.2575 97.9729 68.2483 98.0333 68.2512C98.5877 68.2779 99.1538 68.4403 99.8104 68.6282C101.519 69.1189 103.861 69.7882 107.543 68.1584C107.655 68.1085 107.784 68.1055 107.899 68.1498C108.014 68.1942 108.106 68.2824 108.155 68.395C108.205 68.5077 108.209 68.6354 108.165 68.7502C108.119 68.8652 108.031 68.9576 107.919 69.0075C106.009 69.852 104.441 70.1281 103.118 70.1281Z" fill="white"/>
<path d="M87.9115 61.1371C87.6447 61.1371 87.3825 61.1302 87.1296 61.1209C83.3457 60.984 80.6997 59.8704 79.2675 57.8114C78.1585 56.2176 77.9219 54.1632 77.7317 52.5125C77.7108 52.3304 77.6806 52.1228 77.6493 51.9035C77.4706 50.6472 77.2259 48.927 77.9869 47.8772C78.6272 46.9932 79.8104 47.0176 80.6754 47.0362C80.8088 47.0362 80.9387 47.042 81.0593 47.0362L95.5524 46.9434C95.8099 46.9434 96.1985 46.9434 96.5326 47.1522C97.2205 47.5906 97.1404 48.5291 97.1126 48.8829C96.9223 51.0869 96.7263 53.3709 95.9131 55.5134C94.9851 57.9494 93.3263 59.7904 91.3474 60.5757C90.2106 61.0292 89.0111 61.1371 87.9115 61.1371ZM78.655 52.4058C78.8418 54.0298 79.0541 55.8777 80.0304 57.2778C81.2879 59.0839 83.6879 60.0618 87.1644 60.1906C88.3592 60.2346 89.7501 60.2114 91.004 59.7138C92.744 59.0248 94.2126 57.3741 95.0443 55.1898C95.8111 53.1679 96.0025 50.9523 96.1869 48.8098C96.2287 48.3249 96.1776 48.0326 96.0349 47.941C95.9317 47.876 95.7252 47.8783 95.5605 47.8783L81.0605 47.9711C80.9317 47.9711 80.7937 47.9711 80.651 47.9711C79.9194 47.9549 79.0889 47.9375 78.7339 48.4282C78.1933 49.174 78.4079 50.6797 78.5645 51.7794C78.5958 52.0056 78.626 52.219 78.6492 52.4139L78.655 52.4058Z" fill="black"/>
<path d="M98.3156 65.6664H98.3029C98.1799 65.6631 98.0639 65.6111 97.9792 65.522C97.8946 65.4328 97.8493 65.3137 97.8516 65.1908C97.876 64.2408 98.2588 63.3975 98.6288 62.582C98.8202 62.1803 98.9896 61.7683 99.1358 61.3478C99.58 59.9766 99.4838 58.4257 99.3956 56.9258C99.2796 55.006 99.1636 53.0224 100.121 51.2836C100.182 51.1784 100.282 51.1012 100.399 51.0686C100.516 51.0362 100.64 51.0509 100.747 51.1097C100.854 51.1685 100.933 51.2667 100.967 51.3831C101.002 51.4996 100.989 51.625 100.933 51.7325C100.102 53.2405 100.209 55.0002 100.322 56.869C100.418 58.4559 100.517 60.0961 100.019 61.6343C99.8631 62.0882 99.681 62.5328 99.4733 62.966C99.1253 63.7304 98.7982 64.4531 98.7773 65.214C98.775 65.3347 98.7251 65.4494 98.6381 65.5338C98.5523 65.6183 98.4363 65.6659 98.3156 65.6664Z" fill="white"/>
<path d="M103.143 89.8395C102.83 89.8372 102.517 89.8128 102.208 89.7641C101.827 89.7072 101.799 89.3326 101.787 89.1528C101.777 89.0368 101.769 88.8604 101.76 88.6308C101.746 88.241 101.731 87.6772 101.717 86.958C101.69 85.6536 101.672 84.0992 101.659 83.0703C101.652 82.5355 101.647 82.1423 101.645 82.017L101.559 78.3317C101.559 78.0997 101.531 77.8027 101.506 77.4861C101.432 76.5325 101.348 75.4514 101.592 74.7693C101.636 74.6572 101.722 74.5666 101.832 74.5167C101.942 74.4668 102.066 74.4616 102.18 74.5021C102.294 74.5427 102.386 74.6259 102.44 74.734C102.493 74.8421 102.502 74.9667 102.465 75.0814C102.288 75.5779 102.371 76.6393 102.432 77.4141C102.457 77.7436 102.482 78.0556 102.487 78.3108L102.572 81.995C102.572 82.1261 102.58 82.5181 102.587 83.0587C102.604 84.4379 102.646 87.8222 102.703 88.8906C104.021 89.0194 104.759 88.6366 105.076 87.6772C105.194 87.255 105.262 86.8212 105.281 86.3844C105.436 84.4716 105.469 82.6782 105.503 80.7781C105.516 80.0381 105.53 79.2701 105.552 78.4999C105.556 78.3768 105.608 78.2601 105.697 78.1756C105.741 78.1337 105.793 78.1009 105.85 78.0791C105.907 78.0574 105.968 78.047 106.029 78.0487C106.09 78.0503 106.151 78.064 106.206 78.0889C106.261 78.1137 106.312 78.1494 106.354 78.1936C106.395 78.2379 106.428 78.2899 106.45 78.3469C106.472 78.4039 106.482 78.4645 106.48 78.5254C106.458 79.2945 106.444 80.0578 106.431 80.7955C106.397 82.7095 106.363 84.518 106.199 86.4604C106.177 86.9708 106.094 87.4766 105.951 87.9684C105.546 89.2096 104.599 89.8395 103.143 89.8395Z" fill="black"/>
<path d="M121.726 145.198C123.568 145.191 125.521 145.154 127.082 144.169C128.643 143.184 129.54 140.882 128.417 139.413C127.294 137.944 125.103 138.15 123.297 138.44C115.168 139.747 103.283 140.753 102.484 139.444C101.982 138.622 102.089 129.871 102.089 125.509C102.089 121.032 102.18 114.407 102.361 108.68C102.761 96.0058 103.333 78.9347 103.876 67.9773C103.992 65.5703 104.903 60.5302 99.4229 60.2402C93.5475 59.9305 92.6345 59.8829 86.7522 59.789C63.2423 59.4152 39.7289 60.2832 16.3104 62.3896C14.749 62.5288 12.0508 62.7122 10.7748 63.6263C8.21588 65.4556 9.30976 69.2186 9.64848 72.3634C10.2807 78.2388 11.0498 84.099 11.9209 89.9436C12.7921 95.7877 13.7584 101.621 14.7966 107.436C15.8348 113.252 16.9414 119.064 18.0782 124.865C18.6496 127.777 19.2273 130.689 19.8112 133.6C20.375 136.421 20.7845 139.34 21.5512 142.111C21.9619 143.587 22.7112 144.935 24.2378 145.416C25.7644 145.897 27.4696 145.64 29.0216 145.578C34.6859 145.346 40.3896 145.502 46.0562 145.481L63.9817 145.414L81.7665 145.353L99.6908 145.286L117.542 145.22L121.726 145.198Z" fill="#DFD4D9"/>
<path d="M14.1699 132.843C15.3694 141.407 19.0883 145.738 25.3477 145.738C32.4364 145.738 35.6717 140.491 36.6101 129.894C36.7458 129.217 36.803 128.528 36.7806 127.839C36.7469 127.293 36.5553 126.768 36.2291 126.33C35.9028 125.89 35.456 125.556 34.9432 125.367C30.2498 123.636 19.6312 123.927 15.773 125.743C13.3347 126.533 13.7546 129.877 14.1699 132.843Z" fill="black"/>
<path d="M25.3456 146.202C18.8589 146.202 14.9439 141.729 13.7085 132.907C13.3152 130.097 12.7805 126.252 15.5993 125.31C19.6767 123.411 30.409 123.2 35.1023 124.932C35.7003 125.151 36.2212 125.541 36.6011 126.052C36.981 126.563 37.2036 127.174 37.2414 127.811C37.2656 128.53 37.2076 129.249 37.0685 129.956C36.0617 141.19 32.4483 146.202 25.3456 146.202ZM14.626 132.778C15.8034 141.186 19.3089 145.274 25.3444 145.274C28.6933 145.274 31.1641 144.049 32.8972 141.527C34.6035 139.043 35.6661 135.225 36.1452 129.854C36.1452 129.84 36.1452 129.827 36.151 129.814C36.2789 129.173 36.3341 128.519 36.3157 127.866C36.2884 127.41 36.1293 126.972 35.8576 126.606C35.5859 126.239 35.2135 125.96 34.7857 125.802C30.3405 124.163 19.7915 124.365 15.9739 126.162C15.9564 126.17 15.9381 126.177 15.9194 126.184C13.9579 126.817 14.1736 129.545 14.626 132.778Z" fill="black"/>
<path d="M25.2855 129.777C27.5 129.632 29.9023 130.153 31.8975 129.186C32.3059 128.989 33.7535 128.606 32.9914 127.661C32.8685 127.509 32.3708 127.148 31.9393 126.987C29.4546 126.059 26.8457 126.087 23.9353 126.194C22.8031 126.236 18.3325 127.381 17.3859 128.063C16.3269 128.826 18.9195 128.742 20.9135 129.394C22.3229 129.854 23.8483 129.872 25.2855 129.777Z" fill="#AEFF1C"/>
<path d="M26.5582 130.61C24.8564 130.61 22.9923 130.371 20.808 129.845C19.6121 129.558 16.8397 128.569 15.8479 127.586C15.7641 127.498 15.7177 127.382 15.7188 127.26C15.7197 127.139 15.768 127.023 15.8532 126.937C15.9384 126.851 16.0538 126.802 16.1748 126.8C16.2959 126.798 16.4128 126.843 16.501 126.927C17.2445 127.663 19.7165 128.629 21.025 128.943C26.8888 130.355 30.2168 129.653 34.6573 127.762C34.7135 127.736 34.7744 127.723 34.8363 127.72C34.8981 127.719 34.9596 127.73 35.0171 127.752C35.0748 127.775 35.1273 127.808 35.1716 127.851C35.216 127.894 35.2513 127.945 35.2756 128.002C35.2998 128.059 35.3123 128.12 35.3126 128.182C35.3128 128.245 35.3006 128.306 35.2768 128.363C35.253 128.42 35.2181 128.472 35.1741 128.515C35.1301 128.558 35.0778 128.593 35.0204 128.616C32.118 129.851 29.5974 130.61 26.5582 130.61Z" fill="white"/>
<path d="M23.304 116.285C23.2459 116.285 23.1884 116.273 23.1347 116.251C23.0203 116.206 22.9284 116.117 22.8792 116.004C22.8302 115.892 22.8277 115.764 22.8725 115.65C23.3806 114.361 22.5895 113.472 21.2555 112.127C20.9446 111.814 20.6244 111.49 20.3217 111.148C19.8437 110.608 19.3009 109.996 18.9726 109.257C18.2522 107.64 18.5909 105.568 19.9006 103.573C24.2923 96.8815 23.9664 94.7192 23.34 93.6752C23.2765 93.5696 23.2577 93.4432 23.2876 93.3237C23.3174 93.2042 23.3933 93.101 23.4989 93.0384C23.6044 92.9746 23.7308 92.956 23.8503 92.985C23.9696 93.0152 24.0723 93.0917 24.1357 93.1973C25.0057 94.6473 25.276 97.074 20.6766 104.083C20.1395 104.901 18.9819 107.006 19.8182 108.884C20.0897 109.493 20.5606 110.024 21.0153 110.538C21.3007 110.861 21.6116 111.175 21.9132 111.479C23.1811 112.755 24.4919 114.077 23.7355 115.995C23.7007 116.081 23.6411 116.154 23.5642 116.206C23.4873 116.257 23.3967 116.285 23.304 116.285Z" fill="black"/>
<path d="M27.7797 97.2679C27.7067 97.2679 27.6348 97.2505 27.5697 97.218C27.5153 97.1902 27.4668 97.1519 27.4271 97.1055C27.3874 97.0591 27.3572 97.0057 27.3383 96.9477C27.3193 96.8897 27.312 96.8282 27.3166 96.7679C27.3212 96.7076 27.3379 96.6473 27.3655 96.5939C30.1658 91.0514 26.7183 86.5263 25.107 84.8379C25.0283 84.748 24.9873 84.6311 24.9927 84.5116C24.998 84.3922 25.0493 84.2794 25.1357 84.1969C25.2222 84.1143 25.3372 84.0682 25.4568 84.0684C25.5764 84.0686 25.6912 84.1149 25.7775 84.1976C27.1417 85.6255 31.3455 90.7719 28.1938 97.0127C28.1552 97.0892 28.096 97.153 28.0228 97.1983C27.9497 97.2435 27.8655 97.2679 27.7797 97.2679Z" fill="black"/>
<path d="M27.9753 119.106C27.8854 119.106 27.7973 119.08 27.7218 119.032C27.6463 118.983 27.5865 118.913 27.5496 118.832C27.5128 118.75 27.5005 118.659 27.5143 118.57C27.528 118.482 27.5673 118.398 27.6273 118.332C28.8952 116.92 28.3511 114.539 27.2491 112.805C27.096 112.563 26.9348 112.323 26.7654 112.068C25.6947 110.458 24.4802 108.634 25.1866 106.725C25.2078 106.667 25.24 106.615 25.2815 106.57C25.3229 106.526 25.3728 106.49 25.4282 106.464C25.4836 106.439 25.5436 106.424 25.6045 106.421C25.6654 106.419 25.7263 106.429 25.7835 106.45C25.8407 106.471 25.8931 106.504 25.9379 106.545C25.9826 106.587 26.0187 106.637 26.0442 106.692C26.0696 106.747 26.084 106.807 26.0863 106.868C26.0887 106.929 26.0789 106.99 26.0578 107.048C25.5149 108.514 26.5438 110.064 27.538 111.553C27.7027 111.801 27.8732 112.058 28.0321 112.307C29.2269 114.189 30.0192 117.057 28.3175 118.952C28.2743 118.999 28.2215 119.037 28.1626 119.064C28.1037 119.091 28.0399 119.105 27.9753 119.106Z" fill="black"/>
<path d="M55.1184 103.271C54.4835 103.278 53.8591 103.11 53.3123 102.787C52.4052 102.241 51.8136 101.178 51.7672 100.012C51.731 99.394 51.8762 98.7781 52.1848 98.2398C52.6488 96.6669 54.2287 95.493 55.8863 95.595C57.7191 95.711 59.2758 97.3513 59.2839 99.191C59.2804 99.9439 59.0644 100.679 58.661 101.314C58.2808 101.91 57.7575 102.402 57.1387 102.744C56.5198 103.085 55.8253 103.267 55.1184 103.271ZM52.7775 99.2108C52.71 99.4613 52.6818 99.72 52.694 99.9787C52.7276 100.836 53.1487 101.602 53.7914 101.994C55.0674 102.765 57.0185 102.207 57.8769 100.823C58.1861 100.338 58.3533 99.7757 58.3594 99.1992C58.3536 97.857 57.1727 96.6089 55.833 96.5312C54.978 96.479 54.1301 96.907 53.5849 97.5752C53.6505 97.6761 53.6751 97.7967 53.6535 97.915C53.6319 98.0322 53.5657 98.1366 53.4689 98.2062C53.3045 98.3234 53.1626 98.4695 53.0501 98.6377C53.0304 98.7178 53.0153 98.8001 53.0049 98.8825C52.9935 98.9509 52.9672 99.0147 52.9279 99.0716C52.8885 99.1284 52.8371 99.1748 52.7775 99.2085V99.2108Z" fill="black"/>
<path d="M55.0644 99.0197C54.9984 99.0197 54.9332 99.0057 54.8732 98.9779C54.8132 98.9512 54.7598 98.9106 54.7164 98.8607C53.392 97.3388 52.3801 95.571 51.7387 93.6581C51.7194 93.6013 51.7116 93.5398 51.716 93.4795C51.7203 93.418 51.7366 93.3589 51.7638 93.3043C51.7911 93.2498 51.8288 93.2011 51.8749 93.1617C51.9209 93.1211 51.9743 93.0909 52.0321 93.0712C52.0899 93.0526 52.1509 93.0445 52.2117 93.0491C52.2725 93.0538 52.3319 93.07 52.3864 93.0967C52.4409 93.1245 52.4895 93.1617 52.5294 93.2081C52.5693 93.2545 52.5999 93.3078 52.6191 93.3647C53.2205 95.1638 54.17 96.8261 55.4135 98.2564C55.472 98.3237 55.5099 98.406 55.5229 98.4942C55.5359 98.5823 55.5233 98.6728 55.4866 98.7529C55.45 98.8341 55.3908 98.9037 55.3161 98.9512C55.2415 98.9999 55.1545 99.0255 55.0655 99.0255L55.0644 99.0197Z" fill="black"/>
<path d="M136.94 58.5468C136.817 58.5487 136.698 58.5016 136.61 58.4159C136.522 58.3302 136.471 58.2129 136.469 58.0898C136.468 57.9667 136.514 57.8481 136.6 57.7597C136.686 57.6714 136.803 57.6207 136.926 57.6188C137.537 57.6047 138.125 57.3903 138.602 57.0087C139.079 56.6269 139.416 56.0991 139.564 55.5066C139.711 54.914 139.659 54.2894 139.416 53.7291C139.174 53.1689 138.754 52.7039 138.22 52.4058C138.112 52.3443 138.034 52.2425 138.001 52.1229C137.969 52.0032 137.985 51.8755 138.046 51.7678C138.108 51.6602 138.21 51.5813 138.329 51.5487C138.449 51.5161 138.576 51.5323 138.684 51.5938C140.076 52.3872 140.845 54.162 140.458 55.7222C140.071 57.2824 138.566 58.4946 136.959 58.5422L136.94 58.5468Z" fill="black"/>
<path d="M68.3812 58.8167C67.8936 58.8056 67.4255 58.6223 67.06 58.2994C66.3176 57.6788 65.8571 56.6301 65.8594 55.5606C65.8617 54.4911 66.3234 53.4471 67.0716 52.8323C67.5739 52.4182 68.155 52.2523 68.7083 52.3555C68.7682 52.367 68.8252 52.3902 68.8761 52.4237C68.927 52.4573 68.9708 52.5005 69.0051 52.551C69.0392 52.6015 69.0632 52.6582 69.0755 52.7179C69.0877 52.7777 69.0881 52.8391 69.0766 52.899C69.0652 52.9589 69.042 53.0159 69.0084 53.0668C68.9749 53.1178 68.9316 53.1615 68.8812 53.1957C68.8307 53.2299 68.774 53.2538 68.7143 53.2661C68.6545 53.2784 68.593 53.2788 68.5332 53.2673C68.1782 53.1989 67.8639 53.3833 67.662 53.548C67.1331 53.9853 66.7897 54.7765 66.7874 55.5629C66.7851 56.3494 67.1261 57.1452 67.6551 57.5871C67.8557 57.7553 68.1701 57.9421 68.5251 57.876C68.646 57.8538 68.771 57.8807 68.8722 57.9507C68.9735 58.0206 69.0429 58.1279 69.065 58.2489C69.0872 58.37 69.0603 58.495 68.9903 58.5962C68.9204 58.6974 68.8131 58.7667 68.6921 58.7889C68.5894 58.8075 68.4854 58.8167 68.3812 58.8167Z" fill="black"/>
<path d="M114.233 61.9837H114.197C112.326 61.9837 110.914 61.6937 109.753 61.0847C107.702 60.0059 106.219 57.6963 105.784 54.9065C105.526 53.2524 105.573 51.4579 105.937 49.0891C106.074 48.1936 106.262 46.9675 107.669 46.6879C108.829 46.4559 110.105 46.4977 111.34 46.5395C111.831 46.5557 112.294 46.5719 112.743 46.5696C116.107 46.5569 119.529 46.6381 122.922 46.8132C123.203 46.8283 123.628 46.8503 123.966 47.109C124.585 47.573 124.518 48.45 124.489 48.8223C124.316 51.0681 124.141 53.3893 123.379 55.5886C122.513 58.0977 120.976 60.0245 119.049 61.0139C117.768 61.6751 116.234 61.9837 114.233 61.9837ZM106.705 54.7639C107.094 57.2648 108.397 59.3203 110.185 60.2623C111.207 60.8005 112.483 61.0522 114.197 61.0557C116.062 61.0557 117.472 60.7831 118.631 60.188C120.343 59.3087 121.719 57.5687 122.505 55.287C123.224 53.199 123.399 50.9382 123.569 48.7516C123.595 48.4036 123.601 47.9929 123.412 47.8503C123.304 47.7691 123.104 47.7528 122.873 47.7401C119.497 47.5661 116.089 47.4849 112.745 47.4976C112.281 47.4976 111.786 47.4825 111.308 47.4663C110.128 47.4269 108.908 47.3863 107.848 47.5974C107.152 47.7354 107.006 48.2238 106.852 49.2295C106.504 51.5008 106.457 53.2071 106.699 54.7639H106.705Z" fill="black"/>
<path d="M107.19 51.61C107.095 51.6101 107.001 51.5805 106.922 51.5253C105.239 50.3197 103.231 49.6505 101.161 49.6054C99.092 49.5602 97.0562 50.1413 95.322 51.2724C95.2188 51.3394 95.0935 51.3628 94.9729 51.3372C94.8522 51.3116 94.7478 51.2393 94.6805 51.1361C94.6133 51.0329 94.5901 50.9072 94.6156 50.7868C94.6411 50.6664 94.713 50.5611 94.8163 50.494C96.7059 49.2625 98.9227 48.6297 101.177 48.6784C103.432 48.727 105.618 49.4548 107.452 50.7666C107.533 50.8234 107.594 50.9044 107.625 50.9979C107.656 51.0913 107.657 51.1925 107.627 51.2864C107.597 51.3804 107.538 51.4625 107.459 51.5206C107.379 51.5787 107.283 51.6101 107.184 51.61H107.19Z" fill="black"/>
<path d="M114.852 55.2044C114.792 55.2044 114.732 55.2044 114.671 55.2044C113.936 55.1605 113.228 54.9093 112.63 54.4801C112.031 54.0509 111.566 53.4612 111.288 52.779C111.265 52.7222 111.254 52.6615 111.254 52.6002C111.255 52.5391 111.268 52.4787 111.292 52.4224C111.317 52.3661 111.351 52.3153 111.395 52.2727C111.44 52.2301 111.491 52.1966 111.547 52.174C111.604 52.1515 111.666 52.1405 111.727 52.1417C111.788 52.1427 111.848 52.156 111.905 52.1804C111.96 52.205 112.011 52.2404 112.053 52.2845C112.096 52.3287 112.129 52.3809 112.151 52.438C112.357 52.9587 112.709 53.4091 113.163 53.7354C113.618 54.0616 114.159 54.2499 114.718 54.2777C115.277 54.3054 115.832 54.1716 116.317 53.892C116.802 53.6124 117.197 53.199 117.453 52.7012C117.48 52.6452 117.518 52.5952 117.564 52.5542C117.611 52.513 117.665 52.4817 117.724 52.4618C117.782 52.4421 117.845 52.4344 117.907 52.439C117.969 52.4437 118.029 52.4608 118.084 52.4891C118.14 52.5175 118.188 52.5567 118.228 52.6044C118.267 52.652 118.297 52.7071 118.316 52.7665C118.333 52.8259 118.339 52.8883 118.333 52.95C118.326 53.0117 118.308 53.0714 118.278 53.1257C117.948 53.7494 117.455 54.2721 116.852 54.6382C116.249 55.0042 115.557 55.1999 114.852 55.2044Z" fill="white"/>
<path d="M86.0038 55.477C84.1478 55.477 82.4426 54.0943 82.2755 52.3937C82.2639 52.2707 82.301 52.1479 82.3799 52.0523C82.4588 51.9569 82.5713 51.8966 82.6943 51.8845C82.8172 51.8726 82.9402 51.9099 83.0365 51.9884C83.1316 52.067 83.1919 52.1802 83.2035 52.3033C83.3404 53.7045 84.9076 54.6407 86.2195 54.5409C87.5315 54.4411 88.8771 53.5039 89.7111 52.0968C89.7413 52.0418 89.7819 51.9933 89.8306 51.9543C89.8793 51.9154 89.935 51.8867 89.9953 51.87C90.0556 51.8532 90.1183 51.8489 90.1809 51.857C90.2424 51.8652 90.3027 51.8859 90.3561 51.9177C90.4094 51.9495 90.457 51.9918 90.4941 52.0421C90.5312 52.0925 90.5568 52.1498 90.5718 52.2106C90.5858 52.2715 90.5881 52.3345 90.5776 52.3961C90.566 52.4577 90.544 52.5165 90.5092 52.5689C89.5093 54.259 87.9317 55.3425 86.2891 55.4689C86.1905 55.4735 86.0966 55.477 86.0038 55.477Z" fill="white"/>
<path d="M83.2111 45.2345C83.0301 45.2348 82.848 45.2185 82.6694 45.1858C81.8481 45.0303 81.0233 44.3251 81.0639 43.4133C81.1034 42.5305 81.833 41.8891 83.2331 41.5063C84.6588 41.1177 86.0566 40.7476 87.4869 40.5075L87.6446 40.4808C89.4635 40.1723 92.8484 39.5969 94.0965 41.5005C94.6847 42.3971 94.4353 43.6836 93.5409 44.3703C92.6257 45.0733 91.3995 44.9132 90.4147 44.7856L90.0748 44.7427C88.3081 44.5343 86.5194 44.6189 84.7806 44.9932L84.5822 45.0361C84.1345 45.1524 83.6739 45.219 83.2111 45.2345ZM90.6966 41.0829C89.6421 41.0829 88.532 41.2719 87.8047 41.3949L87.6458 41.4227C86.2538 41.6547 84.8838 42.019 83.4814 42.4018C82.8167 42.5827 82.0198 42.9133 81.9954 43.4539C81.978 43.8448 82.4211 44.1928 82.8469 44.274C83.3236 44.3633 83.8387 44.2508 84.3839 44.1302L84.5869 44.0861C86.4266 43.6902 88.3197 43.6004 90.1885 43.8205L90.5365 43.8645C91.3949 43.9805 92.367 44.1035 92.9725 43.6325C93.4725 43.2497 93.6337 42.4899 93.3205 42.0085C92.8507 41.2928 91.8032 41.0829 90.6966 41.0829Z" fill="white"/>
<path d="M109.219 44.4465C108.214 44.4465 107.088 44.2794 106.551 43.3364C106.406 43.0785 106.328 42.7883 106.324 42.4923C106.32 42.1965 106.391 41.9043 106.529 41.6428C106.945 40.7948 107.947 40.1 108.965 39.9526C109.862 39.8184 110.77 39.7633 111.676 39.7879H112.09C113.956 39.7752 116.572 40.1684 118.319 41.318C119.379 42.014 119.155 42.7448 119.015 43.0255C118.893 43.2513 118.707 43.4362 118.481 43.5568C117.284 44.2203 115.908 44.2597 114.694 44.2934L109.518 44.4418C109.422 44.4453 109.321 44.4465 109.219 44.4465ZM111.329 40.7206C110.584 40.7127 109.84 40.7646 109.104 40.876C108.393 40.9792 107.646 41.4873 107.364 42.058C107.292 42.184 107.255 42.3266 107.255 42.4716C107.255 42.6167 107.292 42.7591 107.364 42.8851C107.712 43.493 108.684 43.544 109.496 43.5208L114.673 43.3735C115.781 43.341 117.036 43.3062 118.037 42.7517C118.103 42.7191 118.159 42.6684 118.196 42.6056C118.283 42.4385 117.998 42.217 117.819 42.0998C116.244 41.0628 113.759 40.7078 112.105 40.7229C111.956 40.7229 111.817 40.7229 111.682 40.7229L111.329 40.7206Z" fill="white"/>
<path d="M122.34 49.2169C122.239 49.2163 122.14 49.1823 122.059 49.1202C121.979 49.0582 121.921 48.9714 121.894 48.8733C121.869 48.775 121.875 48.671 121.914 48.577C121.952 48.4829 122.021 48.4042 122.108 48.3527C127.154 45.3993 132.737 43.2614 137.665 41.3753C138.83 40.9287 140.152 40.4229 141.526 40.3313C143.125 40.2292 144.549 40.7361 145.434 41.7233C146.678 43.106 146.615 45.4747 145.302 46.7901C143.989 48.1056 141.621 48.1775 140.229 46.9375C140.138 46.8553 140.082 46.7399 140.074 46.6166C140.067 46.4932 140.109 46.3721 140.191 46.2798C140.273 46.1875 140.389 46.1316 140.512 46.1244C140.635 46.1172 140.757 46.1593 140.849 46.2415C141.886 47.1695 143.657 47.1196 144.641 46.1348C145.624 45.1499 145.67 43.3786 144.739 42.3427C144.055 41.5818 142.874 41.1757 141.581 41.2581C140.346 41.337 139.145 41.7952 137.992 42.2383C133.098 44.1117 127.552 46.2345 122.572 49.1496C122.502 49.1922 122.422 49.2154 122.34 49.2169Z" fill="black"/>
<path d="M133.111 15.0572C133.296 13.9981 133.036 12.5191 131.962 12.4565C131.506 12.4298 131.088 12.7047 130.738 12.9982C129.343 14.1708 128.394 15.788 128.049 17.5779C127.72 15.3718 126.542 13.3816 124.766 12.0308C123.906 11.3812 122.474 11.0007 121.904 11.9148C121.692 12.2535 121.68 12.6757 121.699 13.0748C121.774 14.6062 122.22 16.0964 123 17.4166C114.065 12.8988 103.912 11.3841 94.0473 13.0977C84.1838 14.8114 75.1353 19.662 68.2481 26.9286C66.776 28.4819 65.3202 30.4342 65.6589 32.5477C66.0939 35.2702 69.2027 36.6367 71.9299 37.0415C75.824 37.6215 79.7935 37.241 83.6978 36.7353C96.0007 35.1425 108.111 32.3124 119.846 28.2882C119.44 32.5802 119.42 37.7387 122.987 40.1526C125.307 41.7256 129.048 42.8717 131.274 41.1653C138.514 35.6147 134.181 25.7025 132.796 24.3152C130.001 21.5149 131.215 20.0533 131.644 19.2494C132.354 17.9393 132.849 16.524 133.111 15.0572Z" fill="black"/>
<path d="M113.467 98.4885C113.064 98.4885 112.504 98.1985 111.478 97.47L111.411 97.4224C108.936 95.6743 107.184 93.8891 106.607 92.5238C106.559 92.4112 106.558 92.2836 106.604 92.1688C106.651 92.0551 106.74 91.9635 106.854 91.9159C106.967 91.8684 107.095 91.8672 107.209 91.9136C107.322 91.9588 107.414 92.0493 107.462 92.1618C107.966 93.3543 109.642 95.0375 111.946 96.6649L112.016 96.7137C113.04 97.441 113.366 97.5489 113.463 97.5593C114.369 97.4294 115.217 95.3228 115.471 94.2174C116.259 90.7896 116.389 89.1134 116.584 86.5614C116.651 85.6838 116.728 84.6885 116.84 83.4821C116.852 83.3591 116.912 83.2456 117.007 83.1667C117.102 83.0878 117.225 83.05 117.348 83.0616C117.471 83.0731 117.585 83.1331 117.664 83.2282C117.743 83.3234 117.78 83.4461 117.768 83.5691C117.652 84.7674 117.579 85.7592 117.513 86.6321C117.315 89.2201 117.184 90.9299 116.38 94.425C116.37 94.4633 115.48 98.2472 113.567 98.485C113.534 98.4885 113.501 98.4896 113.467 98.4885Z" fill="black"/>
<path d="M129.828 132.332C129.784 132.332 129.741 132.325 129.698 132.314C129.639 132.296 129.585 132.267 129.537 132.229C129.488 132.191 129.449 132.143 129.42 132.089C129.391 132.035 129.372 131.976 129.365 131.915C129.36 131.853 129.365 131.792 129.383 131.734C130.061 129.406 130.253 127.191 130.571 123.522C130.726 121.734 130.919 119.511 131.214 116.78L131.225 116.68C131.372 115.31 131.525 113.896 132.234 112.656C132.97 111.371 134.546 110.285 136.135 110.697C136.197 110.71 136.255 110.735 136.305 110.771C136.356 110.807 136.399 110.854 136.432 110.907C136.465 110.96 136.487 111.02 136.496 111.081C136.505 111.142 136.502 111.205 136.486 111.265C136.47 111.327 136.443 111.383 136.404 111.432C136.366 111.482 136.318 111.523 136.264 111.554C136.211 111.584 136.15 111.604 136.088 111.611C136.026 111.618 135.964 111.612 135.903 111.595C134.776 111.304 133.583 112.162 133.04 113.117C132.428 114.187 132.285 115.505 132.147 116.78L132.137 116.88C131.842 119.601 131.649 121.819 131.495 123.608C131.173 127.334 130.978 129.583 130.274 131.999C130.246 132.094 130.187 132.179 130.107 132.239C130.027 132.3 129.929 132.332 129.828 132.332Z" fill="black"/>
<path d="M111.543 115.736C111.45 115.736 111.359 115.708 111.283 115.656C111.205 115.604 111.146 115.531 111.111 115.445C110.704 114.458 110.493 113.402 110.488 112.335C110.488 112.211 110.537 112.094 110.624 112.007C110.711 111.92 110.829 111.871 110.952 111.871C111.075 111.871 111.194 111.92 111.281 112.007C111.368 112.094 111.416 112.211 111.416 112.335C111.421 113.283 111.61 114.222 111.973 115.099C112.019 115.213 112.018 115.341 111.97 115.453C111.921 115.567 111.83 115.656 111.716 115.703C111.661 115.725 111.602 115.735 111.543 115.736Z" fill="black"/>
<path d="M114.793 119.253C114.646 119.253 114.257 119.253 112.791 117.849C112.703 117.764 112.651 117.647 112.649 117.524C112.646 117.401 112.693 117.282 112.777 117.193C112.863 117.104 112.98 117.053 113.103 117.05C113.226 117.048 113.346 117.094 113.434 117.179C113.947 117.67 114.626 118.24 114.844 118.328C114.967 118.335 115.083 118.391 115.166 118.482C115.248 118.574 115.29 118.695 115.283 118.818C115.276 118.942 115.221 119.057 115.13 119.139C115.037 119.221 114.916 119.263 114.793 119.256V119.253Z" fill="black"/>
<path d="M119.539 120.865C118.63 120.865 117.313 120.561 117.02 120.335C116.923 120.262 116.858 120.152 116.841 120.029C116.823 119.907 116.856 119.784 116.93 119.685C117.004 119.587 117.114 119.522 117.236 119.506C117.358 119.488 117.482 119.521 117.579 119.594C117.88 119.765 119.469 120.022 119.831 119.925C119.884 119.895 119.942 119.876 120.003 119.867C120.063 119.859 120.125 119.864 120.184 119.88C120.243 119.895 120.297 119.923 120.346 119.96C120.395 119.997 120.435 120.043 120.466 120.096C120.496 120.148 120.515 120.207 120.524 120.268C120.532 120.328 120.527 120.389 120.512 120.449C120.496 120.507 120.469 120.562 120.432 120.611C120.395 120.659 120.348 120.699 120.295 120.729C120.14 120.826 119.866 120.865 119.539 120.865Z" fill="black"/>
<path d="M123.023 120.139C122.9 120.139 122.781 120.089 122.694 120.002C122.607 119.915 122.559 119.798 122.559 119.675C122.559 119.551 122.607 119.434 122.694 119.347C122.781 119.26 122.9 119.211 123.023 119.211C123.593 119.211 124.732 118.47 124.935 118.051C124.989 117.939 125.085 117.855 125.201 117.814C125.317 117.774 125.445 117.781 125.556 117.834C125.666 117.887 125.752 117.982 125.793 118.1C125.833 118.216 125.825 118.343 125.772 118.454C125.399 119.225 123.909 120.139 123.023 120.139Z" fill="black"/>
<path d="M126.954 116.785C126.866 116.784 126.779 116.758 126.703 116.709C126.629 116.662 126.57 116.592 126.533 116.511C126.497 116.431 126.484 116.341 126.497 116.252C126.51 116.164 126.548 116.082 126.606 116.016C126.895 115.684 127.053 114.624 126.924 113.864C126.903 113.742 126.932 113.617 127.003 113.517C127.074 113.416 127.183 113.348 127.303 113.328C127.425 113.307 127.549 113.335 127.65 113.406C127.751 113.478 127.818 113.586 127.839 113.707C127.971 114.486 127.894 115.951 127.306 116.625C127.263 116.675 127.208 116.715 127.148 116.743C127.087 116.77 127.021 116.785 126.954 116.785Z" fill="black"/>
<path d="M127.17 111.607C127.062 111.607 126.958 111.57 126.876 111.5C126.792 111.432 126.735 111.335 126.716 111.229L126.333 109.207C126.31 109.089 126.334 108.964 126.401 108.864C126.468 108.761 126.573 108.691 126.691 108.665C126.81 108.64 126.934 108.662 127.037 108.727C127.139 108.792 127.212 108.895 127.24 109.012L127.588 110.452C127.611 110.548 127.603 110.649 127.565 110.739L127.625 111.057C127.648 111.179 127.622 111.303 127.552 111.405C127.483 111.507 127.376 111.577 127.255 111.599C127.227 111.605 127.199 111.608 127.17 111.607Z" fill="black"/>
<path d="M119.493 113.987C119.003 114.25 118.3 115.295 119.029 116.191C119.377 116.622 120.051 116.706 120.558 116.476C121.486 116.052 121.677 114.516 120.802 113.983L119.493 113.987Z" fill="black"/>
<path d="M119.976 117.07C119.73 117.076 119.486 117.026 119.261 116.927C119.037 116.826 118.838 116.677 118.677 116.49C118.503 116.285 118.376 116.043 118.31 115.782C118.243 115.521 118.236 115.247 118.29 114.982C118.349 114.695 118.468 114.421 118.637 114.18C118.808 113.938 119.025 113.735 119.276 113.581C119.344 113.545 119.419 113.525 119.496 113.525H120.809C120.894 113.525 120.978 113.55 121.05 113.594C121.582 113.917 121.876 114.522 121.834 115.226C121.789 115.968 121.37 116.627 120.756 116.904C120.512 117.015 120.245 117.072 119.976 117.07ZM119.628 114.45C119.41 114.633 119.258 114.883 119.196 115.16C119.168 115.291 119.172 115.425 119.206 115.554C119.239 115.682 119.303 115.801 119.391 115.9C119.592 116.146 120.021 116.214 120.368 116.057C120.668 115.92 120.878 115.57 120.903 115.167C120.918 115.037 120.904 114.905 120.861 114.781C120.818 114.656 120.747 114.544 120.654 114.45H119.628Z" fill="black"/>
<path d="M116.553 10.2062C116.464 10.2061 116.376 10.1798 116.301 10.1308L112.199 7.46277C112.145 7.43076 112.099 7.3883 112.062 7.33784C112.025 7.28738 111.999 7.22996 111.984 7.16917C111.97 7.10827 111.969 7.04517 111.98 6.98369C111.99 6.92209 112.013 6.8634 112.048 6.81108C112.082 6.75865 112.126 6.71376 112.178 6.67884C112.23 6.64404 112.288 6.62003 112.35 6.60832C112.411 6.5966 112.474 6.59741 112.535 6.61075C112.597 6.62397 112.654 6.64938 112.705 6.68557L116.806 9.35357C116.891 9.40797 116.955 9.48813 116.99 9.58221C117.024 9.67617 117.028 9.77894 117 9.87511C116.971 9.97115 116.913 10.0555 116.832 10.1155C116.752 10.1753 116.654 10.2076 116.553 10.2073V10.2062Z" fill="black"/>
<path d="M120.102 7.83844C120.02 7.83856 119.94 7.81721 119.87 7.7765C119.799 7.73578 119.74 7.67708 119.699 7.60644L118.523 5.5486C118.493 5.49571 118.473 5.43736 118.465 5.37692C118.457 5.31637 118.461 5.25501 118.476 5.19608C118.493 5.13715 118.521 5.08193 118.558 5.03356C118.595 4.98519 118.641 4.94459 118.693 4.91408C118.747 4.88357 118.805 4.86385 118.865 4.85596C118.925 4.84808 118.987 4.85214 119.046 4.86791C119.105 4.8838 119.161 4.91107 119.208 4.94819C119.257 4.98542 119.298 5.03171 119.328 5.0846L120.504 7.14244C120.534 7.19534 120.554 7.2538 120.562 7.31424C120.569 7.37467 120.566 7.43615 120.549 7.49496C120.533 7.55378 120.505 7.60888 120.468 7.65702C120.431 7.70527 120.385 7.74564 120.331 7.7758C120.262 7.81675 120.183 7.83832 120.102 7.83844Z" fill="black"/>
<path d="M136.248 19.6093C136.163 19.6092 136.08 19.5858 136.008 19.5415C135.935 19.4973 135.876 19.4338 135.836 19.3583C135.798 19.2828 135.78 19.198 135.786 19.1132C135.792 19.0284 135.821 18.9468 135.87 18.8774C138.237 15.531 140.195 11.9135 141.702 8.10213C141.749 7.98845 141.837 7.8975 141.949 7.84925C142.062 7.80087 142.189 7.7989 142.303 7.84403C142.418 7.88904 142.508 7.97731 142.558 8.0896C142.607 8.20177 142.609 8.3289 142.565 8.44316C141.031 12.3237 139.038 16.0066 136.627 19.4133C136.584 19.474 136.527 19.5235 136.461 19.5576C136.395 19.5917 136.322 19.6094 136.248 19.6093Z" fill="black"/>
<path d="M76.802 29.3589C75.823 29.3589 74.7616 28.9946 74.4368 28.1409C74.134 27.3486 74.576 26.4867 75.6791 25.7153C76.9449 24.8447 78.3607 24.2155 79.8551 23.8593C79.9152 23.8424 79.9781 23.8376 80.0404 23.8455C80.1019 23.8534 80.161 23.8737 80.2155 23.9052C80.2689 23.9367 80.3165 23.9788 80.3536 24.0289C80.3907 24.0789 80.4174 24.136 80.4325 24.1966C80.4475 24.2573 80.4487 24.3204 80.4394 24.3819C80.429 24.4435 80.4058 24.5024 80.3721 24.5551C80.3397 24.6077 80.2956 24.653 80.2434 24.6884C80.1923 24.7236 80.1344 24.7482 80.0729 24.7606C78.691 25.09 77.3814 25.6716 76.2104 26.4763C75.9471 26.6595 75.1073 27.2975 75.3021 27.8114C75.4506 28.2 76.1826 28.4726 76.9691 28.4262C77.3588 28.3964 77.7464 28.3414 78.1291 28.2615C78.5936 28.1626 79.0653 28.1005 79.5396 28.0759C79.6627 28.0723 79.7821 28.1179 79.8716 28.2023C79.9612 28.2869 80.0137 28.4035 80.0172 28.5266C80.0207 28.6496 79.975 28.769 79.8905 28.8586C79.806 28.9481 79.6894 29.0003 79.5663 29.0039C79.1399 29.0273 78.716 29.0839 78.2984 29.1733C77.8775 29.261 77.4512 29.3209 77.0224 29.3531C76.9493 29.3531 76.8763 29.3589 76.802 29.3589Z" fill="white"/>
<path d="M94.3401 30.3367C93.7705 30.3475 93.2149 30.1578 92.7695 29.8007C92.5676 29.6281 92.4041 29.4152 92.2892 29.1754C92.1744 28.9356 92.1106 28.6745 92.1025 28.4087C92.0943 28.1481 92.1419 27.8886 92.2393 27.647C92.3379 27.4052 92.4852 27.1867 92.672 27.0051C92.7161 26.9629 92.7683 26.9297 92.8251 26.9075C92.882 26.8852 92.9423 26.8744 93.0038 26.8756C93.0641 26.8767 93.1244 26.89 93.1801 26.9144C93.2358 26.9388 93.2868 26.9741 93.3286 27.0179C93.3715 27.0619 93.404 27.1137 93.4272 27.1706C93.4492 27.2273 93.4596 27.288 93.4585 27.3489C93.4573 27.4099 93.4446 27.47 93.4202 27.5259C93.3947 27.5818 93.3599 27.6322 93.3158 27.6745C93.2207 27.7655 93.1453 27.876 93.0954 27.9985C93.0455 28.1208 93.0235 28.2525 93.0281 28.3844C93.0328 28.5201 93.0652 28.6533 93.1244 28.7755C93.1836 28.8977 93.2671 29.0064 93.3703 29.0943C93.8494 29.5026 94.7461 29.5212 95.2507 29.1337C95.3493 29.0643 95.4699 29.0353 95.5882 29.0531C95.7077 29.0709 95.8144 29.1341 95.8875 29.2293C95.9606 29.3246 95.9942 29.4444 95.9815 29.5638C95.9676 29.6831 95.9084 29.7926 95.8156 29.8692C95.3876 30.1813 94.8702 30.3455 94.3401 30.3367Z" fill="white"/>
<path d="M106.188 21.3062C105.337 21.3062 104.471 20.9582 103.942 20.4003C103.752 20.2101 103.606 19.9793 103.516 19.725C103.427 19.4709 103.396 19.1997 103.425 18.9317C103.52 18.0942 104.256 17.3553 105.216 17.1325C106.028 16.9458 106.858 17.1059 107.526 17.2346C107.589 17.244 107.648 17.2658 107.7 17.2986C107.754 17.3315 107.8 17.3746 107.836 17.4257C107.872 17.4767 107.898 17.5345 107.91 17.5955C107.923 17.6566 107.924 17.7196 107.913 17.781C107.901 17.8423 107.877 17.9007 107.842 17.9524C107.807 18.0043 107.762 18.0485 107.71 18.0825C107.657 18.1166 107.598 18.1397 107.537 18.1504C107.475 18.1612 107.413 18.1594 107.351 18.1452C106.739 18.0292 106.044 17.8947 105.426 18.0373C104.933 18.1533 104.404 18.5315 104.347 19.0373C104.334 19.1708 104.351 19.3056 104.398 19.4314C104.444 19.5572 104.52 19.6707 104.616 19.7634C104.991 20.159 105.687 20.4107 106.309 20.3759C106.779 20.3345 107.246 20.2546 107.701 20.1369C108.387 19.9815 109.093 19.8203 109.842 19.8875C109.903 19.8931 109.962 19.9106 110.017 19.939C110.07 19.9676 110.119 20.0063 110.157 20.0534C110.197 20.1004 110.227 20.1547 110.244 20.2131C110.263 20.2715 110.27 20.333 110.264 20.3939C110.258 20.4548 110.241 20.5141 110.212 20.5682C110.184 20.6224 110.144 20.6704 110.098 20.7096C110.05 20.7487 109.996 20.7783 109.938 20.7964C109.88 20.8146 109.818 20.8211 109.757 20.8155C109.158 20.761 108.551 20.8991 107.908 21.0475C107.402 21.177 106.886 21.2639 106.365 21.3074C106.304 21.3051 106.243 21.3062 106.188 21.3062Z" fill="white"/>
<path d="M115.496 136.086C115.384 136.088 115.276 136.047 115.193 135.975C115.108 135.902 115.053 135.801 115.036 135.691C115.02 135.581 115.043 135.468 115.104 135.374C115.163 135.28 115.254 135.211 115.361 135.178C121.424 133.329 122.924 133.05 132.845 131.409C132.966 131.39 133.091 131.419 133.191 131.491C133.291 131.562 133.358 131.67 133.379 131.792C133.399 131.914 133.37 132.038 133.298 132.138C133.227 132.239 133.118 132.306 132.997 132.326C123.13 133.95 121.638 134.234 115.631 136.067C115.587 136.081 115.542 136.088 115.496 136.086Z" fill="black"/>
<path d="M48.7726 146.164C48.6495 146.164 48.5315 146.116 48.4444 146.029C48.3574 145.942 48.3086 145.824 48.3086 145.7C48.3086 145.577 48.3574 145.46 48.4444 145.373C48.5315 145.286 48.6495 145.236 48.7726 145.236C54.9937 145.145 58.4447 145.109 61.7808 145.073C65.117 145.037 68.5668 145.001 74.7868 144.909H74.7937C74.9168 144.909 75.0351 144.957 75.1228 145.043C75.2105 145.13 75.2603 145.247 75.2612 145.37C75.2621 145.494 75.2141 145.612 75.1277 145.699C75.0414 145.787 74.9238 145.837 74.8007 145.837C68.5784 145.929 65.1274 145.966 61.7913 146.001C58.4551 146.036 55.0064 146.073 48.7854 146.164H48.7726Z" fill="black"/>
<path d="M81.2464 145.811C81.0503 145.811 80.8404 145.803 80.6211 145.794C80.1351 145.763 79.6463 145.768 79.1599 145.805C79.099 145.811 79.0374 145.804 78.9788 145.787C78.9202 145.769 78.8658 145.739 78.8185 145.701C78.7712 145.661 78.7321 145.614 78.7033 145.56C78.6744 145.506 78.6566 145.447 78.6506 145.386C78.6447 145.325 78.6508 145.263 78.6686 145.204C78.6865 145.146 78.7156 145.092 78.7546 145.044C78.7934 144.997 78.8412 144.958 78.8953 144.929C78.9492 144.9 79.0084 144.883 79.0694 144.877C79.5978 144.834 80.1281 144.83 80.6571 144.862C80.9413 144.874 81.2093 144.884 81.4239 144.875C81.5468 144.869 81.6675 144.913 81.7579 144.997C81.8484 145.08 81.9018 145.196 81.9076 145.319C81.9122 145.442 81.8681 145.563 81.7846 145.653C81.7011 145.744 81.5851 145.797 81.4621 145.803C81.3925 145.81 81.3206 145.811 81.2464 145.811Z" fill="black"/>
<path d="M84.6172 145.83C84.1381 145.83 83.6892 145.83 83.2878 145.81C83.1648 145.806 83.0488 145.752 82.9653 145.662C82.8806 145.573 82.8366 145.453 82.84 145.33C82.8447 145.206 82.898 145.09 82.9874 145.006C83.0778 144.922 83.1973 144.878 83.3203 144.882C85.254 144.951 88.2572 144.83 90.9055 144.725C92.1293 144.676 93.2847 144.629 94.1988 144.609C94.3217 144.605 94.4412 144.651 94.5305 144.736C94.6198 144.821 94.6709 144.938 94.6744 145.061C94.6767 145.184 94.6314 145.303 94.5456 145.393C94.4609 145.481 94.3438 145.533 94.2208 145.537C93.3137 145.559 92.1618 145.604 90.9426 145.653C88.8233 145.736 86.4778 145.83 84.6172 145.83Z" fill="black"/>
<path d="M33.5249 139.835C33.3128 139.866 33.0973 139.811 32.9245 139.685C32.7517 139.558 32.6355 139.368 32.6007 139.157C32.566 138.946 32.6154 138.729 32.7386 138.554C32.8617 138.378 33.0487 138.258 33.2593 138.219L36.208 137.675C37.4481 137.443 38.731 137.211 39.8655 136.713C41.0452 136.196 41.9454 135.42 42.3989 134.527C43.0764 133.192 42.7412 131.355 41.6357 130.344C41.3724 130.09 41.0551 129.901 40.7077 129.789C40.1277 129.617 39.4375 129.728 38.7693 129.837C37.7764 129.999 36.6523 130.185 35.8449 130.751C35.6675 130.876 35.4474 130.925 35.2334 130.888C35.0193 130.851 34.8287 130.732 34.7035 130.554C34.5782 130.377 34.5287 130.156 34.5657 129.942C34.6027 129.728 34.7231 129.537 34.9007 129.413C36.0166 128.626 37.397 128.401 38.506 128.221C39.2774 128.096 40.2367 127.941 41.174 128.221C41.7589 128.404 42.2944 128.718 42.74 129.139C44.3883 130.647 44.8698 133.281 43.8594 135.272C43.0578 136.85 41.602 137.744 40.5209 138.217C39.2136 138.788 37.8367 139.043 36.5061 139.289L33.5574 139.833L33.5249 139.835Z" fill="black"/>
<path d="M15.6387 135.579C15.8371 137.704 17.9413 143.162 20.6267 143.865C23.3121 144.568 23.8005 143.416 21.5547 142.11C20.8587 141.705 18.2719 140.162 17.6525 138.847C17.0331 137.532 15.2757 131.671 15.6387 135.579Z" fill="white"/>
<path d="M100.069 145.746C99.9457 145.748 99.8274 145.702 99.7393 145.616C99.6499 145.53 99.5989 145.413 99.5977 145.29C99.5954 145.167 99.643 145.047 99.7277 144.959C99.8135 144.871 99.9307 144.82 100.054 144.818C117.876 144.238 132.186 143.964 146.444 143.936C146.567 143.936 146.686 143.986 146.773 144.073C146.86 144.16 146.908 144.277 146.908 144.4C146.908 144.524 146.86 144.641 146.773 144.728C146.686 144.815 146.567 144.864 146.444 144.864C132.194 144.892 117.894 145.164 100.083 145.746H100.069Z" fill="black"/>
<path d="M149.393 145.016C149.29 145.015 149.189 144.981 149.108 144.917C149.026 144.853 148.968 144.764 148.943 144.663C148.919 144.563 148.928 144.458 148.97 144.363C149.011 144.269 149.084 144.19 149.175 144.142C149.569 143.934 150.028 143.881 150.458 143.996C150.573 144.031 150.67 144.11 150.728 144.214C150.786 144.32 150.801 144.444 150.77 144.56C150.739 144.676 150.663 144.776 150.56 144.837C150.457 144.899 150.334 144.918 150.217 144.892C150.014 144.839 149.798 144.864 149.611 144.961C149.544 144.996 149.47 145.015 149.393 145.016Z" fill="black"/>
<path d="M124.125 156.363C124.357 157.141 124.589 157.943 124.516 158.751C124.4 160.093 123.472 161.205 122.583 162.22C121.222 163.781 119.962 165.824 118.602 167.385C118.103 167.957 117.754 168.483 116.662 167.52C114.762 165.842 112.846 163.587 111.146 161.707C110.695 161.209 110.244 160.69 109.998 160.066C109.637 159.149 110.246 157.733 110.368 156.756C110.877 152.672 111.024 149.037 110.767 144.924C110.552 141.501 109.969 140.4 109.48 139.996C110.434 139.941 115.618 139.449 116.156 139.436C117.277 139.409 118.331 138.803 118.984 139.984C119.69 141.26 120.376 143.713 120.789 145.105L122.344 150.347L124.125 156.363Z" fill="black"/>
<path d="M110.221 154.218C110.117 154.218 110.016 154.183 109.933 154.118C109.852 154.054 109.794 153.963 109.77 153.861C109.747 153.759 109.757 153.652 109.802 153.557C109.846 153.463 109.922 153.387 110.015 153.339C113.928 151.395 118.027 149.843 122.247 148.707C122.307 148.69 122.37 148.683 122.431 148.69C122.493 148.697 122.553 148.715 122.607 148.745C122.662 148.776 122.71 148.816 122.748 148.865C122.787 148.915 122.815 148.97 122.831 149.031C122.848 149.091 122.851 149.154 122.843 149.215C122.834 149.277 122.813 149.336 122.781 149.389C122.749 149.443 122.707 149.489 122.656 149.526C122.606 149.563 122.549 149.589 122.488 149.603C118.327 150.723 114.287 152.252 110.427 154.168C110.364 154.202 110.293 154.218 110.221 154.218Z" fill="black"/>
<path d="M109.854 158.091C109.758 158.09 109.665 158.061 109.586 158.005C109.508 157.949 109.449 157.87 109.417 157.78C109.385 157.689 109.382 157.591 109.409 157.499C109.435 157.406 109.49 157.324 109.564 157.265C111.614 155.62 114.026 154.713 116.741 153.785C118.945 153.027 121.18 152.288 123.399 151.588C123.457 151.569 123.519 151.562 123.579 151.567C123.641 151.573 123.7 151.59 123.753 151.618C123.808 151.646 123.855 151.684 123.895 151.732C123.934 151.778 123.963 151.831 123.982 151.89C124 151.948 124.007 152.009 124.001 152.07C123.997 152.131 123.979 152.19 123.951 152.244C123.924 152.298 123.884 152.346 123.838 152.385C123.791 152.424 123.737 152.454 123.679 152.473C121.468 153.169 119.235 153.907 117.042 154.662C114.413 155.568 112.078 156.443 110.144 157.994C110.062 158.058 109.96 158.092 109.854 158.091Z" fill="black"/>
</g>
<defs>
<clipPath id="clip0_2_10592">
<rect width="168" height="168" fill="white"/>
</clipPath>
</defs>
</svg>
