<svg width="34" height="34" viewBox="0 0 34 34" fill="none" xmlns="http://www.w3.org/2000/svg">
<path d="M13.6558 2.16335C15.0237 -0.71851 18.9762 -0.718515 20.3442 2.16335L22.7084 7.14395C23.2516 8.28834 24.3017 9.08154 25.5164 9.26505L30.8029 10.0637C33.8617 10.5259 35.0831 14.4342 32.8697 16.6774L29.0444 20.5543C28.1654 21.445 27.7643 22.7285 27.9718 23.9863L28.8749 29.4605C29.3974 32.628 26.1997 35.0434 23.4638 33.5479L18.7354 30.9634C17.649 30.3695 16.351 30.3695 15.2646 30.9634L10.5362 33.5479C7.80027 35.0434 4.60262 32.628 5.12514 29.4605L6.02818 23.9863C6.23567 22.7285 5.83459 21.445 4.95564 20.5543L1.13029 16.6774C-1.08313 14.4342 0.138258 10.5259 3.19712 10.0637L8.48363 9.26505C9.69831 9.08154 10.7484 8.28835 11.2916 7.14396L13.6558 2.16335Z" fill="black"/>
</svg>
