<svg width="24" height="16" viewBox="0 0 24 16" fill="none" xmlns="http://www.w3.org/2000/svg">
<path fill-rule="evenodd" clip-rule="evenodd" d="M11.9999 0.298462C18.5245 0.298462 23.6331 7.24609 23.8475 7.54192C24.0508 7.82228 24.0508 8.20321 23.8475 8.48381C23.6331 8.77936 18.5245 15.727 11.9999 15.727C5.4753 15.727 0.36647 8.7794 0.152297 8.48358C-0.0507658 8.20293 -0.0507658 7.82228 0.152297 7.54163C0.36647 7.24609 5.4753 0.298462 11.9999 0.298462ZM1.79907 8.0122C3.03127 9.5197 7.19383 14.131 11.9999 14.131C16.8163 14.131 20.9701 9.52206 22.2007 8.01329C20.968 6.50499 16.8057 1.89451 11.9999 1.89451C7.18352 1.89451 3.02968 6.50338 1.79907 8.0122Z" fill="#175557"/>
<path fill-rule="evenodd" clip-rule="evenodd" d="M6.85547 7.58416C6.85547 4.98475 8.97035 2.86987 11.5698 2.86987C14.1692 2.86987 16.284 4.98475 16.284 7.58416C16.284 10.1836 14.1692 12.2984 11.5698 12.2984C8.97035 12.2984 6.85547 10.1836 6.85547 7.58416ZM8.42693 7.58416C8.42693 9.31714 9.83672 10.727 11.5698 10.727C13.3028 10.727 14.7126 9.31714 14.7126 7.58416C14.7126 5.85117 13.3027 4.44133 11.5698 4.44133C9.83677 4.44133 8.42693 5.85117 8.42693 7.58416Z" fill="#175557"/>
</svg>
