<svg width="34" height="34" viewBox="0 0 34 34" fill="none" xmlns="http://www.w3.org/2000/svg">
<path d="M1.72155 13.3333L31.6118 13.3333C33.312 13.3333 33.9796 11.081 32.565 10.1176L18.573 0.589584C17.4186 -0.196528 15.9147 -0.196528 14.7603 0.589584L0.768358 10.1176C-0.646273 11.081 0.0213697 13.3333 1.72155 13.3333Z" fill="#AEFF1C"/>
<path d="M5.83333 15.8333H10.8333V24.1667H5.83333V15.8333Z" fill="#AEFF1C"/>
<path d="M27.5 15.8333H22.5V24.1667H27.5V15.8333Z" fill="#AEFF1C"/>
<path d="M14.1667 15.8333H19.1667V24.1667H14.1667V15.8333Z" fill="#AEFF1C"/>
<path d="M30.4607 27.588C30.1783 27.0233 29.6012 26.6667 28.9699 26.6667L4.36339 26.6667C3.7321 26.6667 3.155 27.0233 2.87268 27.588L1.20601 30.9213C0.651925 32.0295 1.45775 33.3333 2.69672 33.3333H30.6366C31.8756 33.3333 32.6814 32.0295 32.1273 30.9213L30.4607 27.588Z" fill="#AEFF1C"/>
</svg>
