<svg width="164" height="38" viewBox="0 0 164 38" fill="none" xmlns="http://www.w3.org/2000/svg">
<path fill-rule="evenodd" clip-rule="evenodd" d="M20.3125 15.6149C20.3125 10.1607 23.9011 6.18555 29.4153 6.18555C35.1921 6.18555 38.7807 9.88333 38.168 17.2789H24.7764C25.039 19.59 26.877 21.1616 29.853 21.1616C31.3409 21.1616 33.4416 20.6069 34.4044 19.4976L37.0302 22.2709C35.1921 24.3047 32.3037 25.2291 29.6779 25.2291C23.8136 25.2291 20.3125 21.4389 20.3125 15.6149ZM29.5913 10.1602C27.3156 10.1602 25.39 11.3619 24.7773 13.673H34.0552C33.7926 11.3619 32.0421 10.1602 29.5913 10.1602Z" fill="white"/>
<path d="M47.9107 21.3979C46.3831 21.3979 45.3647 20.5982 45.3647 18.9097V11.4451H50.864V7.71276H45.3647V2.8252L40.4766 3.26952V7.71276V11.4451V18.9097C40.4766 23.2641 43.328 25.3969 47.6052 25.2191C49.0309 25.2191 50.3548 24.9525 51.6787 24.5082L50.2529 20.8647C49.5401 21.2202 48.7254 21.3979 47.9107 21.3979Z" fill="white"/>
<path d="M81.0374 6.18555C79.2686 6.18555 77.4998 6.56452 76.1733 8.83838L75.8195 6.65927H71.8398V25.2291H76.0848V15.3757C76.0848 11.9649 78.1189 10.6385 80.4183 10.6385C81.8333 10.6385 82.4524 10.828 83.3367 11.586L85.2824 7.60671C84.3095 6.65927 82.8061 6.18555 81.0374 6.18555Z" fill="white"/>
<path fill-rule="evenodd" clip-rule="evenodd" d="M85.2852 15.7073C85.2852 10.4797 88.7117 6.18555 94.159 6.18555C99.6063 6.18555 103.121 10.4797 103.209 15.7073C103.209 20.935 99.782 25.2291 94.2468 25.2291C88.6238 25.2291 85.2852 20.935 85.2852 15.7073ZM89.5 15.6145C89.5 18.4151 91.0815 21.0289 94.1566 21.0289C97.3195 21.0289 98.901 18.4151 98.8131 15.6145C98.8131 12.9074 97.0559 10.2002 94.1566 10.2002C91.0815 10.2002 89.5 12.9074 89.5 15.6145Z" fill="white"/>
<path d="M119.191 16.8772C119.191 19.7481 117.449 22.1405 114.837 22.1405C112.138 22.1405 110.745 19.9395 110.745 17.1643V7.30762H106.566V17.1643C106.566 23.0018 109.527 26.3512 113.619 26.3512C115.969 26.3512 117.623 25.3942 119.365 23.576L119.626 26.1598H123.37V7.30762H119.191V16.8772Z" fill="white"/>
<path d="M135.186 6.18555C133.01 6.18555 131.356 7.14734 129.614 8.97476L129.353 6.37791H125.609V25.2291H129.788V15.6111C129.788 12.7258 131.53 10.3213 134.142 10.3213C136.84 10.3213 138.233 12.5334 138.233 15.3226V25.1329H142.413V15.515C142.413 9.55183 139.191 6.18555 135.186 6.18555Z" fill="white"/>
<path fill-rule="evenodd" clip-rule="evenodd" d="M159.134 10.0579V0.585938H163.699V24.8797H159.419L159.134 22.5117C157.707 24.5289 155.424 25.2305 153.141 25.2305C147.625 25.2305 143.535 21.8978 143.535 16.2848C143.535 10.4087 147.625 7.33908 153.046 7.33908C154.949 7.33908 158.087 8.30382 159.134 10.0579ZM148.102 16.2842C148.102 19.3538 150.479 21.371 153.428 21.371C156.281 21.371 158.754 19.4415 158.849 16.2842C158.849 13.3023 156.376 11.2851 153.428 11.2851C150.479 11.2851 148.102 13.2146 148.102 16.2842Z" fill="white"/>
<path fill-rule="evenodd" clip-rule="evenodd" d="M57.7913 6.58124C60.0897 5.9377 64.3188 6.02964 66.4333 7.22478C68.1801 8.23605 69.2833 9.9828 69.5592 12.1892C69.6203 14.0245 69.6001 15.819 69.5797 17.627C69.5694 18.5361 69.5592 19.4486 69.5592 20.3713V24.968H64.9623V23.2213C64.7669 23.3515 64.5946 23.4703 64.4331 23.5816C64.1386 23.7844 63.8801 23.9625 63.5833 24.1406C60.8252 25.9793 55.8607 25.4277 53.8381 22.9455C51.9993 20.5552 52.459 15.8666 56.3203 14.8553C57.3774 14.5533 58.7928 14.3615 60.1741 14.1743C61.3156 14.0197 62.4339 13.8681 63.3075 13.6601C63.8591 13.5682 64.7785 13.3843 64.7785 12.9247C64.8704 11.9134 64.7785 11.6376 64.2269 11.086C63.2156 9.98279 61.2849 9.9828 59.9978 10.1667C58.251 10.4425 57.6075 11.1779 57.2397 13.2924L53.0106 12.3731C53.1026 9.61506 54.8494 7.40865 57.7913 6.58124ZM61.0085 21.3827C61.744 21.2908 62.3875 21.015 62.9392 20.7392L63.123 20.5553C63.7666 20.0956 64.1343 19.544 64.4101 18.8085C64.5021 18.5327 64.594 18.165 64.594 17.8892C64.6859 17.6134 64.6859 17.2457 64.6859 16.9699C64.6859 16.9239 64.6859 16.9009 64.6745 16.8894C64.663 16.8779 64.64 16.8779 64.594 16.8779H64.3182L63.7666 16.9699L61.6521 17.1537C61.4353 17.1871 61.2156 17.2174 60.9939 17.248C59.9931 17.3861 58.9531 17.5296 57.9746 17.9811C57.6069 18.0731 57.3311 18.3489 57.0552 18.6247C56.8714 18.9005 56.6875 19.1763 56.6875 19.544C56.6875 19.9117 56.7794 20.2795 56.9633 20.5553C57.2391 21.1069 57.8827 21.3827 58.4343 21.4746C59.2617 21.6585 60.1811 21.5666 61.0085 21.3827Z" fill="white"/>
<path d="M9.41287 25.4016C3.59989 25.4016 0.148438 21.0688 0.148438 15.7941C0.148438 10.5193 3.69072 6.18652 9.32204 6.18652H20.3122C20.3122 6.18652 19.8581 9.20066 17.1332 10.331H9.41287C6.2339 10.331 4.599 13.0625 4.599 15.7941C4.599 18.6198 6.2339 21.163 9.41287 21.163C12.5918 21.163 14.2267 18.5256 14.2267 15.6999C14.2267 14.1928 13.6818 12.6858 12.6827 11.6496H17.8599C18.4048 12.9683 18.6773 14.287 18.6773 15.6999C18.6773 18.714 17.4965 21.4456 15.4983 23.141C18.0415 24.7423 18.6773 26.8145 18.6773 29.0751C18.6773 34.3499 14.7717 37.5524 9.5037 37.5524C4.50817 37.5524 0.693404 34.6324 0.239265 30.017L4.68983 29.6403C4.96231 31.8067 7.05135 33.2196 9.41287 33.2196C12.0469 33.2196 14.0451 31.7125 14.0451 29.1693C14.0451 26.6261 11.6836 25.4016 9.41287 25.4016Z" fill="white"/>
</svg>
