<svg width="152" height="36" viewBox="0 0 152 36" fill="none" xmlns="http://www.w3.org/2000/svg">
<path d="M48.108 30V6.54H53.378V30H48.108ZM50.42 21.092V16.434H63.578V21.092H50.42ZM50.42 11.47V6.54L64.972 6.54V11.47L50.42 11.47ZM67.2922 30V11.98H72.3582V30H67.2922ZM69.8422 10.008C69.0942 10.008 68.4709 9.77 67.9722 9.294C67.4962 8.818 67.2582 8.19467 67.2582 7.424C67.2582 6.63066 67.4962 6.01866 67.9722 5.588C68.4709 5.13467 69.0942 4.908 69.8422 4.908C70.5676 4.908 71.1796 5.13467 71.6782 5.588C72.1769 6.01866 72.4262 6.63066 72.4262 7.424C72.4262 8.19467 72.1769 8.818 71.6782 9.294C71.1796 9.77 70.5676 10.008 69.8422 10.008ZM86.1583 30.476C84.3676 30.476 82.9169 29.7733 81.8063 28.368C80.6956 26.94 80.1403 24.9227 80.1403 22.316V19.664C80.1403 17.0347 80.6956 15.0173 81.8063 13.612C82.9169 12.2067 84.3676 11.504 86.1583 11.504C87.5636 11.504 88.7763 11.8893 89.7963 12.66C90.8389 13.408 91.6436 14.4847 92.2103 15.89C92.7769 17.2953 93.0603 18.9953 93.0603 20.99C93.0603 22.962 92.7769 24.662 92.2103 26.09C91.6436 27.4953 90.8389 28.5833 89.7963 29.354C88.7763 30.102 87.5636 30.476 86.1583 30.476ZM75.9583 30V5.69H81.0243V16.978L80.3783 20.99L81.0243 25.274V30L75.9583 30ZM84.2543 25.92C85.3423 25.92 86.2149 25.512 86.8723 24.696C87.5296 23.8573 87.8583 22.622 87.8583 20.99C87.8583 19.358 87.5296 18.134 86.8723 17.318C86.2149 16.4793 85.3423 16.06 84.2543 16.06C83.1889 16.06 82.3276 16.4793 81.6703 17.318C81.0129 18.134 80.6843 19.358 80.6843 20.99C80.6843 22.622 81.0129 23.8573 81.6703 24.696C82.3276 25.512 83.1889 25.92 84.2543 25.92ZM106.419 30C106.283 29.4107 106.169 28.81 106.079 28.198C106.011 27.586 105.977 26.9853 105.977 26.396V18.78C105.977 17.6013 105.705 16.774 105.161 16.298C104.617 15.822 103.971 15.584 103.223 15.584C102.497 15.584 101.863 15.788 101.319 16.196C100.797 16.604 100.435 17.2727 100.231 18.202L95.3685 17.148C95.8445 15.2667 96.7965 13.8613 98.2245 12.932C99.6525 11.98 101.421 11.504 103.529 11.504C105.841 11.504 107.665 12.116 109.003 13.34C110.363 14.5413 111.043 16.2187 111.043 18.372V25.988C111.043 27.3253 111.213 28.6627 111.553 30H106.419ZM100.503 30.476C98.7345 30.476 97.3859 30.0113 96.4565 29.082C95.5499 28.1527 95.0965 26.9287 95.0965 25.41C95.0965 24.0727 95.5385 22.894 96.4225 21.874C97.3292 20.8313 98.7232 20.1627 100.605 19.868L107.439 18.746V21.942L102.441 22.996C101.579 23.1773 100.99 23.4493 100.673 23.812C100.355 24.1747 100.197 24.56 100.197 24.968C100.197 25.3987 100.333 25.7613 100.605 26.056C100.899 26.328 101.33 26.464 101.897 26.464C102.554 26.464 103.189 26.3167 103.801 26.022C104.435 25.7273 104.957 25.2853 105.365 24.696C105.773 24.084 105.977 23.3473 105.977 22.486H107.133C107.133 24.118 106.838 25.5347 106.249 26.736C105.682 27.9373 104.9 28.8667 103.903 29.524C102.905 30.1587 101.772 30.476 100.503 30.476ZM125.894 30V19.664C125.894 18.4627 125.599 17.556 125.01 16.944C124.443 16.3093 123.707 15.992 122.8 15.992C121.893 15.992 121.145 16.3093 120.556 16.944C119.989 17.556 119.706 18.4627 119.706 19.664H118.822C118.822 17.9187 119.071 16.4453 119.57 15.244C120.069 14.02 120.771 13.0907 121.678 12.456C122.607 11.8213 123.695 11.504 124.942 11.504C126.121 11.504 127.163 11.7873 128.07 12.354C128.977 12.9207 129.679 13.7367 130.178 14.802C130.699 15.8673 130.96 17.148 130.96 18.644V30H125.894ZM114.64 30V11.98H119.706V30H114.64ZM139.254 25.172V18.984L144.898 11.98H150.882L139.254 25.172ZM134.562 30V5.69H139.628V30H134.562ZM145.476 30L140.206 21.908L143.3 18.338L151.358 30H145.476Z" fill="white"/>
<path d="M31 7H17.36L0 30H13.2267L31 7Z" fill="#175557"/>
<path d="M44 7H30.36L13 30H26.2267L44 7Z" fill="#C4FD5E"/>
</svg>
